<svg width="65" height="75" viewBox="0 0 65 75" fill="none" xmlns="http://www.w3.org/2000/svg">
<path d="M51.8259 38.4419V23.5121C51.8259 21.8746 53.0993 20.4801 54.7357 20.4219C56.4537 20.3608 57.8656 21.7353 57.8656 23.4398H58.5947V33.2204L51.8259 38.4419Z" fill="#FFC5A3"/>
<path d="M60.7758 14.9863C59.1393 15.0445 57.866 16.4391 57.866 18.0765V31.9629V31.9638C56.7412 31.7463 55.5316 32.1891 54.8026 33.1612L47.961 42.2833C47.3338 43.1197 46.9946 44.1369 46.9946 45.1824V57.3145L59.0738 57.3868V50.9563C59.0738 49.8593 59.4471 48.7948 60.1325 47.938L62.8466 44.5454C63.532 43.6887 63.9053 42.6243 63.9053 41.5271V18.0042C63.9056 16.2998 62.4937 14.9252 60.7758 14.9863Z" fill="#FFDCBD"/>
<path d="M60.7754 14.9863C60.1979 15.0069 59.6675 15.1963 59.2204 15.5017C60.023 16.0444 60.5512 16.9624 60.5512 18.0042V41.5271C60.5512 42.6243 60.1778 43.6887 59.4925 44.5454L56.7784 47.938C56.093 48.7948 55.7197 49.8593 55.7197 50.9563V57.3667L59.0737 57.3868V50.9563C59.0737 49.8593 59.447 48.7948 60.1324 47.938L62.8465 44.5454C63.5319 43.6887 63.9052 42.6243 63.9052 41.5271V18.0042C63.9052 16.2998 62.4933 14.9252 60.7754 14.9863Z" fill="#FFC5A3"/>
<path d="M13.1731 38.4419V23.5121C13.1731 21.8746 11.8997 20.4801 10.2633 20.4219C8.54531 20.3608 7.13343 21.7353 7.13343 23.4398H6.4043V33.2204L13.1731 38.4419Z" fill="#FFC5A3"/>
<path d="M4.22347 14.9863C5.85992 15.0445 7.13328 16.4391 7.13328 18.0765V31.9629V31.9638C8.25803 31.7463 9.46766 32.1891 10.1966 33.1612L17.0382 42.2833C17.6654 43.1197 18.0046 44.1369 18.0046 45.1824V57.3145L5.9254 57.3868V50.9563C5.9254 49.8593 5.55194 48.7948 4.86656 47.938L2.15245 44.5454C1.46706 43.6887 1.09375 42.6243 1.09375 41.5271V18.0042C1.0936 16.2998 2.50549 14.9252 4.22347 14.9863Z" fill="#FFDCBD"/>
<path d="M61.4902 62.219H44.5791V57.8248C44.5791 57.1806 45.1014 56.6582 45.7457 56.6582H60.3236C60.9679 56.6582 61.4902 57.1806 61.4902 57.8248V62.219Z" fill="#F3EDEA"/>
<path d="M60.3235 56.6582H56.9695C57.6137 56.6582 58.1361 57.1806 58.1361 57.8248V62.219H61.4901V57.8248C61.4901 57.1806 60.9677 56.6582 60.3235 56.6582Z" fill="#E3DCDA"/>
<path d="M62.7393 73.5694H43.3297C42.6854 73.5694 42.1631 73.0471 42.1631 72.4028V62.6568C42.1631 62.0126 42.6854 61.4902 43.3297 61.4902H62.7393C63.3835 61.4902 63.9059 62.0126 63.9059 62.6568V72.4028C63.9059 73.0471 63.3837 73.5694 62.7393 73.5694Z" fill="#0068AE"/>
<path d="M62.7392 61.4902H59.3853C60.0295 61.4902 60.5519 62.0126 60.5519 62.6568V72.4028C60.5519 73.0471 60.0295 73.5694 59.3853 73.5694H62.7392C63.3835 73.5694 63.9059 73.0471 63.9059 72.4028V62.6568C63.9059 62.0124 63.3837 61.4902 62.7392 61.4902Z" fill="#004A84"/>
<path d="M20.4209 62.219H3.50977V57.8248C3.50977 57.1806 4.03211 56.6582 4.67637 56.6582H19.2543C19.8986 56.6582 20.4209 57.1806 20.4209 57.8248V62.219Z" fill="#F3EDEA"/>
<path d="M19.2541 56.6582H15.9001C16.5444 56.6582 17.0668 57.1806 17.0668 57.8248V62.219H20.4207V57.8248C20.4207 57.1806 19.8984 56.6582 19.2541 56.6582Z" fill="#E3DCDA"/>
<path d="M21.6701 73.5694H2.26036C1.6161 73.5694 1.09375 73.0471 1.09375 72.4028V62.6568C1.09375 62.0126 1.6161 61.4902 2.26036 61.4902H21.6699C22.3142 61.4902 22.8365 62.0126 22.8365 62.6568V72.4028C22.8367 73.0471 22.3143 73.5694 21.6701 73.5694Z" fill="#0068AE"/>
<path d="M21.6699 61.4902H18.3159C18.9602 61.4902 19.4825 62.0126 19.4825 62.6568V72.4028C19.4825 73.0471 18.9602 73.5694 18.3159 73.5694H21.6699C22.3142 73.5694 22.8365 73.0471 22.8365 72.4028V62.6568C22.8365 62.0124 22.3142 61.4902 21.6699 61.4902Z" fill="#004A84"/>
<path d="M24.1233 1.09375C23.3156 1.09375 22.5612 1.4974 22.1133 2.16951L18.2016 8.03696C18.0694 8.23543 17.9988 8.46846 17.9988 8.70703V26.4602C17.9988 27.1273 18.5396 27.668 19.2067 27.668H45.7809C46.4481 27.668 46.9888 27.1272 46.9888 26.4602V8.70703C46.9888 8.4686 46.9182 8.23543 46.786 8.03696L42.8743 2.16951C42.4262 1.4974 41.672 1.09375 40.8643 1.09375H24.1233Z" fill="#FFC200"/>
<path d="M46.7857 8.03696L42.874 2.16951C42.4259 1.4974 41.6717 1.09375 40.864 1.09375H37.3911C38.1988 1.09375 38.9532 1.4974 39.4012 2.16951L43.3128 8.03696C43.4451 8.23543 43.5157 8.46846 43.5157 8.70703V26.4602C43.5157 27.1273 42.9749 27.668 42.3078 27.668H45.7806C46.4478 27.668 46.9885 27.1272 46.9885 26.4602V8.70703C46.9885 8.4686 46.9179 8.23543 46.7857 8.03696Z" fill="#FE9900"/>
<path d="M46.9307 8.3413C46.8965 8.23426 46.8487 8.13145 46.7857 8.03696L42.8741 2.16951C42.4259 1.4974 41.6717 1.09375 40.864 1.09375H24.123C23.3153 1.09375 22.561 1.4974 22.113 2.16951L18.2013 8.03696C18.1384 8.13145 18.0904 8.23426 18.0564 8.3413H46.9307Z" fill="#FFD900"/>
<path d="M39.4013 2.16936L43.313 8.03681C43.376 8.13131 43.4239 8.23412 43.4579 8.34115H46.9308C46.9308 8.34101 46.9306 8.34101 46.9306 8.34101C46.9135 8.28763 46.8931 8.23528 46.8692 8.18468C46.8449 8.13379 46.8173 8.08421 46.7857 8.03696L42.874 2.16951C42.4259 1.4974 41.6717 1.09375 40.864 1.09375H37.3911C38.199 1.0936 38.9533 1.49725 39.4013 2.16936Z" fill="#FFC200"/>
<path d="M36.117 1.09375V16.7967C36.117 17.4639 35.5763 18.0046 34.9092 18.0046H30.0775C29.4104 18.0046 28.8696 17.4637 28.8696 16.7967V1.09375H36.117Z" fill="#E3DCDA"/>
<path d="M32.6444 1.09375V16.7967C32.6444 17.4639 32.1037 18.0046 31.4365 18.0046H34.9094C35.5765 18.0046 36.1172 17.4637 36.1172 16.7967V1.09375H32.6444Z" fill="#DBCECA"/>
<path d="M28.8696 1.09375H36.1172V8.3413H28.8696V1.09375Z" fill="#F3EDEA"/>
<path d="M32.6443 1.09375H36.1171V8.3413H32.6443V1.09375Z" fill="#E3DCDA"/>
<path d="M48.0886 26.4601V8.70697C48.0886 8.47205 48.0524 8.24121 47.9835 8.02042C47.9811 8.01299 47.9784 8.00584 47.976 7.99855C47.9114 7.79891 47.8203 7.60759 47.702 7.43012L43.7904 1.56267C43.138 0.584179 42.0463 0 40.8702 0H24.1293C22.9532 0 21.8615 0.584179 21.2091 1.56282L17.2976 7.43012C17.1783 7.6089 17.0866 7.80198 17.0219 8.00351C17.0201 8.00876 17.0181 8.01401 17.0165 8.01926C16.9472 8.24033 16.9109 8.47161 16.9109 8.70697V26.4601C16.9109 27.7292 17.9433 28.7617 19.2125 28.7617H21.2529C21.8569 28.7617 22.3465 28.2721 22.3465 27.668C22.3465 27.0638 21.8569 26.5743 21.2529 26.5743H19.2125C19.1495 26.5743 19.0983 26.523 19.0983 26.4601V14.2666H27.7822V16.7968C27.7822 18.0659 28.8148 19.0984 30.0838 19.0984H34.9154C36.1846 19.0984 37.217 18.0659 37.217 16.7968V14.2666H45.9012V26.4601C45.9012 26.5231 45.8499 26.5743 45.787 26.5743H25.6278C25.0238 26.5743 24.5341 27.0638 24.5341 27.668C24.5341 28.2721 25.0238 28.7617 25.6278 28.7617H45.787C47.0562 28.7617 48.0886 27.7292 48.0886 26.4601ZM41.9703 2.77609L44.9513 7.24755H37.2171V2.18739H40.8702C41.3132 2.18739 41.7245 2.40744 41.9703 2.77609ZM35.0298 7.24755H29.9696V2.18739H35.0298V7.24755ZM23.0292 2.77623C23.2749 2.40759 23.6863 2.18739 24.1293 2.18739H27.7822V7.24755H20.0482L23.0292 2.77623ZM19.0984 12.0792V9.43494H27.7824V12.0792H19.0984ZM35.0298 16.7968C35.0298 16.8598 34.9784 16.911 34.9156 16.911H30.0839C30.0209 16.911 29.9697 16.8597 29.9697 16.7968V9.43494H35.0299V16.7968H35.0298ZM37.2171 12.0792V9.43494H45.9012V12.0792H37.2171Z" fill="black"/>
<path d="M62.7393 60.3959H62.5836V57.8244C62.5836 56.578 61.5696 55.5641 60.3233 55.5641H60.1677V50.9564C60.1677 50.1108 60.4586 49.2816 60.9868 48.6213L63.7009 45.2284C64.5382 44.1817 64.9993 42.8672 64.9993 41.5269V27.967C64.9993 27.3628 64.5098 26.8733 63.9056 26.8733C63.3015 26.8733 62.8119 27.3628 62.8119 27.967V41.5269C62.8119 42.3724 62.521 43.2016 61.9928 43.862L59.2787 47.2548C58.4414 48.3015 57.9803 49.616 57.9803 50.9564V55.5641H48.0885V45.1826C48.0885 44.379 48.3539 43.5825 48.836 42.9397L55.6777 33.8175C56.3167 32.9656 57.5199 32.7476 58.3602 33.3327C58.7946 33.6348 59.08 34.088 59.1637 34.6085C59.2477 35.1294 59.1195 35.6488 58.803 36.0708L53.1257 43.6405C52.7634 44.1236 52.8612 44.8093 53.3445 45.1717C53.8279 45.5341 54.5133 45.4361 54.8756 44.9529L60.5529 37.3831C61.2288 36.4818 61.5024 35.3729 61.3232 34.2605C61.1441 33.1488 60.5356 32.1815 59.6096 31.5371C59.4021 31.3927 59.1842 31.272 58.9598 31.1721V23.44V18.0766C58.9598 17.0117 59.7919 16.1157 60.8146 16.0794C61.3435 16.0605 61.8439 16.2519 62.2234 16.6182C62.603 16.9847 62.8121 17.477 62.8121 18.0043V23.5928C62.8121 24.197 63.3016 24.6865 63.9058 24.6865C64.5099 24.6865 64.9995 24.197 64.9995 23.5928V18.0043C64.9995 16.8778 64.5531 15.8267 63.7424 15.0443C62.9318 14.2621 61.8655 13.8531 60.737 13.8933C58.551 13.9709 56.7725 15.8475 56.7725 18.0766V19.8038C56.1427 19.4686 55.4333 19.3023 54.6976 19.3291C52.5115 19.4067 50.7329 21.2834 50.7329 23.5123V36.7651L47.0862 41.6272C46.3221 42.6461 45.9012 43.9087 45.9012 45.1825V55.564H45.7456C44.4993 55.564 43.4853 56.5779 43.4853 57.8243V60.3958H43.3299C42.0835 60.3958 41.0696 61.4097 41.0696 62.6561V72.4022C41.0696 73.6486 42.0835 74.6625 43.3299 74.6625H62.7396C63.986 74.6625 64.9999 73.6486 64.9999 72.4022V62.6562C64.9996 61.4098 63.9857 60.3959 62.7393 60.3959ZM52.9201 23.5123C52.9201 22.4473 53.7522 21.5514 54.7752 21.5151C55.3048 21.4967 55.8043 21.6876 56.1836 22.0536C56.5633 22.4201 56.7724 22.9125 56.7724 23.44V30.8581C55.6791 30.9978 54.6343 31.5629 53.9278 32.5051L52.9201 33.8486V23.5123ZM45.6726 57.8244C45.6726 57.7843 45.7054 57.7515 45.7455 57.7515H60.3233C60.3634 57.7515 60.3962 57.7843 60.3962 57.8244V60.3959H45.6726V57.8244ZM62.8122 72.4022C62.8122 72.4423 62.7794 72.4751 62.7393 72.4751H43.3296C43.2895 72.4751 43.2567 72.4423 43.2567 72.4022V62.6562C43.2567 62.6161 43.2895 62.5833 43.3296 62.5833H44.5787H61.4899H62.7392C62.7793 62.5833 62.8121 62.6161 62.8121 62.6562V72.4022H62.8122Z" fill="black"/>
<path d="M49.4106 65.2285H46.9948C46.3907 65.2285 45.9011 65.7181 45.9011 66.3222C45.9011 66.9264 46.3907 67.4159 46.9948 67.4159H49.4106C50.0147 67.4159 50.5043 66.9264 50.5043 66.3222C50.5043 65.7181 50.0147 65.2285 49.4106 65.2285Z" fill="black"/>
<path d="M21.6697 60.3962H21.5141V57.8247C21.5141 56.5783 20.5002 55.5644 19.2538 55.5644H19.0984V45.1829C19.0984 43.9091 18.6775 42.6464 17.9133 41.6275L14.2667 36.7654V23.5126C14.2667 21.2836 12.4882 19.407 10.3022 19.3294C9.56647 19.3018 8.85688 19.4684 8.22721 19.8038V18.0769C8.22721 15.848 6.44871 13.9713 4.26249 13.8936C3.13322 13.8513 2.06767 14.2622 1.25731 15.0445C0.446665 15.8268 0.000145746 16.8781 0.000145746 18.0046V41.5275C0.000145746 42.8677 0.461247 44.1824 1.29858 45.2291L4.01269 48.6217C4.54087 49.282 4.8318 50.1115 4.8318 50.957V55.5647H4.67605C3.42968 55.5647 2.41575 56.5786 2.41575 57.825V60.3965H2.2603C1.01393 60.3965 0 61.4104 0 62.6568V72.4024C0 73.6488 1.01393 74.6628 2.2603 74.6628H21.6699C22.9163 74.6628 23.9302 73.6488 23.9302 72.4024V62.6565C23.93 61.4101 22.9161 60.3962 21.6697 60.3962ZM8.8159 22.0539C9.19534 21.6877 9.69567 21.4975 10.2244 21.5153C11.2473 21.5516 12.0793 22.4476 12.0793 23.5126V33.8488L11.0717 32.5054C10.365 31.5632 9.32017 30.998 8.22706 30.8584V23.4402C8.22706 22.9128 8.43617 22.4203 8.8159 22.0539ZM5.72075 47.2552L3.00664 43.8624C2.47831 43.2023 2.18753 42.373 2.18753 41.5273V18.0046C2.18753 17.4771 2.39665 16.985 2.77638 16.6183C3.15567 16.2522 3.65586 16.0597 4.18491 16.0797C5.20774 16.116 6.03982 17.0121 6.03982 18.0769V23.4402V31.1722C5.81525 31.2721 5.59753 31.393 5.39002 31.5374C4.46402 32.1818 3.85549 33.1489 3.67627 34.2608C3.49705 35.3732 3.77062 36.482 4.44652 37.3835L10.1238 44.9532C10.4863 45.4365 11.1719 45.5345 11.655 45.1719C12.1381 44.8096 12.2361 44.1239 11.8737 43.6408L6.19658 36.0712C5.88014 35.6489 5.75196 35.1296 5.83581 34.6087C5.91966 34.0883 6.20504 33.6351 6.63931 33.3329C7.47941 32.7482 8.68277 32.9659 9.32178 33.8178L16.1633 42.9399C16.6454 43.5827 16.911 44.3792 16.911 45.1829V55.5644H7.01918V50.9567C7.01918 49.6164 6.55808 48.3018 5.72075 47.2552ZM4.60314 57.8247C4.60314 57.7846 4.63581 57.7518 4.67605 57.7518H19.254C19.2942 57.7518 19.3269 57.7846 19.3269 57.8247V60.3962H4.60314V57.8247ZM21.7426 72.4024C21.7426 72.4426 21.71 72.4754 21.6697 72.4754H2.26016C2.21991 72.4754 2.18724 72.4426 2.18724 72.4024V62.6565C2.18724 62.6164 2.21991 62.5835 2.26016 62.5835H3.5093H20.4204H21.6697C21.71 62.5835 21.7426 62.6164 21.7426 62.6565V72.4024Z" fill="black"/>
<path d="M18.0047 65.2285H15.5888C14.9848 65.2285 14.4951 65.7181 14.4951 66.3222C14.4951 66.9264 14.9848 67.4159 15.5888 67.4159H18.0047C18.6087 67.4159 19.0984 66.9264 19.0984 66.3222C19.0984 65.7181 18.6087 65.2285 18.0047 65.2285Z" fill="black"/>
</svg>
