<svg width="65" height="64" viewBox="0 0 65 64" fill="none" xmlns="http://www.w3.org/2000/svg">
<path d="M29.1044 24.403L29.125 24.3511L17.2681 19.816C17.6045 18.9534 20.8518 11.0955 31.1494 0.943359L40.1167 9.86418C31.7451 18.1176 29.1298 24.3411 29.1044 24.403Z" fill="#78C2A4"/>
<path d="M34.9097 4.68359C27.4205 12.9748 24.9066 19.0623 24.6128 19.8156L30.357 22.0126C31.8534 19.4576 34.8424 15.064 40.1169 9.86392L34.9097 4.68359Z" fill="#66B394"/>
<path d="M40.9623 24.403L40.9829 24.3511L29.126 19.816C29.4624 18.9534 32.7097 11.0955 43.0073 0.943359L51.9746 9.86418C43.603 18.1176 40.9877 24.3411 40.9623 24.403Z" fill="#78C2A4"/>
<path d="M46.9887 4.9043C39.6535 13.0827 37.1808 19.0696 36.8896 19.816L42.2917 21.8822C43.8126 19.3096 46.7891 14.9768 51.9747 9.86435L46.9887 4.9043Z" fill="#66B394"/>
<path d="M52.8202 24.403L52.8408 24.3511L40.9839 19.816C41.3203 18.9534 44.5676 11.0955 54.8652 0.943359L63.8325 9.86418C55.4611 18.1176 52.8456 24.3411 52.8202 24.403Z" fill="#78C2A4"/>
<path d="M63.8329 9.86436L61.627 7.66992C54.0554 15.2638 50.7575 21.2734 49.8159 23.194L52.8412 24.3512L52.8206 24.4032C52.8459 24.3412 55.4614 18.1177 63.8329 9.86436Z" fill="#66B394"/>
<path d="M20.4413 21.7031C24.6799 21.7031 28.116 18.3002 28.116 14.1025C28.116 9.90484 24.6799 6.50195 20.4413 6.50195C16.2027 6.50195 12.7666 9.90484 12.7666 14.1025C12.7666 18.3002 16.2027 21.7031 20.4413 21.7031Z" fill="#F6E266"/>
<path d="M20.4412 6.50195C19.9031 6.50195 19.378 6.5574 18.8711 6.66175C22.3566 7.37953 24.9756 10.4378 24.9756 14.1025C24.9756 17.7672 22.3566 20.8256 18.8711 21.5433C19.378 21.6476 19.9031 21.7031 20.4412 21.7031C24.6798 21.7031 28.1159 18.3002 28.1159 14.1025C28.1159 9.90488 24.6798 6.50195 20.4412 6.50195Z" fill="#ECBE6B"/>
<path d="M56.7011 59.2404H12.0325C11.4367 59.2404 10.9536 58.762 10.9536 58.172V19.6934C10.9536 19.1034 11.4367 18.625 12.0325 18.625H56.7011C59.4435 18.625 61.6667 20.8267 61.6667 23.5427V54.3227C61.6667 57.0387 59.4435 59.2404 56.7011 59.2404Z" fill="#AA7A63"/>
<path d="M56.7013 18.625H53.582C56.3245 18.625 58.5477 20.8267 58.5477 23.5427V54.3227C58.5477 57.0387 56.3245 59.2404 53.582 59.2404H56.7013C59.4437 59.2404 61.6669 57.0387 61.6669 54.3227V23.5427C61.6669 20.8267 59.4437 18.625 56.7013 18.625Z" fill="#986B54"/>
<path d="M62.4944 42.3247H59.1871C57.2957 42.3247 55.7622 40.8062 55.7622 38.9329C55.7622 37.0597 57.2955 35.541 59.1871 35.541H62.4944C63.3522 35.541 64.0477 36.2297 64.0477 37.0793V40.7862C64.0477 41.636 63.3522 42.3247 62.4944 42.3247Z" fill="#365E7D"/>
<path d="M62.4943 35.541H60.1133C60.9711 35.541 61.6665 36.2297 61.6665 37.0793V40.7862C61.6665 41.6357 60.9711 42.3245 60.1133 42.3245H62.4943C63.3521 42.3245 64.0475 41.6357 64.0475 40.7862V37.0793C64.0475 36.2297 63.3521 35.541 62.4943 35.541Z" fill="#2B4D66"/>
<path d="M25.6943 63.0594H13.4517C12.5747 63.0594 11.8638 62.3554 11.8638 61.4868V59.6878C11.8638 58.8193 12.5747 58.1152 13.4517 58.1152H25.6943C26.5713 58.1152 27.2822 58.8193 27.2822 59.6878V61.4868C27.2822 62.3554 26.5713 63.0594 25.6943 63.0594Z" fill="#EAB14D"/>
<path d="M25.6941 58.1133H23.1555C24.0325 58.1133 24.7434 58.8174 24.7434 59.6859V61.4849C24.7434 62.3534 24.0325 63.0575 23.1555 63.0575H25.6941C26.5711 63.0575 27.282 62.3534 27.282 61.4849V59.6859C27.2821 58.8175 26.5712 58.1133 25.6941 58.1133Z" fill="#E49542"/>
<path d="M25.6943 58.1122H13.4517C12.5747 58.1122 11.8638 57.4081 11.8638 56.5396V54.7406C11.8638 53.872 12.5747 53.168 13.4517 53.168H25.6943C26.5713 53.168 27.2822 53.872 27.2822 54.7406V56.5396C27.2822 57.4081 26.5713 58.1122 25.6943 58.1122Z" fill="#F6E266"/>
<path d="M25.6941 53.168H23.1555C24.0325 53.168 24.7434 53.872 24.7434 54.7406V56.5396C24.7434 57.4081 24.0325 58.1122 23.1555 58.1122H25.6941C26.5711 58.1122 27.282 57.4081 27.282 56.5396V54.7406C27.2821 53.872 26.5712 53.168 25.6941 53.168Z" fill="#ECBE6B"/>
<path d="M9.32507 63.0568C13.9493 63.0568 17.698 59.3443 17.698 54.7647C17.698 50.1851 13.9493 46.4727 9.32507 46.4727C4.70083 46.4727 0.952148 50.1851 0.952148 54.7647C0.952148 59.3443 4.70083 63.0568 9.32507 63.0568Z" fill="#F6E266"/>
<path d="M9.32528 46.4727C8.73812 46.4727 8.16531 46.5331 7.6123 46.6469C11.4148 47.4299 14.2723 50.7666 14.2723 54.7646C14.2723 58.7627 11.4149 62.0994 7.6123 62.8823C8.16531 62.9962 8.73812 63.0565 9.32528 63.0565C13.9495 63.0565 17.6982 59.3441 17.6982 54.7645C17.6982 50.1851 13.9495 46.4727 9.32528 46.4727Z" fill="#ECBE6B"/>
<path d="M62.619 34.6048V23.5432C62.619 20.7673 60.6595 18.4377 58.0389 17.8355C59.8951 15.3895 62.0635 12.9387 64.5044 10.5322C64.8771 10.1648 64.8784 9.5677 64.5074 9.19857L55.5401 0.277748C55.1689 -0.0915112 54.566 -0.0926427 54.1936 0.274731C52.3848 2.05804 50.6917 3.87039 49.1281 5.69532L43.6822 0.277748C43.3109 -0.0915112 42.708 -0.0926427 42.3357 0.274731C40.5232 2.06169 38.8313 3.87266 37.2698 5.69494L31.8244 0.277748C31.4532 -0.0915112 30.8503 -0.0926427 30.478 0.274731C28.3657 2.35702 26.3997 4.49425 24.6231 6.63362C23.3836 5.95029 21.958 5.55941 20.4416 5.55941C15.6846 5.55941 11.8147 9.39206 11.8147 14.1029C11.8147 15.3568 12.0857 16.5697 12.6063 17.6827H12.0326C10.9127 17.6827 10.0016 18.5851 10.0016 19.6941V45.5571C9.77791 45.5412 9.55282 45.5302 9.32507 45.5302C4.18323 45.5301 0 49.6728 0 54.765C0 56.2399 0.343154 57.6524 1.02007 58.9635C1.25963 59.4272 1.8332 59.6105 2.3014 59.3738C2.7696 59.1366 2.95496 58.5686 2.71565 58.1048C2.17724 57.0621 1.90429 55.9385 1.90429 54.765C1.90429 50.7128 5.23325 47.416 9.32507 47.416C13.4169 47.416 16.7458 50.7128 16.7458 54.765C16.7458 58.8173 13.4169 62.1141 9.32507 62.1141C7.7181 62.1141 6.18883 61.6136 4.90267 60.6664C4.48055 60.3554 3.88412 60.4424 3.57042 60.8603C3.2566 61.2783 3.34445 61.8689 3.76631 62.1797C5.38344 63.3706 7.30563 64 9.32507 64C10.2792 64 11.2002 63.8568 12.0676 63.5918C12.4762 63.8553 12.9566 64 13.4515 64H25.6942C27.0948 64 28.2343 62.8715 28.2343 61.4845V60.1839H56.7012C59.9643 60.1839 62.619 57.5549 62.619 54.3233V50.3273C62.619 49.8064 62.1928 49.3844 61.6669 49.3844C61.1409 49.3844 60.7147 49.8064 60.7147 50.3273V54.3233C60.7147 56.5151 58.9143 58.298 56.7012 58.298H27.8111C27.7682 58.234 27.7221 58.1724 27.6736 58.1127C28.0236 57.6816 28.2342 57.1351 28.2342 56.54V54.741C28.2342 53.3538 27.0947 52.2253 25.6941 52.2253H18.2888C17.407 49.1774 14.9813 46.7713 11.906 45.8924V19.694C11.906 19.6248 11.9629 19.5685 12.0327 19.5685H56.7013C58.9145 19.5685 60.7148 21.3516 60.7148 23.5432V34.5985H59.1873C56.7738 34.5985 54.8103 36.5431 54.8103 38.9333C54.8103 41.3235 56.7738 43.2681 59.1873 43.2681H60.7148V46.5573C60.7148 47.0782 61.141 47.5002 61.667 47.5002C62.193 47.5002 62.6191 47.0782 62.6191 46.5573V43.2619C63.9426 43.1969 65 42.1133 65 40.7868V37.0799C64.9999 35.7533 63.9425 34.6698 62.619 34.6048ZM26.3299 61.4845C26.3299 61.8317 26.0448 62.1141 25.6941 62.1141H14.9636C16.0448 61.2985 16.9406 60.2547 17.5787 59.0558H25.6941C26.0448 59.0558 26.3299 59.3382 26.3299 59.6854V61.4845ZM25.6942 54.1115C26.0449 54.1115 26.33 54.394 26.33 54.7412V56.5402C26.33 56.8875 26.0449 57.17 25.6942 57.17H18.3276C18.5368 56.4027 18.6503 55.5969 18.6503 54.7651C18.6503 54.5451 18.6397 54.3277 18.6244 54.1116H25.6942V54.1115ZM43.0085 2.2807L47.9083 7.15513C47.1626 8.06917 46.4491 8.98509 45.7718 9.90126C45.4613 10.3214 45.5534 10.9115 45.9776 11.2191C46.4019 11.5265 46.9977 11.4355 47.3084 11.0153C49.476 8.08312 52.0158 5.14778 54.8656 2.27995L62.49 9.8648C59.9378 12.4412 57.688 15.066 55.7883 17.6826H43.0458C43.5517 16.7295 44.2394 15.5304 45.1484 14.1276C45.4324 13.6893 45.304 13.106 44.8613 12.8247C44.4192 12.5435 43.8298 12.6706 43.5459 13.1089C42.3022 15.0278 41.4523 16.5897 40.9087 17.6825H31.1836C34.5889 11.2169 40.1252 5.19254 43.0085 2.2807ZM31.1499 2.27995L36.0494 7.15413C34.9311 8.52492 33.8878 9.90038 32.9246 11.2749C31.0104 14.0069 29.7862 16.2022 29.0505 17.6825H28.2767C28.7972 16.5694 29.0681 15.3565 29.0681 14.1027C29.0681 11.5714 27.9498 9.295 26.1781 7.7292C27.7025 5.90025 29.3692 4.07231 31.1499 2.27995ZM13.7188 14.1028C13.7188 10.4318 16.7345 7.44518 20.4413 7.44518C24.1481 7.44518 27.1639 10.4318 27.1639 14.1028C27.1639 15.3861 26.7999 16.6141 26.1087 17.6826H14.7739C14.0829 16.6142 13.7188 15.3862 13.7188 14.1028ZM63.0956 40.7868C63.0956 41.1151 62.8259 41.3821 62.4945 41.3821H59.1872C57.8237 41.3821 56.7144 40.2836 56.7144 38.9332C56.7144 37.5828 57.8236 36.4843 59.1872 36.4843H62.4945C62.8259 36.4843 63.0956 36.7514 63.0956 37.0796V40.7868Z" fill="black"/>
<path d="M58.4235 38.1483C58.1406 38.3397 57.9995 38.6421 57.9995 38.9328C57.9995 39.4427 58.4178 39.8757 58.9517 39.8757C59.4828 39.8757 59.9051 39.4459 59.9051 38.9328C59.9051 38.1843 59.061 37.7334 58.4235 38.1483Z" fill="black"/>
<path d="M16.1924 22.1836C15.6664 22.1836 15.2402 22.6058 15.2402 23.1265C15.2402 23.6473 15.6664 24.0695 16.1924 24.0695H17.6765C18.2024 24.0695 18.6286 23.6473 18.6286 23.1265C18.6286 22.6058 18.2024 22.1836 17.6765 22.1836H16.1924Z" fill="black"/>
<path d="M49.4093 23.1265C49.4093 22.6058 48.9831 22.1836 48.4571 22.1836H45.4077C44.8817 22.1836 44.4556 22.6058 44.4556 23.1265C44.4556 23.6473 44.8817 24.0695 45.4077 24.0695H48.4571C48.9831 24.0695 49.4093 23.6473 49.4093 23.1265Z" fill="black"/>
<path d="M41.7857 23.1265C41.7857 22.6058 41.3596 22.1836 40.8336 22.1836H37.7842C37.2582 22.1836 36.832 22.6058 36.832 23.1265C36.832 23.6473 37.2582 24.0695 37.7842 24.0695H40.8336C41.3594 24.0695 41.7857 23.6473 41.7857 23.1265Z" fill="black"/>
<path d="M22.5371 22.1836C22.0111 22.1836 21.585 22.6058 21.585 23.1265C21.585 23.6473 22.0111 24.0695 22.5371 24.0695H25.5865C26.1125 24.0695 26.5387 23.6473 26.5387 23.1265C26.5387 22.6058 26.1125 22.1836 25.5865 22.1836H22.5371Z" fill="black"/>
<path d="M34.1622 23.1265C34.1622 22.6058 33.736 22.1836 33.2101 22.1836H30.1606C29.6347 22.1836 29.2085 22.6058 29.2085 23.1265C29.2085 23.6473 29.6347 24.0695 30.1606 24.0695H33.2101C33.7359 24.0695 34.1622 23.6473 34.1622 23.1265Z" fill="black"/>
<path d="M54.9443 24.0695H56.4284C56.9544 24.0695 57.3806 23.6473 57.3806 23.1265C57.3806 22.6058 56.9544 22.1836 56.4284 22.1836H54.9443C54.4184 22.1836 53.9922 22.6058 53.9922 23.1265C53.9922 23.6473 54.4184 24.0695 54.9443 24.0695Z" fill="black"/>
<path d="M54.9443 55.6828H56.4284C56.9544 55.6828 57.3806 55.2607 57.3806 54.7398C57.3806 54.2189 56.9544 53.7969 56.4284 53.7969H54.9443C54.4184 53.7969 53.9922 54.2189 53.9922 54.7398C53.9922 55.2607 54.4184 55.6828 54.9443 55.6828Z" fill="black"/>
<path d="M30.835 54.7398C30.835 55.2607 31.2611 55.6828 31.7871 55.6828H34.8365C35.3625 55.6828 35.7887 55.2607 35.7887 54.7398C35.7887 54.2189 35.3625 53.7969 34.8365 53.7969H31.7871C31.2611 53.7969 30.835 54.2189 30.835 54.7398Z" fill="black"/>
<path d="M47.0337 55.6828H50.0831C50.6091 55.6828 51.0352 55.2607 51.0352 54.7398C51.0352 54.2189 50.6091 53.7969 50.0831 53.7969H47.0337C46.5077 53.7969 46.0815 54.2189 46.0815 54.7398C46.0815 55.2607 46.5079 55.6828 47.0337 55.6828Z" fill="black"/>
<path d="M39.4102 55.6828H42.4596C42.9855 55.6828 43.4117 55.2607 43.4117 54.7398C43.4117 54.2189 42.9855 53.7969 42.4596 53.7969H39.4102C38.8842 53.7969 38.458 54.2189 38.458 54.7398C38.458 55.2607 38.8842 55.6828 39.4102 55.6828Z" fill="black"/>
</svg>
