<svg width="65" height="65" viewBox="0 0 65 65" fill="none" xmlns="http://www.w3.org/2000/svg">
<path d="M32.5 64.0488C49.9234 64.0488 64.0479 49.9244 64.0479 32.501C64.0479 15.0776 49.9234 0.953125 32.5 0.953125C15.0766 0.953125 0.952148 15.0776 0.952148 32.501C0.952148 49.9244 15.0766 64.0488 32.5 64.0488Z" fill="#FFCD34"/>
<path d="M32.5 0.953125C31.9368 0.953125 31.3772 0.968486 30.8213 0.997686C47.4643 1.87036 60.6906 15.6407 60.6906 32.501C60.6906 49.3612 47.4643 63.1317 30.8214 64.0043C31.3773 64.0335 31.9368 64.0488 32.5001 64.0488C49.9235 64.0488 64.048 49.9244 64.048 32.501C64.048 15.0775 49.9234 0.953125 32.5 0.953125Z" fill="#E69012"/>
<path d="M32.5001 57.0832C46.0772 57.0832 57.0837 46.0767 57.0837 32.4996C57.0837 18.9225 46.0772 7.91602 32.5001 7.91602C18.9229 7.91602 7.9165 18.9225 7.9165 32.4996C7.9165 46.0767 18.9229 57.0832 32.5001 57.0832Z" fill="#F4FBFF"/>
<path d="M32.5001 7.91602C31.8193 7.91602 31.1453 7.94496 30.4785 7.9993C43.1098 9.02762 53.0405 19.6033 53.0405 32.4996C53.0405 45.3959 43.1098 55.9716 30.4785 56.9999C31.1454 57.0542 31.8194 57.0832 32.5001 57.0832C46.0772 57.0832 57.0837 46.0767 57.0837 32.4996C57.0837 18.9225 46.0772 7.91602 32.5001 7.91602Z" fill="#DAF1F4"/>
<path d="M32.5001 35.0417C33.9036 35.0417 35.0414 33.9039 35.0414 32.5003C35.0414 31.0968 33.9036 29.959 32.5001 29.959C31.0965 29.959 29.9587 31.0968 29.9587 32.5003C29.9587 33.9039 31.0965 35.0417 32.5001 35.0417Z" fill="#365E7D"/>
<path d="M32.5 15.4834C33.0258 15.4834 33.4521 15.0571 33.4521 14.5313V13.1338C33.4521 12.6079 33.0258 12.1816 32.5 12.1816C31.9742 12.1816 31.5479 12.6079 31.5479 13.1338V14.5313C31.5479 15.0571 31.9742 15.4834 32.5 15.4834Z" fill="black"/>
<path d="M46.8161 18.1539C46.4442 17.7821 45.8413 17.782 45.4696 18.1539L44.4814 19.142C44.1094 19.5139 44.1094 20.1168 44.4813 20.4886C44.6672 20.6745 44.9109 20.7675 45.1546 20.7675C45.3982 20.7675 45.642 20.6746 45.8279 20.4887L46.8161 19.5005C47.1878 19.1287 47.1878 18.5258 46.8161 18.1539Z" fill="black"/>
<path d="M50.3657 31.5488C49.8398 31.5488 49.4136 31.9751 49.4136 32.501C49.4136 33.0268 49.8398 33.4531 50.3657 33.4531H51.7632C52.2892 33.4531 52.7154 33.0269 52.7154 32.501C52.7154 31.975 52.2892 31.5488 51.7632 31.5488H50.3657Z" fill="black"/>
<path d="M45.7546 44.4819C45.3827 44.1102 44.7799 44.1102 44.408 44.4819C44.0362 44.8539 44.0362 45.4567 44.408 45.8285L45.3961 46.8166C45.5821 47.0024 45.8258 47.0954 46.0695 47.0954C46.3131 47.0954 46.5568 47.0024 46.7428 46.8166C47.1147 46.4446 47.1147 45.8418 46.7428 45.47L45.7546 44.4819Z" fill="black"/>
<path d="M31.4441 50.3662V51.7637C31.4441 52.2897 31.8704 52.7159 32.3962 52.7159C32.9221 52.7159 33.3484 52.2897 33.3484 51.7637V50.3662C33.3484 49.8402 32.9222 49.4141 32.3962 49.4141C31.8703 49.4141 31.4441 49.8402 31.4441 50.3662Z" fill="black"/>
<path d="M19.0686 44.4076L18.0804 45.3957C17.7086 45.7676 17.7086 46.3705 18.0804 46.7422C18.2663 46.9282 18.51 47.0211 18.7536 47.0211C18.9973 47.0211 19.241 46.9282 19.4269 46.7423L20.4151 45.7542C20.7869 45.3824 20.7869 44.7795 20.4151 44.4078C20.0433 44.0359 19.4404 44.036 19.0686 44.4076Z" fill="black"/>
<path d="M13.1331 31.4434C12.6072 31.4434 12.1809 31.8697 12.1809 32.3955C12.1809 32.9215 12.6072 33.3477 13.1331 33.3477H14.5306C15.0564 33.3477 15.4827 32.9215 15.4827 32.3955C15.4827 31.8697 15.0564 31.4434 14.5306 31.4434H13.1331Z" fill="black"/>
<path d="M20.4884 19.0678L19.5002 18.0796C19.1282 17.7078 18.5256 17.7079 18.1536 18.0796C17.7817 18.4515 17.7819 19.0544 18.1536 19.4262L19.1418 20.4143C19.3278 20.6003 19.5714 20.6932 19.815 20.6932C20.0587 20.6932 20.3024 20.6003 20.4884 20.4143C20.8602 20.0424 20.8601 19.4397 20.4884 19.0678Z" fill="black"/>
<path d="M35.0515 34.883L41.8336 38.3704C42.3041 38.6124 42.8766 38.424 43.1158 37.9591C43.3564 37.4914 43.172 36.9174 42.7045 36.6768L35.9247 33.1906C35.9696 32.9673 35.9935 32.7365 35.9935 32.5002C35.9935 30.904 34.917 29.5554 33.4523 29.1398V19.4346C33.4523 18.9087 33.0259 18.4824 32.5001 18.4824C31.9743 18.4824 31.548 18.9087 31.548 19.4346V29.1398C30.3861 29.4695 29.4694 30.3862 29.1397 31.5481H24.4136C23.8877 31.5481 23.4614 31.9744 23.4614 32.5002C23.4614 33.026 23.8877 33.4524 24.4136 33.4524H29.1397C29.5553 34.9171 30.9039 35.9937 32.5001 35.9937C33.5061 35.9938 34.4135 35.5659 35.0515 34.883ZM32.5 34.0895C31.6237 34.0895 30.9108 33.3767 30.9108 32.5003C30.9108 31.6241 31.6236 30.9111 32.5 30.9111C33.3762 30.9111 34.0891 31.624 34.0891 32.5003C34.0892 33.3767 33.3762 34.0895 32.5 34.0895Z" fill="black"/>
<path d="M57.0837 31.5466C57.608 31.5065 58.0005 31.049 57.9604 30.5246C57.4705 24.127 54.6048 18.1883 49.891 13.8022C45.1526 9.39308 38.9765 6.96484 32.5001 6.96484C18.4197 6.96484 6.96436 18.4201 6.96436 32.5006C6.96436 46.5811 18.4197 58.0363 32.5001 58.0363C45.817 58.0363 56.9416 47.7777 57.9603 34.4769C58.0003 33.9525 57.608 33.495 57.0835 33.4548C56.5614 33.4155 56.1017 33.8071 56.0614 34.3315C55.1211 46.6127 44.8492 56.132 32.5001 56.132C19.4696 56.132 8.86865 45.531 8.86865 32.5006C8.86865 19.4701 19.4696 8.86914 32.5001 8.86914C38.4933 8.86914 44.2089 11.1162 48.5938 15.1964C52.9562 19.2556 55.6083 24.7508 56.0614 30.67C56.1017 31.1941 56.5575 31.5877 57.0837 31.5466Z" fill="black"/>
<path d="M55.4811 9.51907C49.3426 3.38051 41.1812 0 32.5 0C26.2612 0 20.2004 1.77277 14.9727 5.12687C14.5302 5.41087 14.4016 5.9998 14.6856 6.44249C14.9696 6.88492 15.5584 7.01353 16.0012 6.72966C20.9212 3.57284 26.6265 1.9043 32.5 1.9043C40.6725 1.9043 48.3557 5.08676 54.1345 10.8655C59.9132 16.6443 63.0957 24.3275 63.0957 32.5C63.0957 49.4093 49.4117 63.0957 32.5 63.0957C29.4781 63.0957 26.4894 62.6544 23.6168 61.7844C23.1135 61.6318 22.5819 61.9162 22.4296 62.4197C22.2771 62.9229 22.5615 63.4543 23.0647 63.6069C26.1166 64.5313 29.291 65 32.5 65C50.4618 65 65 50.4642 65 32.5C65 23.8189 61.6194 15.6575 55.4811 9.51907Z" fill="black"/>
<path d="M20.1546 60.5001C9.06801 55.6047 1.9043 44.6137 1.9043 32.4994C1.9043 23.3451 5.9555 14.7459 13.019 8.9066C13.4243 8.57157 13.4813 7.97146 13.1461 7.5661C12.8112 7.16099 12.2111 7.10399 11.8056 7.43889C4.30308 13.6412 0 22.7753 0 32.4994C0 45.3674 7.60919 57.0421 19.3852 62.2423C19.5103 62.2975 19.6409 62.3236 19.7694 62.3236C20.135 62.3236 20.4836 62.1119 20.6409 61.7558C20.8533 61.2748 20.6356 60.7126 20.1546 60.5001Z" fill="black"/>
</svg>
