<svg width="65" height="60" viewBox="0 0 65 60" fill="none" xmlns="http://www.w3.org/2000/svg">
<path d="M64.0338 4.90535V54.1289C64.0338 56.3055 62.2703 58.0695 60.0933 58.0695H4.90584C2.72879 58.0695 0.965332 56.3055 0.965332 54.1289V4.90535C0.965332 2.7283 2.72879 0.964844 4.90584 0.964844H60.0933C62.2703 0.964844 64.0338 2.7283 64.0338 4.90535Z" fill="#E6E6E6"/>
<path d="M64.0338 4.90535V9.61253H0.965332V4.90535C0.965332 2.7283 2.72879 0.964844 4.90584 0.964844H60.0933C62.2703 0.964844 64.0338 2.7283 64.0338 4.90535Z" fill="#75B2CC"/>
<path d="M43.2374 15.4395H11.7461C9.1515 15.4395 7.04785 17.5431 7.04785 20.1377V37.9855C7.04785 40.5801 9.1515 42.6833 11.7461 42.6833H43.2374C45.832 42.6833 47.9352 40.5801 47.9352 37.9855V20.1377C47.9352 17.5431 45.832 15.4395 43.2374 15.4395Z" fill="#F4C84D"/>
<path d="M33.4953 21.5723H7.04785V27.2703H47.9352V21.5723H33.4953Z" fill="#244F5E"/>
<path d="M43.9165 54.5342V34.5664L58.9555 47.5449L49.8025 48.0522L43.9165 54.5342Z" fill="#244F5E"/>
<path d="M7.07584 5.21818C6.92459 4.85864 6.56357 4.61961 6.17279 4.62308C5.76862 4.62656 5.40314 4.89286 5.27172 5.27421C5.14378 5.64516 5.25982 6.06618 5.55737 6.32158C5.87326 6.59284 6.3419 6.62557 6.69449 6.40588C7.0932 6.15793 7.24892 5.6516 7.07584 5.21818Z" fill="black"/>
<path d="M14.679 5.21853C14.3482 4.43648 13.1977 4.44193 12.8878 5.24035C12.7276 5.65295 12.8789 6.13596 13.2434 6.38491C13.5702 6.60757 14.0145 6.60708 14.3393 6.37995C14.7058 6.12406 14.8531 5.63212 14.679 5.21853Z" fill="black"/>
<path d="M10.5216 4.78475C10.1635 4.54324 9.66662 4.57944 9.34527 4.86707C9.04177 5.13833 8.93912 5.58168 9.09533 5.95758C9.24906 6.32802 9.63091 6.57399 10.0336 6.55217C10.4323 6.53085 10.7824 6.26157 10.9049 5.8827C11.0368 5.47407 10.8737 5.02527 10.5216 4.78475Z" fill="black"/>
<path d="M65 9.61323C65 9.60976 64.9995 9.60629 64.9995 9.60331V4.90604C64.9995 2.20085 62.7987 0 60.0935 0H4.90604C2.20085 0 0 2.20085 0 4.90604V54.1296C0 56.8348 2.20085 59.0357 4.90604 59.0357H44.8561C45.3897 59.0357 45.8216 58.6032 45.8216 58.0701C45.8216 57.537 45.3897 57.1051 44.8561 57.1051H4.90604C3.26557 57.1051 1.93058 55.7701 1.93058 54.1296V10.5783H63.0689V54.1296C63.0689 55.7701 61.7339 57.1046 60.0935 57.1046H48.7178C48.1847 57.1046 47.7527 57.537 47.7527 58.0701C47.7527 58.6032 48.1847 59.0357 48.7178 59.0357H60.0935C62.7987 59.0357 64.9995 56.8348 64.9995 54.1296V9.62315C64.9995 9.61967 65 9.6167 65 9.61323ZM1.93058 8.64769V4.90604C1.93058 3.26557 3.26557 1.93058 4.90604 1.93058H60.0935C61.7339 1.93058 63.0689 3.26557 63.0689 4.90604V8.64769H1.93058Z" fill="black"/>
<path d="M30.7171 31.3223H24.2658C23.7327 31.3223 23.3008 31.7542 23.3008 32.2873C23.3008 32.8204 23.7327 33.2528 24.2658 33.2528H30.7171C31.2502 33.2528 31.6822 32.8204 31.6822 32.2873C31.6822 31.7542 31.2502 31.3223 30.7171 31.3223Z" fill="black"/>
<path d="M40.9925 31.3223H34.5417C34.0086 31.3223 33.5767 31.7542 33.5767 32.2873C33.5767 32.8204 34.0086 33.2528 34.5417 33.2528H40.9925C41.5261 33.2528 41.958 32.8204 41.958 32.2873C41.958 31.7542 41.5261 31.3223 40.9925 31.3223Z" fill="black"/>
<path d="M20.4412 31.3223H13.9904C13.4568 31.3223 13.0249 31.7542 13.0249 32.2873C13.0249 32.8204 13.4568 33.2528 13.9904 33.2528H20.4412C20.9743 33.2528 21.4068 32.8204 21.4068 32.2873C21.4068 31.7542 20.9743 31.3223 20.4412 31.3223Z" fill="black"/>
<path d="M43.5689 55.4339C43.682 55.478 43.7995 55.4988 43.9165 55.4988C44.1833 55.4988 44.4447 55.3882 44.6311 55.1824L50.2513 48.9935L59.0091 48.5085C59.4023 48.4866 59.7425 48.2288 59.8695 47.8558C59.9964 47.4834 59.8844 47.0708 59.5863 46.8139L48.9009 37.592V20.1379C48.9009 17.0152 46.3604 14.4746 43.2376 14.4746H11.7453C8.62357 14.4746 6.08351 17.0152 6.08351 20.1379V21.5592C6.08351 21.5632 6.08252 21.5671 6.08252 21.5716V27.2696C6.08252 27.2741 6.08302 27.278 6.08351 27.282V37.9867C6.08351 41.1095 8.62357 43.65 11.7453 43.65H42.951V54.5338C42.951 54.9325 43.1965 55.2905 43.5689 55.4339ZM49.7489 47.0877C49.496 47.1016 49.2585 47.2146 49.0879 47.4026L44.8821 52.0344V36.674L56.5146 46.7133L49.7489 47.0877ZM11.7453 16.4052H43.2376C45.2957 16.4052 46.9704 18.0794 46.9704 20.1379V20.606H14.4808C13.9472 20.606 13.5152 21.0385 13.5152 21.5716C13.5152 22.1047 13.9472 22.5366 14.4808 22.5366H46.9704V26.3041H8.01409V22.5366H10.6191C11.1522 22.5366 11.5842 22.1047 11.5842 21.5716C11.5842 21.0385 11.1522 20.606 10.6191 20.606H8.01409V20.1379C8.01409 18.0799 9.68779 16.4052 11.7453 16.4052ZM11.7453 41.7189C9.68779 41.7189 8.01409 40.0448 8.01409 37.9862V28.2346H46.9704V35.9262L44.5473 33.8355C44.2612 33.5885 43.8575 33.531 43.5148 33.6882C43.1717 33.8454 42.9515 34.1885 42.9515 34.5659V41.7189H11.7453Z" fill="black"/>
</svg>
