<svg width="63" height="67" viewBox="0 0 63 67" fill="none" xmlns="http://www.w3.org/2000/svg">
<path d="M55.5869 24.8147L25.0159 55.1352C23.6347 56.5056 21.3948 56.5056 20.0131 55.1352L2.02361 37.2928C0.641869 35.9224 0.641869 33.7008 2.02361 32.3309L32.5941 2.00987C33.9758 0.639938 36.2157 0.639938 37.5969 2.00987L55.5869 19.8528C56.9681 21.2227 56.9681 23.4442 55.5869 24.8147Z" fill="#8CBAFA"/>
<path d="M55.5869 19.8522L53.3414 17.625C54.5716 18.8452 54.4489 20.945 53.0677 22.3155L22.4967 52.636C21.1155 54.0065 18.9983 54.1281 17.7681 52.908L20.0131 55.1346C21.3948 56.5051 23.6347 56.5051 25.0159 55.1346L55.5869 24.8141C56.9681 23.4436 56.9681 21.2221 55.5869 19.8522Z" fill="#5692D8"/>
<path d="M32.0949 8.91899L29.0994 11.8899C27.9213 13.0579 27.9213 14.9513 29.0994 16.1193C30.2771 17.2873 32.1861 17.2873 33.3637 16.1193L36.3591 13.1484C37.5368 11.9804 37.5368 10.087 36.3591 8.91899C35.1815 7.75096 33.2725 7.75096 32.0949 8.91899Z" fill="#FFCD34"/>
<path d="M58.4732 33.7676H15.2397C13.2859 33.7676 11.7021 35.3384 11.7021 37.2757V62.5091C11.7021 64.4469 13.2859 66.0178 15.2397 66.0178H58.4732C60.4265 66.0178 62.0103 64.4469 62.0103 62.5091V37.2757C62.0103 35.3384 60.4265 33.7676 58.4732 33.7676Z" fill="#FFCD34"/>
<path d="M58.4732 33.7676H55.3066C57.2599 33.7676 58.8437 35.3384 58.8437 37.2757V62.5091C58.8437 64.4469 57.2599 66.0178 55.3066 66.0178H58.4732C60.4265 66.0178 62.0102 64.4469 62.0102 62.5091V37.2757C62.0102 35.3384 60.4265 33.7676 58.4732 33.7676Z" fill="#E69012"/>
<path d="M11.7021 41.6953H62.0103V47.7573H11.7021V41.6953Z" fill="#575B7A"/>
<path d="M58.8438 41.6953H62.0103V47.7573H58.8438V41.6953Z" fill="#252D4C"/>
<path d="M49.6455 57.4434V61.1821C49.6455 61.4714 49.8816 61.7055 50.1733 61.7055H56.1692C56.4609 61.7055 56.697 61.4714 56.697 61.1821V57.4434C56.697 57.154 56.4609 56.9199 56.1692 56.9199H50.1733C49.8816 56.9199 49.6455 57.154 49.6455 57.4434Z" fill="#E9E9EA"/>
<path d="M31.5679 57.4434V61.1821C31.5679 61.4714 31.8044 61.7055 32.0956 61.7055H44.7777C45.0694 61.7055 45.3054 61.4714 45.3054 61.1821V57.4434C45.3054 57.154 45.0694 56.9199 44.7777 56.9199H32.0956C31.8044 56.9199 31.5679 57.154 31.5679 57.4434Z" fill="#E9E9EA"/>
<path d="M2.72329 36.5985C1.72963 35.6129 1.72963 34.0094 2.72329 33.0244L26.9716 8.97438C27.3581 8.591 27.3581 7.96942 26.9716 7.58655C26.585 7.20266 25.9583 7.20318 25.5723 7.58655L1.3235 31.6366C-0.441168 33.3868 -0.441168 36.2356 1.3235 37.9863L7.43132 44.0437C7.62407 44.2348 7.87764 44.3309 8.13069 44.3309C8.38426 44.3309 8.63731 44.2354 8.83058 44.0437C9.21712 43.6603 9.21712 43.0387 8.83058 42.6558L2.72329 36.5985Z" fill="black"/>
<path d="M22.176 19.545L7.20201 34.3965C6.81547 34.7799 6.81547 35.4014 7.20201 35.7848C7.39528 35.976 7.64833 36.0721 7.9019 36.0721C8.15496 36.0721 8.40801 35.9765 8.60128 35.7848L23.5752 20.9333C23.9618 20.5499 23.9618 19.9283 23.5752 19.545C23.1892 19.1621 22.5625 19.1621 22.176 19.545Z" fill="black"/>
<path d="M31.2311 17.9761C32.2567 17.9761 33.2823 17.5892 34.0632 16.8148L37.0586 13.8438C38.6202 12.295 38.6202 9.77493 37.0586 8.22609C35.497 6.67724 32.9561 6.67724 31.3945 8.22609L28.3991 11.197C27.6425 11.9474 27.2261 12.9447 27.2261 14.0059C27.2261 15.0666 27.6425 16.0644 28.3991 16.8148C29.1799 17.5892 30.2055 17.9761 31.2311 17.9761ZM29.7984 12.5848L32.7938 9.61391C33.5838 8.83029 34.8692 8.83029 35.6588 9.61391C36.4489 10.3975 36.4489 11.6724 35.6588 12.4555L32.6634 15.4264C31.8738 16.21 30.5884 16.21 29.7984 15.4264C29.4159 15.0471 29.2051 14.5426 29.2051 14.0059C29.2051 13.4692 29.4159 12.9641 29.7984 12.5848Z" fill="black"/>
<path d="M58.4727 32.7869H48.9474L56.2865 25.5079C58.0517 23.7571 58.0517 20.9084 56.2865 19.1576L38.2965 1.31524C37.4415 0.467209 36.3045 0 35.0954 0C33.8864 0 32.7494 0.467209 31.8939 1.31524L28.3687 4.81164C27.9826 5.19501 27.9826 5.81609 28.3687 6.19946C28.7552 6.58284 29.3819 6.58284 29.7679 6.19946L33.2937 2.70306C33.7745 2.22563 34.4146 1.96289 35.0954 1.96289C35.7757 1.96289 36.4159 2.22563 36.8972 2.70306L54.8867 20.5454C55.8803 21.531 55.8803 23.134 54.8867 24.1195L46.1484 32.7864H21.1414L28.3341 25.6525C28.7207 25.2697 28.7207 24.6481 28.3341 24.2647C27.9476 23.8813 27.3209 23.8813 26.9349 24.2647L18.3429 32.7869H15.2398C12.7433 32.7869 10.7126 34.8009 10.7126 37.2765V62.5099C10.7126 64.9855 12.7433 67 15.2398 67H58.4727C60.9692 67 62.9999 64.9855 62.9999 62.5099V58.8826C62.9999 58.3403 62.5571 57.9012 62.0103 57.9012C61.464 57.9012 61.0208 58.3403 61.0208 58.8826V62.5099C61.0208 63.9033 59.8782 65.0371 58.4727 65.0371H15.2398C13.8348 65.0371 12.6917 63.9033 12.6917 62.5099V48.7385H61.0208V54.9568C61.0208 55.4987 61.4635 55.9383 62.0103 55.9383C62.5571 55.9383 62.9999 55.4987 62.9999 54.9568V37.277C62.9999 34.8009 60.9692 32.7869 58.4727 32.7869ZM15.2398 34.7498H58.4727C59.8777 34.7498 61.0208 35.8836 61.0208 37.277V40.7141H12.6917V37.277C12.6917 35.8836 13.8348 34.7498 15.2398 34.7498ZM12.6917 46.7756V42.677H61.0208V46.7756H12.6917Z" fill="black"/>
<path d="M50.174 55.9375C49.3376 55.9375 48.6567 56.6128 48.6567 57.4424V61.1811C48.6567 62.0112 49.3376 62.686 50.174 62.686H56.17C57.0065 62.686 57.6873 62.0112 57.6873 61.1811V57.4424C57.6873 56.6128 57.0065 55.9375 56.17 55.9375H50.174ZM55.7082 60.7231H50.6358V57.9004H55.7082V60.7231Z" fill="black"/>
<path d="M32.0954 55.9375C31.2589 55.9375 30.5781 56.6128 30.5781 57.4424V61.1811C30.5781 62.0112 31.2589 62.686 32.0954 62.686H44.7775C45.6139 62.686 46.2947 62.0112 46.2947 61.1811V57.4424C46.2947 56.6128 45.6139 55.9375 44.7775 55.9375H32.0954ZM44.3157 60.7231H32.5572V57.9004H44.3157V60.7231Z" fill="black"/>
<path d="M20.0799 60.7246C19.5336 60.7246 19.0903 61.1642 19.0903 61.7061C19.0903 62.2484 19.5336 62.6875 20.0799 62.6875H26.3985C26.9448 62.6875 27.388 62.2484 27.388 61.7061C27.388 61.1642 26.9448 60.7246 26.3985 60.7246H20.0799Z" fill="black"/>
</svg>
