<svg width="65" height="65" viewBox="0 0 65 65" fill="none" xmlns="http://www.w3.org/2000/svg">
<path d="M51.9083 64.0459H2.59505C1.68771 64.0459 0.952148 63.3103 0.952148 62.403V11.2523C0.952148 10.3449 1.68771 9.60938 2.59505 9.60938H21.428L28.0608 10.7047L34.9127 9.60938H51.9083C52.8157 9.60938 53.5512 10.3449 53.5512 11.2523V62.4028C53.5512 63.3103 52.8157 64.0459 51.9083 64.0459Z" fill="#EAAE8E"/>
<path d="M53.7459 9.60938H50.46C51.3673 9.60938 52.1029 10.3449 52.1029 11.2523V62.4028C52.1029 63.3102 51.3673 64.0457 50.46 64.0457H53.7459C54.6532 64.0457 55.3888 63.3102 55.3888 62.4028V11.2523C55.3888 10.3449 54.6532 9.60938 53.7459 9.60938Z" fill="#E39B74"/>
<path d="M34.1253 21.832L28.7455 19.2102C28.3826 19.0334 27.9586 19.0334 27.5956 19.2102L22.2158 21.832C21.8521 22.0093 21.4282 21.7444 21.4282 21.3397V9.60938H32.1747L34.5844 10.7047L34.6939 21.1207C34.6938 21.5253 34.4892 22.0093 34.1253 21.832Z" fill="#FED402"/>
<path d="M32.1743 9.60938V20.8814L34.1249 21.832C34.4887 22.0093 34.9126 21.7444 34.9126 21.3397V9.60938H32.1743Z" fill="#FAC600"/>
<path d="M62.7784 13.6636C62.7784 6.64273 58.3564 0.951172 51.3355 0.951172C44.3146 0.951172 38.623 6.64273 38.623 13.6636C38.623 20.6845 44.3146 26.3761 51.3355 26.3761C58.3564 26.3761 62.7784 20.6845 62.7784 13.6636Z" fill="#8EBAFF"/>
<path d="M51.3352 0.951172C50.7756 0.951172 50.2245 0.987734 49.6841 1.05781C55.9248 1.86727 60.7454 7.20234 60.7454 13.6636C60.7454 20.1249 55.9248 25.46 49.6841 26.2694C50.2245 26.3395 50.7756 26.3761 51.3352 26.3761C58.3561 26.3761 64.0477 20.6845 64.0477 13.6636C64.0477 6.64273 58.3561 0.951172 51.3352 0.951172Z" fill="#7AA3FF"/>
<path d="M55.8962 9.0368V5.94727H46.7744V9.0368C46.7744 10.8789 47.8671 12.4648 49.439 13.1846C47.867 13.9044 48.0439 15.4903 48.0439 17.3324V19.1524H54.6267V17.3324C54.6267 15.4903 54.8036 13.9044 53.2316 13.1846C54.8036 12.4648 55.8962 10.8789 55.8962 9.0368Z" fill="#F7F9FA"/>
<path d="M46.7744 17.3314V20.4209H55.8962V17.3314C55.8962 15.4893 54.8036 13.9035 53.2316 13.1836H49.4392C47.8671 13.9035 46.7744 15.4894 46.7744 17.3314Z" fill="#FED402"/>
<path d="M65 13.6646C65 6.12993 58.8701 0 51.3354 0C48.7491 0 46.2311 0.726172 44.0535 2.09993C43.6088 2.3805 43.4756 2.96854 43.7563 3.41326C44.0367 3.85811 44.6249 3.99103 45.0696 3.71059C46.9427 2.52891 49.1093 1.9043 51.3354 1.9043C57.82 1.9043 63.0957 7.17996 63.0957 13.6646C63.0957 20.1492 57.82 25.4249 51.3354 25.4249C44.8508 25.4249 39.575 20.1492 39.575 13.6646C39.575 10.977 40.5049 8.34933 42.1935 6.26577C42.5245 5.85724 42.4618 5.25764 42.0532 4.92654C41.6446 4.5952 41.0451 4.65842 40.714 5.0667C39.8332 6.15367 39.1317 7.36849 38.6241 8.65909H2.59505C1.16416 8.65922 0 9.82338 0 11.2543V35.8123C0 36.3382 0.426182 36.7645 0.952148 36.7645C1.47812 36.7645 1.9043 36.3382 1.9043 35.8123V11.2543C1.9043 10.8734 2.21419 10.5635 2.59505 10.5635H20.4759V21.3417C20.4759 21.8622 20.7393 22.3375 21.1807 22.6135C21.6221 22.8894 22.165 22.918 22.6328 22.69L28.0126 20.0681C28.1126 20.0192 28.2278 20.0192 28.3281 20.0681L33.708 22.6901C33.9176 22.7923 34.1421 22.8428 34.366 22.8428C34.6418 22.8428 34.9164 22.7659 35.16 22.6135C35.6015 22.3377 35.8649 21.8622 35.8649 21.3417V18.9667C35.8649 18.4408 35.4387 18.0145 34.9127 18.0145C34.3868 18.0145 33.9606 18.4408 33.9606 18.9667V20.6946L29.1625 18.3563C28.5318 18.0489 27.8087 18.0491 27.1783 18.3563L22.3802 20.6946V10.5635H33.9606V14.074C33.9606 14.5999 34.3868 15.0262 34.9127 15.0262C35.4387 15.0262 35.8649 14.5999 35.8649 14.074V10.5635H38.0317C37.7955 11.5755 37.6707 12.6157 37.6707 13.6646C37.6707 21.1993 43.8006 27.3292 51.3354 27.3292C52.4017 27.3292 53.4398 27.2062 54.4365 26.9741V62.4049C54.4365 62.7858 54.1266 63.0957 53.7457 63.0957H2.59505C2.21419 63.0957 1.9043 62.7858 1.9043 62.4049V39.9621C1.9043 39.4362 1.47812 39.0099 0.952148 39.0099C0.426182 39.0099 0 39.4362 0 39.9621V62.4049C0 63.8358 1.16416 65 2.59505 65H53.7456C55.1766 65 56.3407 63.8358 56.3407 62.4049V26.38C61.4067 24.3788 65 19.4335 65 13.6646Z" fill="black"/>
<path d="M45.8226 17.3333V19.4901C45.3888 19.5789 45.0625 19.9627 45.0625 20.4228C45.0625 20.9486 45.4887 21.375 46.0146 21.375H46.7747H55.8966H56.6566C57.1826 21.375 57.6088 20.9486 57.6088 20.4228C57.6088 19.9627 57.2825 19.5788 56.8487 19.4901V17.3333C56.8487 15.7244 56.1408 14.2175 54.9645 13.1855C56.1408 12.1535 56.8487 10.6465 56.8487 9.03765V6.88097C57.2825 6.7921 57.6088 6.40832 57.6088 5.94824C57.6088 5.4224 57.1826 4.99609 56.6566 4.99609H55.8966H46.7747H46.0146C45.4887 4.99609 45.0625 5.4224 45.0625 5.94824C45.0625 6.40832 45.3888 6.79223 45.8226 6.88097V9.03777C45.8226 10.6467 46.5305 12.1535 47.7068 13.1856C46.5305 14.2176 45.8226 15.7244 45.8226 17.3333ZM47.7269 19.4708V17.3333C47.7269 15.9906 48.4817 14.7576 49.6639 14.1376H53.0075C54.1897 14.7576 54.9445 15.9906 54.9445 17.3333V19.4708H47.7269ZM54.9444 6.90039V9.03777C54.9444 10.3804 54.1895 11.6134 53.0074 12.2334H49.6638C48.4816 11.6134 47.7267 10.3804 47.7267 9.03777V6.90039H54.9444Z" fill="black"/>
</svg>
