<svg width="100" height="16" viewBox="0 0 100 16" fill="none" xmlns="http://www.w3.org/2000/svg">
<path class='star star-5' d="M99.6122 6.13087C99.5122 5.80731 99.2376 5.57853 98.9122 5.54719L94.4948 5.12836L92.748 0.861776C92.6193 0.549432 92.326 0.347656 92.0001 0.347656C91.674 0.347656 91.3807 0.550069 91.252 0.863177L89.5054 5.12912L85.0872 5.54783C84.7626 5.57853 84.4879 5.80731 84.3878 6.13087C84.2872 6.45442 84.3805 6.80842 84.6259 7.03249L87.9653 10.0879L86.9805 14.6133C86.9086 14.9459 87.0325 15.2895 87.2973 15.4899C87.4385 15.5984 87.6059 15.6527 87.7733 15.6527C87.9179 15.6527 88.062 15.6124 88.1906 15.5316L92.0001 13.1545L95.8088 15.531C96.0874 15.7055 96.4388 15.6902 96.7028 15.4906C96.9675 15.2902 97.0915 14.9466 97.0195 14.614L96.0348 10.0887L99.3743 7.03312C99.6195 6.80918 99.7129 6.45506 99.6122 6.13087Z" fill="#F2C94C"/>
<path d="M87.5819 16C87.4058 16 87.2318 15.9431 87.0832 15.831C86.8065 15.6223 86.6772 15.2626 86.7525 14.9148L87.7818 10.1842L84.291 6.98953C84.0344 6.75515 83.9364 6.38573 84.0417 6.04689C84.1471 5.70882 84.4337 5.46883 84.7731 5.43609L89.3926 4.99853L91.218 0.539214C91.3526 0.211584 91.6592 0 92 0C92.3407 0 92.6473 0.211584 92.782 0.53845L94.6073 4.99853L99.2261 5.43609C99.5662 5.46806 99.8528 5.70818 99.9582 6.04626C100.064 6.38497 99.9661 6.75515 99.7088 6.98889L96.2187 10.1828L97.248 14.9134C97.3235 15.2613 97.1941 15.6209 96.9174 15.8296C96.642 16.0376 96.2747 16.055 95.9833 15.8727L92 13.3891L88.0172 15.8741C87.8825 15.9583 87.7325 16 87.5819 16ZM92 12.3193C92.1513 12.3193 92.3012 12.3617 92.436 12.4451L96.1948 14.791L95.2233 10.3253C95.154 10.0067 95.2574 9.67554 95.4927 9.46064L98.7888 6.44344L94.428 6.03021C94.1154 6.00104 93.8446 5.79582 93.7219 5.49316L92 1.28492L90.2765 5.49379C90.1546 5.79506 89.8839 6.00027 89.5706 6.02957L85.2105 6.4428L88.5065 9.45988C88.7425 9.6749 88.8452 10.0067 88.7759 10.3253L87.8045 14.791L91.5633 12.4451C91.6986 12.3617 91.8486 12.3193 92 12.3193ZM89.3566 5.08553V5.08617V5.08553ZM94.6427 5.08336V5.08413C94.6427 5.08413 94.6427 5.08413 94.6427 5.08336Z" fill="#333333"/>
<path class='star star-4' d="M78.6122 6.13087C78.5122 5.80731 78.2376 5.57853 77.9122 5.54719L73.4948 5.12836L71.748 0.861776C71.6193 0.549432 71.326 0.347656 71.0001 0.347656C70.674 0.347656 70.3807 0.550069 70.252 0.863177L68.5054 5.12912L64.0872 5.54783C63.7626 5.57853 63.4879 5.80731 63.3878 6.13087C63.2872 6.45442 63.3805 6.80842 63.6259 7.03249L66.9653 10.0879L65.9805 14.6133C65.9086 14.9459 66.0325 15.2895 66.2973 15.4899C66.4385 15.5984 66.6059 15.6527 66.7733 15.6527C66.9179 15.6527 67.062 15.6124 67.1906 15.5316L71.0001 13.1545L74.8088 15.531C75.0874 15.7055 75.4388 15.6902 75.7028 15.4906C75.9675 15.2902 76.0915 14.9466 76.0195 14.614L75.0348 10.0887L78.3743 7.03312C78.6195 6.80918 78.7129 6.45506 78.6122 6.13087Z" fill="#F2C94C"/>
<path d="M66.5819 16C66.4058 16 66.2318 15.9431 66.0832 15.831C65.8065 15.6223 65.6772 15.2626 65.7525 14.9148L66.7818 10.1842L63.291 6.98953C63.0344 6.75515 62.9364 6.38573 63.0417 6.04689C63.1471 5.70882 63.4337 5.46883 63.7731 5.43609L68.3926 4.99853L70.218 0.539214C70.3526 0.211584 70.6592 0 71 0C71.3407 0 71.6473 0.211584 71.782 0.53845L73.6073 4.99853L78.2261 5.43609C78.5662 5.46806 78.8528 5.70818 78.9582 6.04626C79.0635 6.38497 78.9661 6.75515 78.7088 6.98889L75.2187 10.1828L76.248 14.9134C76.3235 15.2613 76.1941 15.6209 75.9174 15.8296C75.642 16.0376 75.2747 16.055 74.9833 15.8727L71 13.3891L67.0172 15.8741C66.8825 15.9583 66.7325 16 66.5819 16ZM71 12.3193C71.1513 12.3193 71.3012 12.3617 71.436 12.4451L75.1948 14.791L74.2233 10.3253C74.154 10.0067 74.2574 9.67554 74.4927 9.46064L77.7888 6.44344L73.428 6.03021C73.1154 6.00104 72.8446 5.79582 72.7219 5.49316L71 1.28492L69.2765 5.49379C69.1546 5.79506 68.8839 6.00027 68.5706 6.02957L64.2105 6.4428L67.5065 9.45988C67.7425 9.6749 67.8452 10.0067 67.7759 10.3253L66.8045 14.791L70.5633 12.4451C70.6986 12.3617 70.8486 12.3193 71 12.3193ZM68.3566 5.08553V5.08617V5.08553ZM73.6427 5.08336V5.08413C73.6427 5.08413 73.6427 5.08413 73.6427 5.08336Z" fill="#333333"/>
<path class='star star-3' d="M57.6122 6.13087C57.5122 5.80731 57.2376 5.57853 56.9122 5.54719L52.4948 5.12836L50.748 0.861776C50.6193 0.549432 50.326 0.347656 50.0001 0.347656C49.674 0.347656 49.3807 0.550069 49.252 0.863177L47.5054 5.12912L43.0872 5.54783C42.7626 5.57853 42.4879 5.80731 42.3878 6.13087C42.2872 6.45442 42.3805 6.80842 42.6259 7.03249L45.9653 10.0879L44.9805 14.6133C44.9086 14.9459 45.0325 15.2895 45.2973 15.4899C45.4385 15.5984 45.6059 15.6527 45.7733 15.6527C45.9179 15.6527 46.062 15.6124 46.1906 15.5316L50.0001 13.1545L53.8088 15.531C54.0874 15.7055 54.4388 15.6902 54.7028 15.4906C54.9675 15.2902 55.0915 14.9466 55.0195 14.614L54.0348 10.0887L57.3743 7.03312C57.6195 6.80918 57.7129 6.45506 57.6122 6.13087Z" fill="#F2C94C"/>
<path d="M45.5819 16C45.4058 16 45.2318 15.9431 45.0832 15.831C44.8065 15.6223 44.6772 15.2626 44.7525 14.9148L45.7818 10.1842L42.291 6.98953C42.0344 6.75515 41.9364 6.38573 42.0417 6.04689C42.1471 5.70882 42.4337 5.46883 42.7731 5.43609L47.3926 4.99853L49.218 0.539214C49.3526 0.211584 49.6592 0 50 0C50.3407 0 50.6473 0.211584 50.782 0.53845L52.6073 4.99853L57.2261 5.43609C57.5662 5.46806 57.8528 5.70818 57.9582 6.04626C58.0635 6.38497 57.9661 6.75515 57.7088 6.98889L54.2187 10.1828L55.248 14.9134C55.3235 15.2613 55.1941 15.6209 54.9174 15.8296C54.642 16.0376 54.2747 16.055 53.9833 15.8727L50 13.3891L46.0172 15.8741C45.8825 15.9583 45.7325 16 45.5819 16ZM50 12.3193C50.1513 12.3193 50.3012 12.3617 50.436 12.4451L54.1948 14.791L53.2233 10.3253C53.154 10.0067 53.2574 9.67554 53.4927 9.46064L56.7888 6.44344L52.428 6.03021C52.1154 6.00104 51.8446 5.79582 51.7219 5.49316L50 1.28492L48.2765 5.49379C48.1546 5.79506 47.8839 6.00027 47.5706 6.02957L43.2105 6.4428L46.5065 9.45988C46.7425 9.6749 46.8452 10.0067 46.7759 10.3253L45.8045 14.791L49.5633 12.4451C49.6986 12.3617 49.8486 12.3193 50 12.3193ZM47.3566 5.08553V5.08617V5.08553ZM52.6427 5.08336V5.08413C52.6427 5.08413 52.6427 5.08413 52.6427 5.08336Z" fill="#333333"/>
<path class='star star-2' d="M36.6122 6.13087C36.5122 5.80731 36.2376 5.57853 35.9122 5.54719L31.4948 5.12836L29.748 0.861776C29.6193 0.549432 29.326 0.347656 29.0001 0.347656C28.674 0.347656 28.3807 0.550069 28.252 0.863177L26.5054 5.12912L22.0872 5.54783C21.7626 5.57853 21.4879 5.80731 21.3878 6.13087C21.2872 6.45442 21.3805 6.80842 21.6259 7.03249L24.9653 10.0879L23.9805 14.6133C23.9086 14.9459 24.0325 15.2895 24.2973 15.4899C24.4385 15.5984 24.6059 15.6527 24.7733 15.6527C24.9179 15.6527 25.062 15.6124 25.1906 15.5316L29.0001 13.1545L32.8088 15.531C33.0874 15.7055 33.4388 15.6902 33.7028 15.4906C33.9675 15.2902 34.0915 14.9466 34.0195 14.614L33.0348 10.0887L36.3743 7.03312C36.6195 6.80918 36.7129 6.45506 36.6122 6.13087Z" fill="#F2C94C"/>
<path d="M24.5819 16C24.4058 16 24.2318 15.9431 24.0832 15.831C23.8065 15.6223 23.6772 15.2626 23.7525 14.9148L24.7818 10.1842L21.291 6.98953C21.0344 6.75515 20.9364 6.38573 21.0417 6.04689C21.1471 5.70882 21.4337 5.46883 21.7731 5.43609L26.3926 4.99853L28.218 0.539214C28.3526 0.211584 28.6592 0 29 0C29.3407 0 29.6473 0.211584 29.782 0.53845L31.6073 4.99853L36.2261 5.43609C36.5662 5.46806 36.8528 5.70818 36.9582 6.04626C37.0635 6.38497 36.9661 6.75515 36.7088 6.98889L33.2187 10.1828L34.248 14.9134C34.3235 15.2613 34.1941 15.6209 33.9174 15.8296C33.642 16.0376 33.2747 16.055 32.9833 15.8727L29 13.3891L25.0172 15.8741C24.8825 15.9583 24.7325 16 24.5819 16ZM29 12.3193C29.1513 12.3193 29.3012 12.3617 29.436 12.4451L33.1948 14.791L32.2233 10.3253C32.154 10.0067 32.2574 9.67554 32.4927 9.46064L35.7888 6.44344L31.428 6.03021C31.1154 6.00104 30.8446 5.79582 30.7219 5.49316L29 1.28492L27.2765 5.49379C27.1546 5.79506 26.8839 6.00027 26.5706 6.02957L22.2105 6.4428L25.5065 9.45988C25.7425 9.6749 25.8452 10.0067 25.7759 10.3253L24.8045 14.791L28.5633 12.4451C28.6986 12.3617 28.8486 12.3193 29 12.3193ZM26.3566 5.08553V5.08617V5.08553ZM31.6427 5.08336V5.08413C31.6427 5.08413 31.6427 5.08413 31.6427 5.08336Z" fill="#333333"/>
<path class='star star-1' d="M15.6122 6.13087C15.5122 5.80731 15.2376 5.57853 14.9122 5.54719L10.4948 5.12836L8.74801 0.861776C8.61934 0.549432 8.326 0.347656 8.00006 0.347656C7.674 0.347656 7.38066 0.550069 7.252 0.863177L5.50537 5.12912L1.08717 5.54783C0.762573 5.57853 0.487908 5.80731 0.387808 6.13087C0.287219 6.45442 0.380483 6.80842 0.625851 7.03249L3.96529 10.0879L2.98053 14.6133C2.90862 14.9459 3.03253 15.2895 3.29731 15.4899C3.43854 15.5984 3.60591 15.6527 3.77327 15.6527C3.91793 15.6527 4.06197 15.6124 4.19064 15.5316L8.00006 13.1545L11.8088 15.531C12.0874 15.7055 12.4388 15.6902 12.7028 15.4906C12.9675 15.2902 13.0915 14.9466 13.0195 14.614L12.0348 10.0887L15.3743 7.03312C15.6195 6.80918 15.7129 6.45506 15.6122 6.13087Z" fill="#F2C94C"/>
<path d="M3.58187 16C3.40584 16 3.23177 15.9431 3.0832 15.831C2.80646 15.6223 2.67719 15.2626 2.7525 14.9148L3.78183 10.1842L0.291016 6.98953C0.0344181 6.75515 -0.0636068 6.38573 0.0417426 6.04689C0.147092 5.70882 0.43372 5.46883 0.773084 5.43609L5.39259 4.99853L7.21795 0.539214C7.3526 0.211584 7.65925 0 7.99995 0C8.34066 0 8.64731 0.211584 8.78196 0.53845L10.6073 4.99853L15.2261 5.43609C15.5662 5.46806 15.8528 5.70818 15.9582 6.04626C16.0635 6.38497 15.9661 6.75515 15.7088 6.98889L12.2187 10.1828L13.248 14.9134C13.3235 15.2613 13.1941 15.6209 12.9174 15.8296C12.642 16.0376 12.2747 16.055 11.9833 15.8727L7.99995 13.3891L4.01719 15.8741C3.88254 15.9583 3.73251 16 3.58187 16ZM7.99995 12.3193C8.15132 12.3193 8.30123 12.3617 8.436 12.4451L12.1948 14.791L11.2233 10.3253C11.154 10.0067 11.2574 9.67554 11.4927 9.46064L14.7888 6.44344L10.428 6.03021C10.1154 6.00104 9.8446 5.79582 9.72192 5.49316L7.99995 1.28492L6.27652 5.49379C6.15457 5.79506 5.88393 6.00027 5.57057 6.02957L1.21047 6.4428L4.50646 9.45988C4.74255 9.6749 4.84521 10.0067 4.77587 10.3253L3.80453 14.791L7.5633 12.4451C7.69855 12.3617 7.84858 12.3193 7.99995 12.3193ZM5.35658 5.08553V5.08617V5.08553ZM10.6427 5.08336V5.08413C10.6427 5.08413 10.6427 5.08413 10.6427 5.08336Z" fill="#333333"/>
</svg>
