<svg width="16" height="16" viewBox="0 0 16 16" fill="none" xmlns="http://www.w3.org/2000/svg">
<path d="M15.6122 6.13087C15.5122 5.80731 15.2376 5.57853 14.9122 5.54719L10.4948 5.12836L8.74801 0.861776C8.61934 0.549432 8.326 0.347656 8.00006 0.347656C7.674 0.347656 7.38066 0.550069 7.252 0.863177L5.50537 5.12912L1.08717 5.54783C0.762573 5.57853 0.487908 5.80731 0.387808 6.13087C0.287219 6.45442 0.380483 6.80842 0.625851 7.03249L3.96529 10.0879L2.98053 14.6133C2.90862 14.9459 3.03253 15.2895 3.29731 15.4899C3.43854 15.5984 3.60591 15.6527 3.77327 15.6527C3.91793 15.6527 4.06197 15.6124 4.19064 15.5316L8.00006 13.1545L11.8088 15.531C12.0874 15.7055 12.4388 15.6902 12.7028 15.4906C12.9675 15.2902 13.0915 14.9466 13.0195 14.614L12.0348 10.0887L15.3743 7.03312C15.6195 6.80918 15.7129 6.45506 15.6122 6.13087Z" fill="#F2C94C"/>
<path d="M3.58187 16C3.40584 16 3.23177 15.9431 3.0832 15.831C2.80646 15.6223 2.67719 15.2626 2.7525 14.9148L3.78183 10.1842L0.291016 6.98953C0.0344181 6.75515 -0.0636068 6.38573 0.0417426 6.04689C0.147092 5.70882 0.43372 5.46883 0.773084 5.43609L5.39259 4.99853L7.21795 0.539214C7.3526 0.211584 7.65925 0 7.99995 0C8.34066 0 8.64731 0.211584 8.78196 0.53845L10.6073 4.99853L15.2261 5.43609C15.5662 5.46806 15.8528 5.70818 15.9582 6.04626C16.0635 6.38497 15.9661 6.75515 15.7088 6.98889L12.2187 10.1828L13.248 14.9134C13.3235 15.2613 13.1941 15.6209 12.9174 15.8296C12.642 16.0376 12.2747 16.055 11.9833 15.8727L7.99995 13.3891L4.01719 15.8741C3.88254 15.9583 3.73251 16 3.58187 16ZM7.99995 12.3193C8.15132 12.3193 8.30123 12.3617 8.436 12.4451L12.1948 14.791L11.2233 10.3253C11.154 10.0067 11.2574 9.67554 11.4927 9.46064L14.7888 6.44344L10.428 6.03021C10.1154 6.00104 9.8446 5.79582 9.72192 5.49316L7.99995 1.28492L6.27652 5.49379C6.15457 5.79506 5.88393 6.00027 5.57057 6.02957L1.21047 6.4428L4.50646 9.45988C4.74255 9.6749 4.84521 10.0067 4.77587 10.3253L3.80453 14.791L7.5633 12.4451C7.69855 12.3617 7.84858 12.3193 7.99995 12.3193ZM5.35658 5.08553V5.08617V5.08553ZM10.6427 5.08336V5.08413C10.6427 5.08413 10.6427 5.08413 10.6427 5.08336Z" fill="#333333"/>
</svg>
