<?xml version="1.0" encoding="utf-8"?><svg xmlns="http://www.w3.org/2000/svg" xmlns:xlink="http://www.w3.org/1999/xlink"><symbol viewBox="0 0 12 13" id="account" xmlns="http://www.w3.org/2000/svg"><circle cx="6" cy="3" r="2.25"/><path d="M11.182 12.12a.071.071 0 01-.002.034.097.097 0 01-.022.036.217.217 0 01-.157.06H.999a.218.218 0 01-.157-.06.096.096 0 01-.022-.036.07.07 0 01-.002-.035C1.182 9.78 2.975 7.75 6 7.75c3.025 0 4.818 2.03 5.182 4.37l.741-.116-.741.115z"/></symbol><symbol viewBox="0 0 10 18" id="arrow" xmlns="http://www.w3.org/2000/svg"><path d="M1 1l8 8-8 8"/></symbol><symbol viewBox="0 0 15 18" id="cart" xmlns="http://www.w3.org/2000/svg"><path d="M1 5.445h13V12a5 5 0 01-5 5H6a5 5 0 01-5-5V5.445zM3 4a3 3 0 013-3h3a3 3 0 013 3v1.444H3V4z"/></symbol><symbol viewBox="0 0 14 14" id="close" xmlns="http://www.w3.org/2000/svg"><path fill-rule="evenodd" clip-rule="evenodd" d="M.279.278a.95.95 0 000 1.345L5.656 7 .278 12.377a.95.95 0 101.345 1.345L7 8.344l5.377 5.377a.95.95 0 101.345-1.344L8.344 7l5.378-5.377A.95.95 0 0012.377.279L7 5.656 1.623.278a.95.95 0 00-1.344 0z"/></symbol><symbol viewBox="0 0 20 18" id="favourites" xmlns="http://www.w3.org/2000/svg"><path clip-rule="evenodd" d="M6.143 1C3.303 1 1 3.204 1 5.923 1 9.205 4.15 13 10 17c5.896-4.229 9-7.385 9-11.077C19 3.204 16.698 1 13.857 1 12.321 1 10.942 2.2 10 3.222 9.058 2.2 7.679 1 6.143 1z"/></symbol><symbol viewBox="0 0 70 70" id="play" xmlns="http://www.w3.org/2000/svg"><circle cx="35" cy="35" r="34.5"/><path d="M48.75 35.799L27 48.356a1.5 1.5 0 01-2.25-1.299V21.943a1.5 1.5 0 012.25-1.3l21.75 12.558c1 .577 1 2.02 0 2.598z"/></symbol><symbol viewBox="0 0 11 13" id="timer" xmlns="http://www.w3.org/2000/svg"><path fill-rule="evenodd" clip-rule="evenodd" d="M8 0H3v1h5V0zm2 7.5a4.5 4.5 0 11-9 0 4.5 4.5 0 019 0zm1 0a5.5 5.5 0 11-11 0 5.5 5.5 0 0111 0zM6 4v3h2v1H5V4h1z"/></symbol></svg>