<?xml version="1.0" encoding="utf-8"?><svg xmlns="http://www.w3.org/2000/svg" xmlns:xlink="http://www.w3.org/1999/xlink"><symbol viewBox="0 0 12 13" id="account" xmlns="http://www.w3.org/2000/svg"><circle cx="6" cy="3" r="2.25"/><path d="M11.182 12.12a.071.071 0 01-.002.034.097.097 0 01-.022.036.217.217 0 01-.157.06H.999a.218.218 0 01-.157-.06.096.096 0 01-.022-.036.07.07 0 01-.002-.035C1.182 9.78 2.975 7.75 6 7.75c3.025 0 4.818 2.03 5.182 4.37l.741-.116-.741.115z"/></symbol><symbol viewBox="0 0 10 18" id="arrow" xmlns="http://www.w3.org/2000/svg"><path d="M1 1l8 8-8 8"/></symbol><symbol viewBox="0 0 9 14" id="arrow-path" xmlns="http://www.w3.org/2000/svg"><path d="M4.5 1v12m0 0L8 9.5M4.5 13L1 9.5"/></symbol><symbol viewBox="0 0 15 18" id="cart" xmlns="http://www.w3.org/2000/svg"><path d="M1 5.445h13V12a5 5 0 01-5 5H6a5 5 0 01-5-5V5.445zM3 4a3 3 0 013-3h3a3 3 0 013 3v1.444H3V4z"/></symbol><symbol viewBox="0 0 16 16" id="check" xmlns="http://www.w3.org/2000/svg"><path d="M13.657 2.343A7.948 7.948 0 008 0a7.948 7.948 0 00-5.657 2.343A7.948 7.948 0 000 8c0 2.137.832 4.146 2.343 5.657A7.948 7.948 0 008 16a7.948 7.948 0 005.657-2.343A7.948 7.948 0 0016 8a7.948 7.948 0 00-2.343-5.657zM8 15.063A7.07 7.07 0 01.937 8 7.07 7.07 0 018 .937 7.07 7.07 0 0115.063 8 7.07 7.07 0 018 15.063z"/><path d="M11.822 5.433a.469.469 0 00-.663 0l-4.14 4.14-2.178-2.18a.469.469 0 00-.663.663l2.51 2.51a.467.467 0 00.663 0l4.471-4.47a.469.469 0 000-.663z"/></symbol><symbol viewBox="0 0 14 14" id="close" xmlns="http://www.w3.org/2000/svg"><path fill-rule="evenodd" clip-rule="evenodd" d="M.279.278a.95.95 0 000 1.345L5.656 7 .278 12.377a.95.95 0 101.345 1.345L7 8.344l5.377 5.377a.95.95 0 101.345-1.344L8.344 7l5.378-5.377A.95.95 0 0012.377.279L7 5.656 1.623.278a.95.95 0 00-1.344 0z"/></symbol><symbol viewBox="0 0 16 13" id="dislike" xmlns="http://www.w3.org/2000/svg"><path fill-rule="evenodd" clip-rule="evenodd" d="M8 1.57A4.532 4.532 0 0111.463 0C13.97 0 16 1.994 16 4.453c0 4.273-7.494 8.328-7.797 8.487a.37.37 0 01-.406 0C7.494 12.78 0 8.666 0 4.453 0 1.993 2.031 0 4.537 0A4.47 4.47 0 018 1.57zM8.255 12l-.797-2.392 2.325-2.325a.4.4 0 00-.061-.616L7.016 4.863 8.152 2.59a.428.428 0 00.192-.145C9.471.755 11.78.28 13.503 1.385a3.64 3.64 0 011.687 3.068c0 3.255-5.33 6.616-6.935 7.546zm-.929-.257l-.705-2.117a.4.4 0 01.096-.409l2.155-2.155-2.594-1.73a.4.4 0 01-.136-.51l1.322-2.644A3.672 3.672 0 004.537.795C2.479.795.81 2.433.81 4.453c0 2.977 4.562 6.09 6.516 7.29z"/></symbol><symbol viewBox="0 0 16 13" id="dislike-active" xmlns="http://www.w3.org/2000/svg"><path d="M4 .5C5.2.5 7.5 1 8 2c.5-.86 3-1.5 4-1.5s3.5 1.5 3.5 4-2 4-3 5c-.8.8-3.333 2.288-4.5 3-.833-.545-2.9-1.8-4.5-3-2-1.5-3-4.5-3-6s2-3 3.5-3z"/><path fill-rule="evenodd" clip-rule="evenodd" d="M8 1.57A4.532 4.532 0 0111.463 0C13.97 0 16 1.994 16 4.453c0 4.273-7.494 8.328-7.797 8.487a.37.37 0 01-.406 0C7.494 12.78 0 8.666 0 4.453 0 1.993 2.031 0 4.537 0A4.47 4.47 0 018 1.57zM8.255 12l-.797-2.392 2.325-2.325a.4.4 0 00-.061-.616L7.016 4.863 8.152 2.59a.428.428 0 00.192-.145C9.471.755 11.78.28 13.503 1.385a3.64 3.64 0 011.687 3.068c0 3.255-5.33 6.616-6.935 7.546zm-.929-.257l-.705-2.117a.4.4 0 01.096-.409l2.155-2.155-2.594-1.73a.4.4 0 01-.136-.51l1.322-2.644A3.672 3.672 0 004.537.795C2.479.795.81 2.433.81 4.453c0 2.977 4.562 6.09 6.516 7.29z"/></symbol><symbol viewBox="0 0 20 20" id="facebook" xmlns="http://www.w3.org/2000/svg"><path fill-rule="evenodd" clip-rule="evenodd" d="M15.625 13.125H13.75V20h3.75c1.379 0 2.5-1.121 2.5-2.5v-15C20 1.121 18.879 0 17.5 0h-15A2.503 2.503 0 000 2.5v15C0 18.879 1.121 20 2.5 20H10v-6.875H7.5V10H10V7.5a3.75 3.75 0 013.75-3.75h2.5v3.125h-1.415c-.612-.006-1.085-.01-1.085.625V10h3.125l-1.25 3.125zM14.95 8.8h3.697l-2.21 5.525H14.95V18.8h2.55c.716 0 1.3-.584 1.3-1.3v-15c0-.716-.584-1.3-1.3-1.3h-15c-.716 0-1.3.584-1.3 1.3v15c0 .716.584 1.3 1.3 1.3h6.3v-4.475H6.3V8.8h2.5V7.5a4.95 4.95 0 014.95-4.95h3.7v5.525h-2.5V8.8z"/></symbol><symbol viewBox="0 0 20 18" id="favourites" xmlns="http://www.w3.org/2000/svg"><path clip-rule="evenodd" d="M6.143 1C3.303 1 1 3.204 1 5.923 1 9.205 4.15 13 10 17c5.896-4.229 9-7.385 9-11.077C19 3.204 16.698 1 13.857 1 12.321 1 10.942 2.2 10 3.222 9.058 2.2 7.679 1 6.143 1z"/></symbol><symbol viewBox="0 0 22 22" id="instagram" xmlns="http://www.w3.org/2000/svg"><path d="M21 3.383c0-.632-.246-1.238-.684-1.685A2.315 2.315 0 0018.663 1H3.337c-.62 0-1.214.251-1.652.698A2.406 2.406 0 001 3.383v15.624a2.417 2.417 0 00.684 1.685c.217.22.475.396.759.516a2.3 2.3 0 00.894.181h15.326a2.3 2.3 0 001.652-.697A2.39 2.39 0 0021 19.007V3.383zM18.659 20.64H3.34a1.596 1.596 0 01-1.135-.481 1.66 1.66 0 01-.472-1.157V7.266H6.54a6.205 6.205 0 00-1.343 3.849c0 3.359 2.68 6.094 5.975 6.094 3.295 0 5.976-2.737 5.976-6.095 0-1.457-.505-2.772-1.344-3.848h4.462v11.737a1.66 1.66 0 01-.472 1.157c-.301.307-.71.48-1.135.481zM11.173 5.776a5.17 5.17 0 012.911.9 5.323 5.323 0 011.93 2.399c.397.976.501 2.05.299 3.087a5.376 5.376 0 01-1.435 2.736 5.21 5.21 0 01-2.683 1.462c-1.017.206-2.07.1-3.028-.304a5.265 5.265 0 01-2.352-1.968 5.417 5.417 0 01.653-6.745 5.197 5.197 0 013.704-1.567zM3.34 1.748h15.32a1.6 1.6 0 011.135.482c.301.307.47.723.472 1.157v3.131h-5.172a5.898 5.898 0 00-3.922-1.5 5.898 5.898 0 00-3.921 1.5H1.734V3.387a1.66 1.66 0 01.472-1.157c.301-.307.71-.48 1.135-.482z"/><path fill-rule="evenodd" clip-rule="evenodd" d="M20.458 1.558c.475.484.742 1.14.742 1.824v15.625a2.622 2.622 0 01-.742 1.824 2.499 2.499 0 01-1.795.758H3.337a2.499 2.499 0 01-1.796-.758A2.622 2.622 0 01.8 19.006V3.382c0-.683.267-1.34.743-1.824A2.515 2.515 0 013.337.8h15.326c.674 0 1.32.273 1.795.758zM1 19.006V3.382c0-.632.246-1.238.684-1.684A2.315 2.315 0 013.337 1h15.326c.62 0 1.214.25 1.652.698A2.4 2.4 0 0121 3.382v15.625a2.422 2.422 0 01-.685 1.684 2.3 2.3 0 01-1.653.698H3.338c-.307 0-.611-.061-.895-.181a2.335 2.335 0 01-.758-.517 2.387 2.387 0 01-.506-.773A2.423 2.423 0 011 19.006zm2.342 1.435h15.316c.372-.001.729-.152.993-.421a1.46 1.46 0 00.415-1.018V7.466h-3.867a6.366 6.366 0 011.148 3.647c0 3.466-2.766 6.295-6.175 6.295s-6.175-2.828-6.175-6.293a6.37 6.37 0 011.148-3.649H1.934v11.536c0 .383.15.748.415 1.018.264.269.62.42.993.421zm-.001.2a1.597 1.597 0 01-1.135-.481 1.66 1.66 0 01-.472-1.158V7.266H6.54a6.181 6.181 0 00-1.343 3.848c0 3.36 2.68 6.094 5.975 6.094 3.295 0 5.975-2.736 5.975-6.095a6.178 6.178 0 00-1.343-3.847h4.462v11.736a1.66 1.66 0 01-.472 1.158c-.301.307-.71.48-1.135.481H3.34zm10.63-13.8a4.97 4.97 0 00-2.799-.865 4.997 4.997 0 00-3.561 1.507 5.218 5.218 0 00-.629 6.495 5.065 5.065 0 002.262 1.893c.921.39 1.934.49 2.91.293a5.01 5.01 0 002.582-1.407 5.177 5.177 0 001.38-2.634 5.24 5.24 0 00-.287-2.973 5.122 5.122 0 00-1.857-2.308zm-8.04 4.278c0 1.057.307 2.09.883 2.969a5.265 5.265 0 002.352 1.968c.958.404 2.012.51 3.029.304a5.21 5.21 0 002.683-1.463 5.376 5.376 0 001.435-2.735 5.44 5.44 0 00-.298-3.088 5.323 5.323 0 00-1.93-2.398 5.17 5.17 0 00-2.913-.9 5.197 5.197 0 00-3.704 1.567 5.403 5.403 0 00-1.537 3.776zm12.727-9.171H3.341a1.397 1.397 0 00-.992.421 1.46 1.46 0 00-.415 1.018v2.931h5.241a6.096 6.096 0 013.997-1.5c1.466 0 2.883.533 3.997 1.5h4.897v-2.93a1.46 1.46 0 00-.415-1.019 1.396 1.396 0 00-.993-.421zm-3.564 4.57h5.172V3.387a1.66 1.66 0 00-.472-1.158 1.596 1.596 0 00-1.135-.481H3.34a1.597 1.597 0 00-1.135.481 1.66 1.66 0 00-.472 1.158v3.131H7.25a5.898 5.898 0 013.922-1.5c1.442 0 2.836.533 3.922 1.5z"/></symbol><symbol viewBox="0 0 52 15" id="long-arrow" xmlns="http://www.w3.org/2000/svg"><path d="M0 7.5h50m0 0l-6-6m6 6l-6 6"/></symbol><symbol viewBox="0 0 20 15" id="mail" xmlns="http://www.w3.org/2000/svg"><path d="M17.908 0H2.092C.937.002.002.97 0 2.164v10.672C.001 14.031.937 15 2.092 15h15.816c1.155-.001 2.09-.97 2.092-2.164V2.164C19.999.97 19.063 0 17.908 0zm-3.72 7.497l4.975-4.039v9.034l-4.975-4.995zM2.092.866h15.816c.693 0 1.254.581 1.255 1.298v.194l-8.05 6.536a1.629 1.629 0 01-2.061-.002L.837 2.357v-.193c0-.717.562-1.298 1.255-1.298zM5.96 7.524L.837 12.51V3.449L5.96 7.524zm11.948 6.61H2.092c-.436 0-.84-.234-1.069-.618l5.61-5.456L8.54 9.577a2.442 2.442 0 003.089 0l1.896-1.54 5.455 5.477a1.248 1.248 0 01-1.071.621z"/></symbol><symbol viewBox="0 0 20 20" id="phone" xmlns="http://www.w3.org/2000/svg"><path d="M18.421 13.168c-1.234 0-2.442-.192-3.588-.571-.56-.193-1.193-.044-1.561.33l-2.27 1.715C8.396 13.252 6.728 11.586 5.356 9l1.668-2.217c.42-.42.57-1.035.39-1.61a11.447 11.447 0 01-.573-3.593A1.58 1.58 0 005.263 0H1.58A1.58 1.58 0 000 1.579C0 11.736 8.264 20 18.421 20A1.58 1.58 0 0020 18.421v-3.674a1.58 1.58 0 00-1.579-1.579zm.526 5.253c0 .29-.236.526-.526.526-9.577 0-17.368-7.791-17.368-17.368 0-.29.236-.526.526-.526h3.684c.29 0 .527.235.527.526 0 1.344.21 2.664.623 3.916.06.197.011.4-.181.6L4.316 8.632a.526.526 0 00-.049.555c1.561 3.067 3.457 4.963 6.546 6.546a.524.524 0 00.556-.049l2.592-1.964a.528.528 0 01.536-.125c1.259.416 2.579.626 3.924.626.29 0 .527.236.527.526v3.674z"/></symbol><symbol viewBox="0 0 70 70" id="play" xmlns="http://www.w3.org/2000/svg"><circle cx="35" cy="35" r="34.5"/><path d="M48.75 35.799L27 48.356a1.5 1.5 0 01-2.25-1.299V21.943a1.5 1.5 0 012.25-1.3l21.75 12.558c1 .577 1 2.02 0 2.598z"/></symbol><symbol viewBox="0 0 16 21" id="pointer" xmlns="http://www.w3.org/2000/svg"><path d="M7.573 20.441a.458.458 0 00.693 0l5.367-6.225c3.128-3.127 3.16-8.194.07-11.302A7.827 7.827 0 008.113.6H8.11a8.04 8.04 0 00-5.732 2.39c-3.136 3.123-3.176 8.19-.093 11.302l5.287 6.15zM3.027 3.604a7.129 7.129 0 015.084-2.123h.001a6.918 6.918 0 014.94 2.046 7.01 7.01 0 012.04 5.03 7.16 7.16 0 01-2.141 5.08l-5.03 5.835-4.952-5.757A7.008 7.008 0 01.908 8.66a7.16 7.16 0 012.12-5.056z"/><path d="M8 12.046c2.22 0 4.019-1.752 4.019-3.913 0-2.161-1.8-3.913-4.019-3.913-2.22 0-4.018 1.752-4.018 3.913.002 2.16 1.8 3.91 4.018 3.913zM8 5.1c1.72 0 3.114 1.357 3.114 3.032 0 1.674-1.394 3.032-3.114 3.032S4.887 9.806 4.887 8.133C4.889 6.459 6.28 5.103 8 5.1z"/></symbol><symbol viewBox="0 0 24 12" id="r-arrow" xmlns="http://www.w3.org/2000/svg"><path d="M1 6h22m0 0l-5-5m5 5l-5 5"/></symbol><symbol viewBox="0 0 11 13" id="timer" xmlns="http://www.w3.org/2000/svg"><path fill-rule="evenodd" clip-rule="evenodd" d="M8 0H3v1h5V0zm2 7.5a4.5 4.5 0 11-9 0 4.5 4.5 0 019 0zm1 0a5.5 5.5 0 11-11 0 5.5 5.5 0 0111 0zM6 4v3h2v1H5V4h1z"/></symbol><symbol viewBox="0 0 20 20" id="vk" xmlns="http://www.w3.org/2000/svg"><g clip-path="url(#sclip0)"><path fill-rule="evenodd" clip-rule="evenodd" d="M15.832 9.251a31.602 31.602 0 00.367-.52c.251-.36.588-.85.931-1.379.345-.53.69-1.086.963-1.578.133-.24.236-.442.312-.607h-1.707a.515.515 0 00-.031.002l-.002.004-.011.027a13.4 13.4 0 01-.199.442c-.135.29-.332.695-.58 1.157-.491.91-1.209 2.091-2.077 3.043l-.018.02-.02.02c-.456.448-.974.946-1.722.946-.963 0-1.349-.93-1.349-1.616V5.167H8.546c.201.376.362.862.4 1.532v3.22c0 .338-.017.788-.225 1.16-.13.231-.328.426-.59.544a1.433 1.433 0 01-.59.117c-.372 0-.676-.158-.867-.28a3.399 3.399 0 01-.578-.489c-.353-.363-.722-.853-1.081-1.41-.72-1.119-1.472-2.622-2.032-4.223a2.393 2.393 0 00-.068-.17H1.077l.045.17c.1.357.262.84.51 1.427.495 1.173 1.322 2.746 2.634 4.552l.006.009c1.663 2.342 3.93 3.508 5.856 3.508.25 0 .431-.011.563-.027l-.005-.74c-.002-.18-.004-.345-.004-.509 0-.352.003-.686.045-.956.04-.263.15-.717.583-1.016.365-.252.778-.252.944-.252h.008c.741 0 1.548.415 2.867 1.663l.007.006.007.007a25.767 25.767 0 011.093 1.142c.18.197.313.341.434.46.148.146.219.192.25.208h.002c.01.006.024.014.082.014h1.785a6.676 6.676 0 00-.319-.455 17.329 17.329 0 00-1.041-1.223 40.295 40.295 0 00-1.207-1.249 96.337 96.337 0 01-.297-.3l-.003-.004a1.751 1.751 0 01-.113-.13c-.22-.278-.46-.676-.418-1.19.033-.406.246-.738.342-.888l.018-.028.06-.093.021-.023zm.764 1.606c.024.034.147.156.332.342.782.786 2.684 2.694 3.02 3.723.182.605-.134.912-.757.912h-2.187c-.583 0-.878-.322-1.515-1.017-.27-.295-.603-.659-1.046-1.093-1.3-1.23-1.857-1.39-2.18-1.39-.593 0-.591.166-.578 1.708.003.274.006.59.006.957 0 .528-.17.835-1.563.835-2.316 0-4.863-1.381-6.671-3.93C.743 8.171 0 5.346 0 4.778c0-.322.126-.61.75-.61h2.188c.56 0 .771.24.987.835 1.07 3.062 2.873 5.738 3.617 5.738.279 0 .405-.127.405-.82V6.754c-.05-.901-.371-1.291-.608-1.58-.147-.178-.262-.318-.262-.516 0-.237.208-.492.557-.492h3.438c.461 0 .617.244.617.79v4.255c0 .456.213.616.35.616.277 0 .512-.16 1.02-.66 1.575-1.727 2.689-4.392 2.689-4.392.137-.322.394-.609.95-.609h2.193a1.395 1.395 0 01.272.025c.42.085.498.383.383.766h-.002c-.275 1.251-2.944 4.94-2.948 4.944-.231.365-.323.547 0 .955zm-5.512-5.69h-.002.002z"/></g><defs><clipPath id="sclip0"><path d="M0 0h20v20H0z"/></clipPath></defs></symbol></svg>