<?xml version="1.0" encoding="utf-8"?><svg xmlns="http://www.w3.org/2000/svg" xmlns:xlink="http://www.w3.org/1999/xlink"><symbol fill="none" viewBox="0 0 30 30" id="label-hit" xmlns="http://www.w3.org/2000/svg"><mask id="aa" maskUnits="userSpaceOnUse" x="0" y="0" width="30" height="30"><path fill="#C4C4C4" d="M0 0h30v30H0z"/></mask><g mask="url(#aa)"><path d="M10.808 1.074l3.823 1.332L18.4.925l2.645 3.065 4.003.601.758 3.977 3.167 2.522-1.332 3.823 1.482 3.768-3.066 2.645-.6 4.003-3.977.758-2.523 3.167-3.822-1.332-3.768 1.481-2.645-3.065-4.003-.6-.758-3.978-3.167-2.522 1.332-3.823-1.482-3.767 3.065-2.645.601-4.004 3.977-.758 2.522-3.167z" fill="#D6ABFF"/><path d="M20.884 13.318a.652.652 0 00-.377-.194h.007l-3.413-.495-1.52-3.093a.653.653 0 00-1.168 0l-1.527 3.093-3.413.495a.653.653 0 00-.352 1.116l2.466 2.408-.58 3.399a.652.652 0 00.946.684l3.04-1.604 3.054 1.605a.653.653 0 00.947-.685l-.581-3.4 2.453-2.407a.652.652 0 00.018-.922zm-3.633 2.631a.652.652 0 00-.189.574l.418 2.434-2.186-1.148a.653.653 0 00-.607 0L12.5 18.957l.417-2.434a.652.652 0 00-.189-.574l-1.768-1.722 2.44-.352a.653.653 0 00.49-.359l1.102-2.212 1.09 2.212a.653.653 0 00.49.359l2.44.352-1.762 1.722z" fill="#333"/><path d="M29.943 18.546l-1.618-3.556 1.599-3.575a.652.652 0 00-.21-.796l-3.17-2.296-.399-3.915a.653.653 0 00-.58-.58l-3.916-.405L19.365.272a.653.653 0 00-.796-.215l-3.575 1.605L11.417.057a.653.653 0 00-.797.215l-2.297 3.17-3.915.405a.652.652 0 00-.58.58L3.43 8.343.272 10.62a.652.652 0 00-.215.796l1.605 3.575-1.605 3.575a.652.652 0 00.215.796l3.171 2.297.398 3.914a.652.652 0 00.581.58l3.916.405 2.296 3.171a.654.654 0 00.797.215l3.563-1.624 3.575 1.605a.653.653 0 00.797-.216l2.297-3.17 3.915-.405a.652.652 0 00.58-.58l.399-3.915 3.17-2.296a.652.652 0 00.216-.796zm-4.404 2.218a.652.652 0 00-.268.463l-.378 3.66-3.661.378a.653.653 0 00-.463.268l-2.154 2.982-3.36-1.508a.653.653 0 00-.536 0l-3.36 1.508-2.154-2.982a.653.653 0 00-.463-.268l-3.66-.378-.38-3.66a.652.652 0 00-.267-.463l-2.982-2.153 1.508-3.353a.652.652 0 000-.535l-1.508-3.354 2.982-2.153a.652.652 0 00.268-.463l.378-3.66 3.661-.378a.653.653 0 00.463-.268l2.154-2.981 3.36 1.507c.17.076.365.076.536 0l3.36-1.507 2.154 2.981a.65.65 0 00.463.268l3.66.378.38 3.66a.652.652 0 00.267.463l2.982 2.153-1.508 3.354a.651.651 0 000 .535l1.508 3.353-2.982 2.153z" fill="#333"/><path d="M14.993 4.846c-5.604 0-10.147 4.542-10.147 10.145S9.39 25.136 14.993 25.136c5.605 0 10.148-4.542 10.148-10.145-.008-5.6-4.546-10.138-10.147-10.145zm0 18.985a8.841 8.841 0 110-17.68 8.841 8.841 0 018.842 8.84 8.854 8.854 0 01-8.842 8.84z" fill="#333"/></g></symbol><symbol fill="none" viewBox="0 0 30 30" id="label-new" xmlns="http://www.w3.org/2000/svg"><path d="M15 1l2.99 2.844L22 2.876l1.167 3.957L27.124 8l-.968 4.01L29 15l-2.844 2.99.968 4.01-3.957 1.167L22 27.124l-4.01-.968L15 29l-2.99-2.844-4.01.968-1.167-3.957L2.876 22l.968-4.01L1 15l2.844-2.99L2.876 8l3.957-1.167L8 2.876l4.01.968L15 1z" fill="#7ACFFF"/><path d="M28.297 12.781c-.463-.34-1.039-.765-1.114-1.047-.083-.308.21-.986.448-1.53.406-.934.826-1.9.36-2.707-.47-.816-1.528-.935-2.55-1.05-.583-.065-1.308-.146-1.525-.364-.217-.216-.298-.941-.364-1.524-.114-1.022-.233-2.078-1.05-2.55-.709-.413-1.76-.053-2.706.36-.523.227-1.068.443-1.531.448-.282-.074-.706-.65-1.048-1.114C16.63.905 15.963 0 15 0c-.961 0-1.63.905-2.217 1.702-.342.463-.766 1.04-1.165 1.128-.351 0-.891-.234-1.414-.461-.948-.412-2.001-.769-2.705-.36-.818.472-.937 1.528-1.052 2.55-.064.583-.146 1.307-.362 1.524-.218.218-.943.3-1.525.364-1.023.115-2.08.235-2.551 1.05-.466.805-.046 1.772.36 2.707.237.544.532 1.222.45 1.53-.076.282-.653.707-1.114 1.047C.905 13.37 0 14.037 0 15c0 .963.905 1.63 1.703 2.219.463.34 1.039.765 1.114 1.047.083.308-.21.986-.448 1.53-.406.934-.826 1.9-.36 2.707.47.816 1.528.935 2.55 1.05.583.065 1.308.146 1.524.363.218.217.3.942.364 1.525.115 1.022.234 2.078 1.05 2.55.707.411 1.759.053 2.707-.36.523-.227 1.058-.456 1.531-.448.282.074.706.65 1.048 1.114C13.37 29.095 14.037 30 15 30c.961 0 1.63-.905 2.216-1.702.342-.463.766-1.04 1.165-1.128.352 0 .892.234 1.414.461.95.414 2 .77 2.705.362.818-.473.936-1.53 1.051-2.552.064-.583.146-1.307.363-1.524.218-.218.943-.3 1.525-.364 1.022-.115 2.08-.235 2.551-1.05.467-.805.047-1.772-.36-2.707-.237-.544-.53-1.22-.449-1.53.076-.282.652-.707 1.114-1.047C29.095 16.63 30 15.963 30 15c0-.963-.905-1.63-1.703-2.219zm-.773 3.385c-.692.51-1.408 1.037-1.601 1.76-.2.748.163 1.582.514 2.388.224.516.563 1.296.427 1.532-.142.247-.999.344-1.567.407-.867.098-1.763.199-2.303.739s-.64 1.436-.737 2.302c-.064.567-.16 1.425-.408 1.568a.32.32 0 01-.146.027c-.34 0-.871-.232-1.386-.455-.81-.351-1.694-.7-2.387-.513-.724.193-1.251.91-1.762 1.602-.345.467-.865 1.173-1.168 1.173-.303 0-.824-.706-1.167-1.173-.51-.691-1.037-1.407-1.761-1.6a1.77 1.77 0 00-.455-.058c-.623 0-1.289.29-1.933.572-.514.223-1.046.455-1.387.455a.32.32 0 01-.146-.028c-.248-.143-.343-1-.407-1.567-.098-.867-.198-1.763-.738-2.303-.539-.54-1.436-.64-2.302-.738-.566-.064-1.425-.16-1.567-.407-.137-.235.204-1.016.428-1.533.35-.806.713-1.64.514-2.388-.195-.722-.91-1.25-1.602-1.76-.467-.345-1.172-.865-1.172-1.168 0-.303.705-.823 1.172-1.169.693-.51 1.409-1.037 1.602-1.76.2-.748-.163-1.582-.514-2.388-.223-.516-.564-1.296-.428-1.532.144-.247 1-.343 1.568-.406.866-.098 1.762-.198 2.302-.738s.64-1.436.738-2.302c.063-.568.16-1.425.407-1.568a.321.321 0 01.146-.028c.34 0 .872.233 1.386.457.808.35 1.691.702 2.387.513.723-.193 1.25-.91 1.762-1.602.344-.467.865-1.173 1.167-1.173.303 0 .825.706 1.169 1.171.51.692 1.037 1.408 1.76 1.6.69.185 1.579-.16 2.388-.512.514-.223 1.046-.455 1.386-.455a.32.32 0 01.146.028c.248.143.343 1 .407 1.567.098.866.198 1.763.738 2.303s1.437.64 2.303.738c.566.064 1.424.16 1.566.407.137.235-.203 1.016-.428 1.532-.35.806-.713 1.64-.513 2.389.194.722.91 1.25 1.601 1.76.467.345 1.173.865 1.173 1.168 0 .303-.706.823-1.172 1.166z" fill="#333"/><path d="M11.087 11.739a.652.652 0 00-.652.652v3.26L7.695 12a.65.65 0 00-1.173.391v5.217a.652.652 0 001.304 0v-3.26L10.566 18a.654.654 0 00.727.227.652.652 0 00.446-.619v-5.217a.652.652 0 00-.652-.652zm5.217 5.218h-1.956v-3.913h1.956a.652.652 0 000-1.305h-2.608a.652.652 0 00-.652.652v5.218c0 .36.292.652.652.652h2.608a.652.652 0 000-1.304z" fill="#333"/><path d="M16.304 14.348h-2.608a.652.652 0 000 1.304h2.608a.652.652 0 000-1.304zm7.983-2.589a.649.649 0 00-.79.475l-.761 3.044-.596-1.788c-.178-.532-1.06-.532-1.238 0l-.596 1.788-.76-3.044a.653.653 0 00-1.266.315l1.305 5.218c.07.28.318.482.608.493a.62.62 0 00.644-.445l.685-2.057.684 2.057c.09.267.34.446.62.446l.023-.001a.65.65 0 00.608-.493l1.305-5.218a.65.65 0 00-.475-.79z" fill="#333"/></symbol><symbol fill="none" viewBox="0 0 30 30" id="label-spicy" xmlns="http://www.w3.org/2000/svg"><path d="M.5 2.5v-2h1c.667.167 2.2.7 3 1.5.8.8 1.667 2.333 2 3 .167-.167.9-.5 2.5-.5s2.667 1 3 1.5l3 3.804L16 8l2.5-3 3-.5h2c.667-.667 1.7-2.6 2.5-3 .8-.4 2.5-.333 3-.5v1.5L26 4l-1.5 1.5c.333.667 1 2.1 1 2.5 0 .4-1 2.5-1.5 3.5l-2 4-1.5 3 2.5 4 6 7-2.5-.5c-1.667-.5-5.3-1.6-6.5-2-1.2-.4-3.833-2.167-5-3-1.167.5-3.8 1.8-5 3-1.2 1.2-6.5 2.167-9 2.5L5 25l4.5-7C8.333 15.833 5.8 11 5 9c-1-2.5.5-1.5.5-3.5 0-1.6-3.333-2.667-5-3z" fill="#FF6868"/><path d="M29.41 3.25a.586.586 0 00.585-.585V.585A.586.586 0 0029.409 0c-3.187 0-5.329 2.13-6.712 3.905a4.98 4.98 0 00-2.557-.243 4.98 4.98 0 00-3.114 1.853l-.836 1.071-.006.007c-.42.556-.814 1.1-1.187 1.632a53.916 53.916 0 00-1.187-1.632l-.005-.007-.836-1.071a4.981 4.981 0 00-3.114-1.853 4.98 4.98 0 00-2.557.243C5.915 2.129 3.773 0 .586 0A.586.586 0 000 .586v2.079c0 .323.262.585.586.586 1.397 0 2.734.871 4.186 2.733a4.992 4.992 0 00-.211 4.825l1.106 2.226c.088.192 1.127 2.427 3.185 5.244C6.914 21.361 4.424 24.748.172 29a.586.586 0 00.414 1c3.674 0 7.213-.898 10.519-2.668a26.113 26.113 0 003.893-2.572c4.38 3.477 9.227 5.24 14.411 5.24a.586.586 0 00.415-1 75.764 75.764 0 01-3.032-3.206.586.586 0 00-.876.779c.642.722 1.328 1.46 2.048 2.206-4.296-.292-8.338-1.898-12.043-4.783a31.836 31.836 0 002.582-2.5 35.789 35.789 0 001.885-2.215c.773 1.213 4.708 6.194 5.528 7.292a.585.585 0 10.94-.701c-.886-1.184-4.873-6.253-5.713-7.59 2.05-2.801 3.09-5.04 3.185-5.247l1.106-2.226a4.992 4.992 0 00-.21-4.825c1.451-1.862 2.788-2.733 4.185-2.733zM1.171 2.118v-.915c2.279.238 3.93 1.832 5.065 3.25-.261.176-.5.373-.718.587C4.494 3.763 3.05 2.365 1.172 2.117zm4.61 8.519l-.172-.348a3.823 3.823 0 01.353-3.977c0-.002.002-.003.003-.004A3.812 3.812 0 017.38 5.14a3.791 3.791 0 014.405.797 3.169 3.169 0 00-2.977 2.88h-.164a3.168 3.168 0 00-2.862 1.819zm.87 1.749l.001-.024v-.38c0-1.098.894-1.992 1.992-1.992h.738a.586.586 0 00.586-.585v-.309c0-1.098.894-1.992 1.992-1.992h.761l.157.2a52.8 52.8 0 011.411 1.958c-1.224 1.837-2.215 3.553-3.183 5.23-.515.89-1.033 1.788-1.59 2.708-1.845-2.6-2.865-4.814-2.865-4.814zm16.622.138a.644.644 0 00-.009.019c-.018.04-1.887 4.118-5.623 8.16-3.214 3.476-8.464 7.58-15.61 8.076 3.858-3.996 6.171-7.23 8.013-10.196a126.622 126.622 0 002.076-3.505c1.404-2.43 2.856-4.945 4.995-7.774l.156-.2h.762c1.098 0 1.992.894 1.992 1.992v.308c0 .324.262.586.586.586h.738c1.098 0 1.992.894 1.992 1.992v.38l.001.024-.069.138zm1.111-2.235l-.173.348a3.167 3.167 0 00-2.862-1.818h-.164a3.169 3.169 0 00-2.978-2.881 3.792 3.792 0 014.44-.78 3.811 3.811 0 011.382 1.15l.002.004a3.823 3.823 0 01.353 3.977zm.09-5.249a5.007 5.007 0 00-.717-.588c1.135-1.417 2.786-3.011 5.065-3.249v.915c-1.878.248-3.322 1.646-4.347 2.922z" fill="#333"/></symbol><symbol fill="none" viewBox="0 0 30 30" id="label-vegan" xmlns="http://www.w3.org/2000/svg"><path d="M9.5 14l2-1.5h.5l.5-3L13 7l-1-2.5-2.5-2-5-1.5H1v5l1 5 4 3h3.5zm7.5-2.5l1 3v1l2.5 1.5H24l3-2 1.5-3.5.5-5 .5-2.5H25l-4 1-3.5 2.5-.5 4z" fill="#27AE60"/><path d="M12.061 3.219C9.441.334 4.311 0 .681 0 .305 0 0 .336 0 .75c0 3.997.302 9.645 2.923 12.531 1.106 1.218 2.802 1.762 4.483 1.762 1.827 0 3.638-.643 4.655-1.763 1.952-2.15 2.31-7.519 0-10.061zm-.963 9.001c-1.458 1.604-5.505 1.878-7.21 0C1.772 9.891 1.406 5.158 1.366 1.504c3.319.044 7.616.447 9.732 2.777 1.705 1.878 1.456 6.336 0 7.94zM29.32 2.967c-3.631 0-8.76.333-11.38 3.219-2.311 2.542-1.953 7.91 0 10.06 1.017 1.12 2.826 1.763 4.652 1.763 1.681 0 3.376-.543 4.485-1.761C29.697 13.362 30 7.714 30 3.717c0-.414-.305-.75-.68-.75zm-3.21 12.219c-1.705 1.878-5.754 1.603-7.21 0-1.456-1.604-1.706-6.062 0-7.94 2.115-2.33 6.413-2.733 9.732-2.776-.04 3.655-.406 8.388-2.522 10.716z" fill="#333"/><path d="M24.4 9.459c-.161-.377-.621-.506-.96-.332-5.225 2.705-7.791 7.42-8.957 12.269C13.04 11.088 8.868 7.946 7.098 6.612c-.22-.167-.392-.288-.487-.392a.638.638 0 00-.964 0 .805.805 0 000 1.06c.135.148.368.332.683.57 1.994 1.5 7.292 5.492 7.292 21.4 0 .414.305.75.681.75.376 0 .681-.336.681-.749 0-6.427 1.568-14.9 9.036-18.765l.11-.058c.34-.177.43-.594.27-.97z" fill="#333"/></symbol><symbol fill="none" viewBox="0 0 13 13" id="star" xmlns="http://www.w3.org/2000/svg"><path d="M12.685 4.982a.666.666 0 00-.569-.475l-3.589-.34L7.107.7A.66.66 0 006.5.283a.66.66 0 00-.608.419L4.473 4.168l-3.59.34a.665.665 0 00-.568.474.71.71 0 00.194.732l2.713 2.483-.8 3.677a.705.705 0 00.257.712.634.634 0 00.726.034L6.5 10.688l3.095 1.931c.226.142.512.13.726-.033a.706.706 0 00.257-.712l-.8-3.677 2.714-2.482a.71.71 0 00.193-.733z" fill="#F2C94C"/><path d="M2.91 13a.67.67 0 01-.405-.137.737.737 0 01-.269-.745l.837-3.843L.236 5.679a.741.741 0 01-.202-.766.698.698 0 01.594-.496l3.753-.356L5.865.438A.69.69 0 016.5 0a.69.69 0 01.635.437l1.483 3.624 3.753.356c.277.026.51.22.595.496a.74.74 0 01-.203.765L9.928 8.274l.836 3.843a.736.736 0 01-.269.744.666.666 0 01-.759.036L6.5 10.879l-3.236 2.019A.664.664 0 012.91 13zm3.59-2.99a.67.67 0 01.354.102l3.054 1.906-.79-3.629a.74.74 0 01.22-.702l2.678-2.452L8.473 4.9a.691.691 0 01-.574-.437L6.5 1.044l-1.4 3.42a.69.69 0 01-.574.435l-3.542.336 2.678 2.451a.74.74 0 01.218.703l-.789 3.629 3.054-1.906a.674.674 0 01.355-.103zM4.352 4.131zm4.295-.002z" fill="#333"/></symbol></svg>