<?xml version="1.0" encoding="utf-8"?><svg xmlns="http://www.w3.org/2000/svg" xmlns:xlink="http://www.w3.org/1999/xlink"><symbol fill="none" viewBox="0 0 16 13" id="dislike" xmlns="http://www.w3.org/2000/svg"><path fill-rule="evenodd" clip-rule="evenodd" d="M8 1.57A4.532 4.532 0 0111.463 0C13.97 0 16 1.994 16 4.453c0 4.273-7.494 8.328-7.797 8.487a.37.37 0 01-.406 0C7.494 12.78 0 8.666 0 4.453 0 1.993 2.031 0 4.537 0A4.47 4.47 0 018 1.57zM8.255 12l-.797-2.392 2.325-2.325a.4.4 0 00-.061-.616L7.016 4.863 8.152 2.59a.428.428 0 00.192-.145C9.471.755 11.78.28 13.503 1.385a3.64 3.64 0 011.687 3.068c0 3.255-5.33 6.616-6.935 7.546zm-.929-.257l-.705-2.117a.4.4 0 01.096-.409l2.155-2.155-2.594-1.73a.4.4 0 01-.136-.51l1.322-2.644A3.672 3.672 0 004.537.795C2.479.795.81 2.433.81 4.453c0 2.977 4.562 6.09 6.516 7.29z" fill="#333"/></symbol><symbol fill="none" viewBox="0 0 16 13" id="dislike-active" xmlns="http://www.w3.org/2000/svg"><path d="M4 .5C5.2.5 7.5 1 8 2c.5-.86 3-1.5 4-1.5s3.5 1.5 3.5 4-2 4-3 5c-.8.8-3.333 2.288-4.5 3-.833-.545-2.9-1.8-4.5-3-2-1.5-3-4.5-3-6s2-3 3.5-3z" fill="#DE3434"/><path fill-rule="evenodd" clip-rule="evenodd" d="M8 1.57A4.532 4.532 0 0111.463 0C13.97 0 16 1.994 16 4.453c0 4.273-7.494 8.328-7.797 8.487a.37.37 0 01-.406 0C7.494 12.78 0 8.666 0 4.453 0 1.993 2.031 0 4.537 0A4.47 4.47 0 018 1.57zM8.255 12l-.797-2.392 2.325-2.325a.4.4 0 00-.061-.616L7.016 4.863 8.152 2.59a.428.428 0 00.192-.145C9.471.755 11.78.28 13.503 1.385a3.64 3.64 0 011.687 3.068c0 3.255-5.33 6.616-6.935 7.546zm-.929-.257l-.705-2.117a.4.4 0 01.096-.409l2.155-2.155-2.594-1.73a.4.4 0 01-.136-.51l1.322-2.644A3.672 3.672 0 004.537.795C2.479.795.81 2.433.81 4.453c0 2.977 4.562 6.09 6.516 7.29z" fill="#333"/></symbol><symbol fill="none" viewBox="0 0 24 25" id="facebook" xmlns="http://www.w3.org/2000/svg"><path d="M11 23.5v-7H8.5v-5h3V11c-.167-1-.1-3.5 1.5-5.5s5.333-1.833 7-1.5v5h-3v2.5h4l-2 5h-2v7h3.5c2 0 2.833-1.333 3-2v-18c0-2-1.333-2.833-2-3h-18c-2 0-2.833 1.333-3 2V20c0 1.5.5 3.5 2.5 3.5h8z" fill="#EF6135"/><path d="M20.25 11.459H17.1v-2.4c0-.055.005-.09.009-.11a1.297 1.297 0 01.326-.04c.11-.003.22-.003.348-.002L18 8.91h2.1V3.959h-3.6a5.1 5.1 0 00-5.1 5.1v2.4h-3v4.95h3v7.05H3a2.403 2.403 0 01-2.4-2.4v-18c0-1.324 1.077-2.4 2.4-2.4h18c1.323 0 2.4 1.076 2.4 2.4v18c0 1.323-1.077 2.4-2.4 2.4h-3.9v-7.05h2.056l.151-.378 1.5-3.75.33-.822h-.887zm-3.134-2.533v.001-.001z" stroke="#333" stroke-width="1.2"/></symbol><symbol fill="none" viewBox="0 0 26 26" id="instagram" xmlns="http://www.w3.org/2000/svg"><path fill-rule="evenodd" clip-rule="evenodd" d="M5 1.5c-.5 0-2.5 0-3 1-.4.8-.5 14-.5 20.5.167.5 1.2 1.5 4 1.5h17c.667 0 2-.4 2-2V3c0-.5-.8-1.5-4-1.5H5zM13 20a7 7 0 100-14 7 7 0 000 14z" fill="#EF6135"/><path d="M25.1 3.804A2.904 2.904 0 0022.195.9H3.805A2.905 2.905 0 00.9 3.804v18.391A2.905 2.905 0 003.804 25.1h18.391a2.907 2.907 0 002.905-2.905V3.805zM22.19 24.02H3.81a1.835 1.835 0 01-1.83-1.829V8.476h5.465c-.945 1.252-1.508 2.764-1.508 4.43 0 4.009 3.26 7.273 7.27 7.273 4.009 0 7.27-3.266 7.27-7.274 0-1.666-.564-3.177-1.508-4.429h5.05V22.19a1.835 1.835 0 01-1.829 1.83zM13.207 6.722a6.19 6.19 0 11-6.19 6.19 6.197 6.197 0 016.19-6.19h0zM3.81 1.98h18.38a1.835 1.835 0 011.83 1.829v3.585h-6.07a7.256 7.256 0 00-9.487 0H1.981V3.81A1.835 1.835 0 013.81 1.98z" fill="#333" stroke="#333" stroke-width=".2"/></symbol><symbol fill="none" viewBox="0 0 30 30" id="label-hit" xmlns="http://www.w3.org/2000/svg"><mask id="ea" maskUnits="userSpaceOnUse" x="0" y="0" width="30" height="30"><path fill="#C4C4C4" d="M0 0h30v30H0z"/></mask><g mask="url(#ea)"><path d="M10.808 1.074l3.823 1.332L18.4.925l2.645 3.065 4.003.601.758 3.977 3.167 2.522-1.332 3.823 1.482 3.768-3.066 2.645-.6 4.003-3.977.758-2.523 3.167-3.822-1.332-3.768 1.481-2.645-3.065-4.003-.6-.758-3.978-3.167-2.522 1.332-3.823-1.482-3.767 3.065-2.645.601-4.004 3.977-.758 2.522-3.167z" fill="#D6ABFF"/><path d="M20.884 13.318a.652.652 0 00-.377-.194h.007l-3.413-.495-1.52-3.093a.653.653 0 00-1.168 0l-1.527 3.093-3.413.495a.653.653 0 00-.352 1.116l2.466 2.408-.58 3.399a.652.652 0 00.946.684l3.04-1.604 3.054 1.605a.653.653 0 00.947-.685l-.581-3.4 2.453-2.407a.652.652 0 00.018-.922zm-3.633 2.631a.652.652 0 00-.189.574l.418 2.434-2.186-1.148a.653.653 0 00-.607 0L12.5 18.957l.417-2.434a.652.652 0 00-.189-.574l-1.768-1.722 2.44-.352a.653.653 0 00.49-.359l1.102-2.212 1.09 2.212a.653.653 0 00.49.359l2.44.352-1.762 1.722z" fill="#333"/><path d="M29.943 18.546l-1.618-3.556 1.599-3.575a.652.652 0 00-.21-.796l-3.17-2.296-.399-3.915a.653.653 0 00-.58-.58l-3.916-.405L19.365.272a.653.653 0 00-.796-.215l-3.575 1.605L11.417.057a.653.653 0 00-.797.215l-2.297 3.17-3.915.405a.652.652 0 00-.58.58L3.43 8.343.272 10.62a.652.652 0 00-.215.796l1.605 3.575-1.605 3.575a.652.652 0 00.215.796l3.171 2.297.398 3.914a.652.652 0 00.581.58l3.916.405 2.296 3.171a.654.654 0 00.797.215l3.563-1.624 3.575 1.605a.653.653 0 00.797-.216l2.297-3.17 3.915-.405a.652.652 0 00.58-.58l.399-3.915 3.17-2.296a.652.652 0 00.216-.796zm-4.404 2.218a.652.652 0 00-.268.463l-.378 3.66-3.661.378a.653.653 0 00-.463.268l-2.154 2.982-3.36-1.508a.653.653 0 00-.536 0l-3.36 1.508-2.154-2.982a.653.653 0 00-.463-.268l-3.66-.378-.38-3.66a.652.652 0 00-.267-.463l-2.982-2.153 1.508-3.353a.652.652 0 000-.535l-1.508-3.354 2.982-2.153a.652.652 0 00.268-.463l.378-3.66 3.661-.378a.653.653 0 00.463-.268l2.154-2.981 3.36 1.507c.17.076.365.076.536 0l3.36-1.507 2.154 2.981a.65.65 0 00.463.268l3.66.378.38 3.66a.652.652 0 00.267.463l2.982 2.153-1.508 3.354a.651.651 0 000 .535l1.508 3.353-2.982 2.153z" fill="#333"/><path d="M14.993 4.846c-5.604 0-10.147 4.542-10.147 10.145S9.39 25.136 14.993 25.136c5.605 0 10.148-4.542 10.148-10.145-.008-5.6-4.546-10.138-10.147-10.145zm0 18.985a8.841 8.841 0 110-17.68 8.841 8.841 0 018.842 8.84 8.854 8.854 0 01-8.842 8.84z" fill="#333"/></g></symbol><symbol fill="none" viewBox="0 0 30 30" id="label-new" xmlns="http://www.w3.org/2000/svg"><path d="M15 1l2.99 2.844L22 2.876l1.167 3.957L27.124 8l-.968 4.01L29 15l-2.844 2.99.968 4.01-3.957 1.167L22 27.124l-4.01-.968L15 29l-2.99-2.844-4.01.968-1.167-3.957L2.876 22l.968-4.01L1 15l2.844-2.99L2.876 8l3.957-1.167L8 2.876l4.01.968L15 1z" fill="#7ACFFF"/><path d="M28.297 12.781c-.463-.34-1.039-.765-1.114-1.047-.083-.308.21-.986.448-1.53.406-.934.826-1.9.36-2.707-.47-.816-1.528-.935-2.55-1.05-.583-.065-1.308-.146-1.525-.364-.217-.216-.298-.941-.364-1.524-.114-1.022-.233-2.078-1.05-2.55-.709-.413-1.76-.053-2.706.36-.523.227-1.068.443-1.531.448-.282-.074-.706-.65-1.048-1.114C16.63.905 15.963 0 15 0c-.961 0-1.63.905-2.217 1.702-.342.463-.766 1.04-1.165 1.128-.351 0-.891-.234-1.414-.461-.948-.412-2.001-.769-2.705-.36-.818.472-.937 1.528-1.052 2.55-.064.583-.146 1.307-.362 1.524-.218.218-.943.3-1.525.364-1.023.115-2.08.235-2.551 1.05-.466.805-.046 1.772.36 2.707.237.544.532 1.222.45 1.53-.076.282-.653.707-1.114 1.047C.905 13.37 0 14.037 0 15c0 .963.905 1.63 1.703 2.219.463.34 1.039.765 1.114 1.047.083.308-.21.986-.448 1.53-.406.934-.826 1.9-.36 2.707.47.816 1.528.935 2.55 1.05.583.065 1.308.146 1.524.363.218.217.3.942.364 1.525.115 1.022.234 2.078 1.05 2.55.707.411 1.759.053 2.707-.36.523-.227 1.058-.456 1.531-.448.282.074.706.65 1.048 1.114C13.37 29.095 14.037 30 15 30c.961 0 1.63-.905 2.216-1.702.342-.463.766-1.04 1.165-1.128.352 0 .892.234 1.414.461.95.414 2 .77 2.705.362.818-.473.936-1.53 1.051-2.552.064-.583.146-1.307.363-1.524.218-.218.943-.3 1.525-.364 1.022-.115 2.08-.235 2.551-1.05.467-.805.047-1.772-.36-2.707-.237-.544-.53-1.22-.449-1.53.076-.282.652-.707 1.114-1.047C29.095 16.63 30 15.963 30 15c0-.963-.905-1.63-1.703-2.219zm-.773 3.385c-.692.51-1.408 1.037-1.601 1.76-.2.748.163 1.582.514 2.388.224.516.563 1.296.427 1.532-.142.247-.999.344-1.567.407-.867.098-1.763.199-2.303.739s-.64 1.436-.737 2.302c-.064.567-.16 1.425-.408 1.568a.32.32 0 01-.146.027c-.34 0-.871-.232-1.386-.455-.81-.351-1.694-.7-2.387-.513-.724.193-1.251.91-1.762 1.602-.345.467-.865 1.173-1.168 1.173-.303 0-.824-.706-1.167-1.173-.51-.691-1.037-1.407-1.761-1.6a1.77 1.77 0 00-.455-.058c-.623 0-1.289.29-1.933.572-.514.223-1.046.455-1.387.455a.32.32 0 01-.146-.028c-.248-.143-.343-1-.407-1.567-.098-.867-.198-1.763-.738-2.303-.539-.54-1.436-.64-2.302-.738-.566-.064-1.425-.16-1.567-.407-.137-.235.204-1.016.428-1.533.35-.806.713-1.64.514-2.388-.195-.722-.91-1.25-1.602-1.76-.467-.345-1.172-.865-1.172-1.168 0-.303.705-.823 1.172-1.169.693-.51 1.409-1.037 1.602-1.76.2-.748-.163-1.582-.514-2.388-.223-.516-.564-1.296-.428-1.532.144-.247 1-.343 1.568-.406.866-.098 1.762-.198 2.302-.738s.64-1.436.738-2.302c.063-.568.16-1.425.407-1.568a.321.321 0 01.146-.028c.34 0 .872.233 1.386.457.808.35 1.691.702 2.387.513.723-.193 1.25-.91 1.762-1.602.344-.467.865-1.173 1.167-1.173.303 0 .825.706 1.169 1.171.51.692 1.037 1.408 1.76 1.6.69.185 1.579-.16 2.388-.512.514-.223 1.046-.455 1.386-.455a.32.32 0 01.146.028c.248.143.343 1 .407 1.567.098.866.198 1.763.738 2.303s1.437.64 2.303.738c.566.064 1.424.16 1.566.407.137.235-.203 1.016-.428 1.532-.35.806-.713 1.64-.513 2.389.194.722.91 1.25 1.601 1.76.467.345 1.173.865 1.173 1.168 0 .303-.706.823-1.172 1.166z" fill="#333"/><path d="M11.087 11.739a.652.652 0 00-.652.652v3.26L7.695 12a.65.65 0 00-1.173.391v5.217a.652.652 0 001.304 0v-3.26L10.566 18a.654.654 0 00.727.227.652.652 0 00.446-.619v-5.217a.652.652 0 00-.652-.652zm5.217 5.218h-1.956v-3.913h1.956a.652.652 0 000-1.305h-2.608a.652.652 0 00-.652.652v5.218c0 .36.292.652.652.652h2.608a.652.652 0 000-1.304z" fill="#333"/><path d="M16.304 14.348h-2.608a.652.652 0 000 1.304h2.608a.652.652 0 000-1.304zm7.983-2.589a.649.649 0 00-.79.475l-.761 3.044-.596-1.788c-.178-.532-1.06-.532-1.238 0l-.596 1.788-.76-3.044a.653.653 0 00-1.266.315l1.305 5.218c.07.28.318.482.608.493a.62.62 0 00.644-.445l.685-2.057.684 2.057c.09.267.34.446.62.446l.023-.001a.65.65 0 00.608-.493l1.305-5.218a.65.65 0 00-.475-.79z" fill="#333"/></symbol><symbol fill="none" viewBox="0 0 30 30" id="label-spicy" xmlns="http://www.w3.org/2000/svg"><path d="M.5 2.5v-2h1c.667.167 2.2.7 3 1.5.8.8 1.667 2.333 2 3 .167-.167.9-.5 2.5-.5s2.667 1 3 1.5l3 3.804L16 8l2.5-3 3-.5h2c.667-.667 1.7-2.6 2.5-3 .8-.4 2.5-.333 3-.5v1.5L26 4l-1.5 1.5c.333.667 1 2.1 1 2.5 0 .4-1 2.5-1.5 3.5l-2 4-1.5 3 2.5 4 6 7-2.5-.5c-1.667-.5-5.3-1.6-6.5-2-1.2-.4-3.833-2.167-5-3-1.167.5-3.8 1.8-5 3-1.2 1.2-6.5 2.167-9 2.5L5 25l4.5-7C8.333 15.833 5.8 11 5 9c-1-2.5.5-1.5.5-3.5 0-1.6-3.333-2.667-5-3z" fill="#FF6868"/><path d="M29.41 3.25a.586.586 0 00.585-.585V.585A.586.586 0 0029.409 0c-3.187 0-5.329 2.13-6.712 3.905a4.98 4.98 0 00-2.557-.243 4.98 4.98 0 00-3.114 1.853l-.836 1.071-.006.007c-.42.556-.814 1.1-1.187 1.632a53.916 53.916 0 00-1.187-1.632l-.005-.007-.836-1.071a4.981 4.981 0 00-3.114-1.853 4.98 4.98 0 00-2.557.243C5.915 2.129 3.773 0 .586 0A.586.586 0 000 .586v2.079c0 .323.262.585.586.586 1.397 0 2.734.871 4.186 2.733a4.992 4.992 0 00-.211 4.825l1.106 2.226c.088.192 1.127 2.427 3.185 5.244C6.914 21.361 4.424 24.748.172 29a.586.586 0 00.414 1c3.674 0 7.213-.898 10.519-2.668a26.113 26.113 0 003.893-2.572c4.38 3.477 9.227 5.24 14.411 5.24a.586.586 0 00.415-1 75.764 75.764 0 01-3.032-3.206.586.586 0 00-.876.779c.642.722 1.328 1.46 2.048 2.206-4.296-.292-8.338-1.898-12.043-4.783a31.836 31.836 0 002.582-2.5 35.789 35.789 0 001.885-2.215c.773 1.213 4.708 6.194 5.528 7.292a.585.585 0 10.94-.701c-.886-1.184-4.873-6.253-5.713-7.59 2.05-2.801 3.09-5.04 3.185-5.247l1.106-2.226a4.992 4.992 0 00-.21-4.825c1.451-1.862 2.788-2.733 4.185-2.733zM1.171 2.118v-.915c2.279.238 3.93 1.832 5.065 3.25-.261.176-.5.373-.718.587C4.494 3.763 3.05 2.365 1.172 2.117zm4.61 8.519l-.172-.348a3.823 3.823 0 01.353-3.977c0-.002.002-.003.003-.004A3.812 3.812 0 017.38 5.14a3.791 3.791 0 014.405.797 3.169 3.169 0 00-2.977 2.88h-.164a3.168 3.168 0 00-2.862 1.819zm.87 1.749l.001-.024v-.38c0-1.098.894-1.992 1.992-1.992h.738a.586.586 0 00.586-.585v-.309c0-1.098.894-1.992 1.992-1.992h.761l.157.2a52.8 52.8 0 011.411 1.958c-1.224 1.837-2.215 3.553-3.183 5.23-.515.89-1.033 1.788-1.59 2.708-1.845-2.6-2.865-4.814-2.865-4.814zm16.622.138a.644.644 0 00-.009.019c-.018.04-1.887 4.118-5.623 8.16-3.214 3.476-8.464 7.58-15.61 8.076 3.858-3.996 6.171-7.23 8.013-10.196a126.622 126.622 0 002.076-3.505c1.404-2.43 2.856-4.945 4.995-7.774l.156-.2h.762c1.098 0 1.992.894 1.992 1.992v.308c0 .324.262.586.586.586h.738c1.098 0 1.992.894 1.992 1.992v.38l.001.024-.069.138zm1.111-2.235l-.173.348a3.167 3.167 0 00-2.862-1.818h-.164a3.169 3.169 0 00-2.978-2.881 3.792 3.792 0 014.44-.78 3.811 3.811 0 011.382 1.15l.002.004a3.823 3.823 0 01.353 3.977zm.09-5.249a5.007 5.007 0 00-.717-.588c1.135-1.417 2.786-3.011 5.065-3.249v.915c-1.878.248-3.322 1.646-4.347 2.922z" fill="#333"/></symbol><symbol fill="none" viewBox="0 0 30 30" id="label-vegan" xmlns="http://www.w3.org/2000/svg"><path d="M9.5 14l2-1.5h.5l.5-3L13 7l-1-2.5-2.5-2-5-1.5H1v5l1 5 4 3h3.5zm7.5-2.5l1 3v1l2.5 1.5H24l3-2 1.5-3.5.5-5 .5-2.5H25l-4 1-3.5 2.5-.5 4z" fill="#27AE60"/><path d="M12.061 3.219C9.441.334 4.311 0 .681 0 .305 0 0 .336 0 .75c0 3.997.302 9.645 2.923 12.531 1.106 1.218 2.802 1.762 4.483 1.762 1.827 0 3.638-.643 4.655-1.763 1.952-2.15 2.31-7.519 0-10.061zm-.963 9.001c-1.458 1.604-5.505 1.878-7.21 0C1.772 9.891 1.406 5.158 1.366 1.504c3.319.044 7.616.447 9.732 2.777 1.705 1.878 1.456 6.336 0 7.94zM29.32 2.967c-3.631 0-8.76.333-11.38 3.219-2.311 2.542-1.953 7.91 0 10.06 1.017 1.12 2.826 1.763 4.652 1.763 1.681 0 3.376-.543 4.485-1.761C29.697 13.362 30 7.714 30 3.717c0-.414-.305-.75-.68-.75zm-3.21 12.219c-1.705 1.878-5.754 1.603-7.21 0-1.456-1.604-1.706-6.062 0-7.94 2.115-2.33 6.413-2.733 9.732-2.776-.04 3.655-.406 8.388-2.522 10.716z" fill="#333"/><path d="M24.4 9.459c-.161-.377-.621-.506-.96-.332-5.225 2.705-7.791 7.42-8.957 12.269C13.04 11.088 8.868 7.946 7.098 6.612c-.22-.167-.392-.288-.487-.392a.638.638 0 00-.964 0 .805.805 0 000 1.06c.135.148.368.332.683.57 1.994 1.5 7.292 5.492 7.292 21.4 0 .414.305.75.681.75.376 0 .681-.336.681-.749 0-6.427 1.568-14.9 9.036-18.765l.11-.058c.34-.177.43-.594.27-.97z" fill="#333"/></symbol><symbol fill="none" viewBox="0 0 13 13" id="star" xmlns="http://www.w3.org/2000/svg"><path d="M12.685 4.982a.666.666 0 00-.569-.475l-3.589-.34L7.107.7A.66.66 0 006.5.283a.66.66 0 00-.608.419L4.473 4.168l-3.59.34a.665.665 0 00-.568.474.71.71 0 00.194.732l2.713 2.483-.8 3.677a.705.705 0 00.257.712.634.634 0 00.726.034L6.5 10.688l3.095 1.931c.226.142.512.13.726-.033a.706.706 0 00.257-.712l-.8-3.677 2.714-2.482a.71.71 0 00.193-.733z" fill="#F2C94C"/><path d="M2.91 13a.67.67 0 01-.405-.137.737.737 0 01-.269-.745l.837-3.843L.236 5.679a.741.741 0 01-.202-.766.698.698 0 01.594-.496l3.753-.356L5.865.438A.69.69 0 016.5 0a.69.69 0 01.635.437l1.483 3.624 3.753.356c.277.026.51.22.595.496a.74.74 0 01-.203.765L9.928 8.274l.836 3.843a.736.736 0 01-.269.744.666.666 0 01-.759.036L6.5 10.879l-3.236 2.019A.664.664 0 012.91 13zm3.59-2.99a.67.67 0 01.354.102l3.054 1.906-.79-3.629a.74.74 0 01.22-.702l2.678-2.452L8.473 4.9a.691.691 0 01-.574-.437L6.5 1.044l-1.4 3.42a.69.69 0 01-.574.435l-3.542.336 2.678 2.451a.74.74 0 01.218.703l-.789 3.629 3.054-1.906a.674.674 0 01.355-.103zM4.352 4.131zm4.295-.002z" fill="#333"/></symbol><symbol fill="none" viewBox="0 0 30 18" id="vk" xmlns="http://www.w3.org/2000/svg"><path d="M5.5 1.5h-5C1.333 3.333 4.2 8.4 7 12c2.8 3.6 5.167 4.167 6 4h3.5l.5-2.5c.167-.333.8-1 2-1s3.833 2.667 5 4l5-.5c-1.167-1.333-3.6-4.1-4-4.5-.5-.5-.5-1-.5-2 0-.8 3.333-5.667 5-8h-6c-.4 2.4-2.833 5.667-4 7-.333.333-1.3.8-2.5 0S16.5 3 17 1h-5.5l1 3c.4 1.2-.167 3.167-.5 4-.167.5-.8 1.4-2 1-1.2-.4-3.5-5.333-4.5-7.5z" fill="#EF6135"/><path d="M5.774 1.767l.006.014.025.061.093.227c.082.193.2.467.346.79A26.68 26.68 0 007.42 5.176c.898 1.551 1.586 2.553 2.153 3.127.284.287.58.511.898.62.35.118.69.084.99-.08h0c.262-.142.425-.376.53-.582a3.09 3.09 0 00.24-.697c.111-.486.163-1.06.186-1.59a20.222 20.222 0 00-.02-2.025l-.002-.025v-.05a6.832 6.832 0 00-.054-.792c-.054-.437-.177-1.087-.509-1.538a2.102 2.102 0 00-.82-.648c.283-.121.703-.205 1.277-.25.609-.049 1.328-.05 2.132-.042h0c1.215.013 1.53.087 1.972.193.27.066.37.155.424.233.07.1.134.28.16.642.027.361.013.818-.01 1.426l-.007.148c-.023.567-.05 1.236-.05 2.008 0 .139-.004.302-.009.478-.01.409-.024.889.011 1.305.05.583.206 1.35.845 1.763h0c.229.148.515.199.825.117.283-.075.56-.252.843-.507.563-.508 1.304-1.471 2.315-3.189.493-.836.92-1.74 1.223-2.428a29.411 29.411 0 00.454-1.092l.024-.061.005-.01a1.062 1.062 0 01.117-.169.259.259 0 01.034-.031.334.334 0 01.114-.023.623.623 0 01.086 0l.035.005h.042l4.508-.026h.034l.032-.004h.001l.007-.001a1.895 1.895 0 01.164-.011 2.96 2.96 0 01.405.009 1.173 1.173 0 01.369.088v.04a1 1 0 01-.034.23c-.05.209-.157.487-.338.846-.363.717-.984 1.673-1.898 2.89l.48.36-.48-.36c-.37.493-.713.938-1.015 1.329-.294.38-.549.71-.751.985-.41.558-.739 1.06-.843 1.554-.123.58.07 1.054.41 1.494.296.383.757.81 1.32 1.333l.1.093h0c1.18 1.095 1.88 1.898 2.292 2.433.34.444.48.698.548.823l.033.058v.002c.204.338.186.492.177.528-.007.03-.032.085-.148.154a1.45 1.45 0 01-.428.153 2.078 2.078 0 01-.217.034l-3.988.055-.054.001-.045.01h-.004a1.625 1.625 0 01-.37-.015c-.271-.042-.684-.162-1.172-.498-.318-.218-.651-.539-1.003-.92-.21-.226-.4-.446-.595-.669-.146-.167-.293-.336-.45-.512-.342-.378-.708-.758-1.08-1.018-.36-.253-.86-.486-1.405-.313h0c-.478.152-.788.51-.984.86a3.875 3.875 0 00-.383 1.106 7.013 7.013 0 00-.134 1.339v.034h0v.006c0 .007 0 .02-.002.036a1.163 1.163 0 01-.016.135.744.744 0 01-.059.183.083.083 0 01-.008.012l-.001.002a.619.619 0 01-.248.124 1.367 1.367 0 01-.172.041H14.66l-.016.001h0-.001 0-.003l-.024.001c-.024 0-.061.002-.112.001a6.01 6.01 0 01-.45-.02 8.839 8.839 0 01-1.63-.296c-1.34-.37-3.1-1.169-4.756-2.893-1.84-1.917-3.597-4.808-4.906-7.256A66.834 66.834 0 01.781 1.946a8.7 8.7 0 01-.111-.252L.642 1.63.64 1.628a.855.855 0 01-.038-.172.911.911 0 01.146-.04 1.714 1.714 0 01.235-.032h.008l4.213-.026c.03.007.07.017.117.032.108.034.212.08.28.13l.001.001a.53.53 0 01.117.144.993.993 0 01.054.102zm0 0h0l.001.002h0v-.002zm17.66-.113v-.003h0v.003zm.357-.247l.08-.595-.08.595h0zm-13.274-.112l.002-.002-.002.002zm18.897.185l-.002-.002.002.002zM17.534 15.9l-.6.008h0l.6-.008z" stroke="#333" stroke-width="1.2"/></symbol></svg>