<svg width="160" height="64" viewBox="0 0 160 64" fill="none" xmlns="http://www.w3.org/2000/svg">
<path d="M7.14581 33.1872H10.1452V31.1953H1.14323C0.877493 31.1958 0.622859 31.3011 0.435307 31.4878C0.247756 31.6746 0.14264 31.9276 0.143068 32.1912C0.143068 46.2839 11.4555 57.747 25.5287 58.0717V56.0798C12.9361 55.7546 2.68781 45.7817 2.14285 33.1872H5.14226C5.66948 43.9327 14.306 52.5263 25.0993 53.0536C25.2438 53.0621 25.3884 53.0664 25.5292 53.0706V51.0979C15.7522 50.7999 7.67787 43.0844 7.14581 33.1872ZM25.1498 7.29387V31.1953H16.1478V33.1872H25.5287V6.51758C25.4103 6.60992 25.3146 6.72783 25.2491 6.86235C25.1835 6.99687 25.1497 7.14445 25.1503 7.29387H25.1498Z" fill="#333333"/>
<path d="M22.0487 45.953C24.159 45.953 25.8698 44.2499 25.8698 42.1489C25.8698 40.0479 24.159 38.3447 22.0487 38.3447C19.9383 38.3447 18.2275 40.0479 18.2275 42.1489C18.2275 44.2499 19.9383 45.953 22.0487 45.953Z" fill="#333333"/>
<path d="M13.0022 37.6678C13.4166 37.6678 13.7525 37.3333 13.7525 36.9208C13.7525 36.5083 13.4166 36.1738 13.0022 36.1738C12.5879 36.1738 12.252 36.5083 12.252 36.9208C12.252 37.3333 12.5879 37.6678 13.0022 37.6678Z" fill="#333333"/>
<path d="M11.5015 19.435C12.0206 19.435 12.4415 19.0158 12.4415 18.4987C12.4415 17.9817 12.0206 17.5625 11.5015 17.5625C10.9824 17.5625 10.5615 17.9817 10.5615 18.4987C10.5615 19.0158 10.9824 19.435 11.5015 19.435Z" fill="#333333"/>
<path d="M22.0057 27.7098V7.79381C22.0061 7.53018 21.901 7.27717 21.7135 7.09041C21.5259 6.90365 21.2713 6.79842 21.0055 6.79785C9.40453 6.79785 2.30956e-06 16.1603 2.30956e-06 27.7098C-0.000280264 27.8403 0.0253694 27.9697 0.0754859 28.0904C0.125602 28.2111 0.199204 28.3208 0.292084 28.4133C0.384965 28.5058 0.495305 28.5792 0.6168 28.6294C0.738295 28.6796 0.868564 28.7055 1.00016 28.7057H21.0055C21.2713 28.7052 21.5259 28.5999 21.7135 28.4132C21.901 28.2264 22.0061 27.9734 22.0057 27.7098ZM9.93766 26.7138C9.93766 25.9078 10.2604 25.1348 10.8349 24.5649C11.4094 23.9949 12.1886 23.6748 13.001 23.6748C13.8135 23.6748 14.5927 23.9949 15.1671 24.5649C15.7416 25.1348 16.0644 25.9078 16.0644 26.7138H9.93766ZM6.03644 26.7138C6.5384 19.2495 12.5082 13.3068 20.0048 12.8077V26.7138H18.0647C18.0263 25.4338 17.4978 24.2164 16.5866 23.3093C15.6755 22.4022 14.4502 21.8736 13.1601 21.8311C10.3655 21.7436 8.02494 23.9296 7.9368 26.7138H6.03644ZM20.0048 8.81909V10.811C11.4 11.3133 4.53647 18.1469 4.02591 26.7138H2.02558C2.5528 17.0549 10.3026 9.3416 20.0048 8.81909Z" fill="#333333"/>
<path d="M12.2519 31.1943C11.9866 31.1955 11.7325 31.301 11.5455 31.4877C11.3585 31.6744 11.2538 31.9271 11.2544 32.1903C11.2542 32.3208 11.2799 32.4501 11.33 32.5707C11.3802 32.6914 11.4538 32.8011 11.5467 32.8935C11.6395 32.9859 11.7499 33.0593 11.8713 33.1095C11.9928 33.1596 12.123 33.1855 12.2546 33.1857C12.3861 33.1855 12.5163 33.1596 12.6378 33.1095C12.7593 33.0593 12.8696 32.9859 12.9624 32.8935C13.0553 32.8011 13.1289 32.6914 13.1791 32.5707C13.2292 32.4501 13.2549 32.3208 13.2547 32.1903C13.255 32.0595 13.2293 31.93 13.179 31.8091C13.1287 31.6882 13.0549 31.5783 12.9617 31.4858C12.8685 31.3933 12.7579 31.3199 12.6361 31.2699C12.5143 31.2199 12.3837 31.1942 12.2519 31.1943Z" fill="#333333"/>
<path d="M134.244 5.95117V32.9764C134.459 32.9192 134.649 32.7931 134.785 32.6176C134.92 32.4421 134.993 32.2271 134.993 32.006V26.3886C135.321 26.4598 135.656 26.4955 135.992 26.4952C138.754 26.4952 140.996 24.25 140.996 21.4834C140.996 18.7168 138.754 16.4716 135.992 16.4716C135.657 16.4622 135.322 16.489 134.993 16.5516V12.9629C136.232 13.0285 137.462 13.2159 138.665 13.5222C148.841 16.1054 155.002 26.4627 152.423 36.6617C151.684 36.244 150.848 36.0236 149.998 36.0219C149.114 36.0217 148.245 36.2546 147.481 36.6965C146.717 37.1385 146.085 37.7737 145.65 38.5373C144.276 40.9366 145.101 43.9986 147.496 45.379C144.182 48.7497 139.711 50.7616 134.971 51.0156C134.725 51.0279 134.482 51.0364 134.244 51.0364V53.0246C145.255 52.8934 154.401 44.1825 154.945 33.0105C155.511 21.3997 146.577 11.5238 134.993 10.9576V7.95268C148.249 8.22727 158.775 19.2217 158.498 32.5083C158.222 45.7101 147.385 56.2023 134.244 56.0631V58.0636C148.492 57.9351 160 46.312 160 32.006C160 17.7001 148.492 6.08286 134.244 5.95117ZM137.039 18.655C138.597 19.2207 139.4 20.9476 138.838 22.5087C138.706 22.8786 138.502 23.2189 138.237 23.5099C137.972 23.8009 137.651 24.0368 137.293 24.204C136.936 24.3712 136.548 24.4664 136.153 24.484C135.758 24.5016 135.364 24.4413 134.992 24.3066V18.655C135.653 18.4147 136.379 18.4151 137.039 18.656L137.039 18.655ZM148.887 43.8205C148.329 43.5946 147.851 43.2089 147.515 42.7125C147.178 42.2162 146.999 41.6317 146.998 41.0336C146.998 39.3707 148.339 38.0244 149.998 38.0202C150.653 38.0192 151.289 38.2354 151.806 38.6344C151.109 40.5017 150.124 42.2508 148.888 43.8194L148.887 43.8205Z" fill="#333333"/>
<path d="M138.349 38.531C139.045 38.531 139.609 37.9655 139.609 37.268C139.609 36.5704 139.045 36.0049 138.349 36.0049C137.653 36.0049 137.089 36.5704 137.089 37.268C137.089 37.9655 137.653 38.531 138.349 38.531Z" fill="#333333"/>
<path d="M145.851 30.1023C146.873 30.1023 147.701 29.272 147.701 28.2479C147.701 27.2238 146.873 26.3936 145.851 26.3936C144.829 26.3936 144 27.2238 144 28.2479C144 29.272 144.829 30.1023 145.851 30.1023Z" fill="#333333"/>
<path d="M134.377 6.6116V57.3884C133.634 57.3881 132.898 57.5331 132.212 57.815C131.525 58.0969 130.902 58.5102 130.376 59.0313C129.851 59.5525 129.434 60.1712 129.15 60.8522C128.866 61.5331 128.72 62.263 128.72 63H31.1841C31.1843 62.263 31.0382 61.5332 30.7541 60.8522C30.4699 60.1712 30.0533 59.5525 29.5279 59.0314C29.0026 58.5102 28.379 58.0969 27.6926 57.815C27.0062 57.5331 26.2705 57.3881 25.5276 57.3884V6.6116C27.0277 6.61131 28.4663 6.02 29.527 4.96769C30.5877 3.91537 31.1838 2.4882 31.1841 1H128.72C128.72 2.48825 129.317 3.91542 130.377 4.96772C131.438 6.02002 132.877 6.61131 134.377 6.6116Z" fill="#FA231D" stroke="#333333" stroke-width="1.3" stroke-miterlimit="10"/>
<path fill-rule="evenodd" clip-rule="evenodd" d="M32.103 7.51465H41.2431C42.3609 7.51788 43.4321 7.9599 44.2225 8.74412C45.0129 9.52835 45.4583 10.591 45.4614 11.7V42.2218C45.4586 43.3308 45.0132 44.3937 44.2228 45.178C43.4323 45.9623 42.361 46.4042 41.2431 46.4071H32.0901L32.103 7.51465ZM119.034 7.51465H123.59C124.708 7.51774 125.779 7.95968 126.569 8.7439C127.36 9.52813 127.806 10.5909 127.809 11.7V42.2218C127.806 43.3309 127.36 44.3938 126.57 45.178C125.779 45.9623 124.708 46.4042 123.59 46.4071H119.034C117.916 46.4045 116.844 45.9627 116.054 45.1784C115.263 44.3941 114.817 43.3311 114.814 42.2218V11.7C114.817 10.5908 115.263 9.52783 116.054 8.74356C116.845 7.95929 117.916 7.51746 119.034 7.51465ZM121.311 11.5043C120.628 11.5043 120.159 11.8429 120.159 12.2582L120.142 41.6641C120.142 42.0794 120.683 42.4174 121.311 42.4174C121.927 42.4174 122.464 42.0794 122.464 41.6641L122.481 12.2582C122.481 11.8429 121.96 11.5043 121.311 11.5043ZM104.803 7.51465H109.809V46.4071H104.803V7.51465ZM76.7905 46.4071H81.7977V7.51465H76.7905V29.8299L73.4729 7.51465H68.4662V46.4071H73.4729V23.4223L76.7905 46.4071ZM91.0217 7.51465H95.5775C96.6953 7.51788 97.7665 7.9599 98.5569 8.74412C99.3473 9.52835 99.7927 10.591 99.7958 11.7V21.4378H94.4639V12.2582C94.4639 11.8429 93.9566 11.5043 93.2982 11.5043C92.6619 11.5043 92.1417 11.8429 92.1417 12.2582L92.1524 41.6641C92.1524 42.0794 92.6323 42.4174 93.2982 42.4174C93.991 42.4174 94.4639 42.0794 94.4639 41.6641V28.8894L93.2982 28.8942V24.0061H99.7958V42.2218C99.7929 43.3308 99.3476 44.3937 98.5572 45.178C97.7667 45.9623 96.6954 46.4042 95.5775 46.4071H91.0211C89.9031 46.4043 88.8317 45.9625 88.0411 45.1782C87.2505 44.3939 86.8051 43.3309 86.8023 42.2218V11.7C86.8054 10.5909 87.2509 9.52817 88.0414 8.74393C88.8319 7.95969 89.9032 7.51774 91.0211 7.51465H91.0217ZM54.6848 7.51465H59.2417C60.3596 7.51788 61.4307 7.9599 62.2211 8.74412C63.0115 9.52835 63.4569 10.591 63.46 11.7V42.2218C63.4572 43.3308 63.0118 44.3937 62.2214 45.178C61.4309 45.9623 60.3596 46.4042 59.2417 46.4071H54.6848C53.5669 46.4042 52.4957 45.9622 51.7053 45.1779C50.9149 44.3936 50.4697 43.3308 50.467 42.2218V11.7C50.47 10.5911 50.9153 9.52839 51.7056 8.74415C52.4959 7.95992 53.567 7.51788 54.6848 7.51465ZM56.9635 11.5043C56.246 11.5043 55.8102 11.8429 55.8102 12.2582L55.8209 41.6641C55.8209 42.0794 56.246 42.4174 56.9635 42.4174C57.645 42.4174 58.1324 42.0794 58.1324 41.6641L58.1486 12.2582C58.1486 11.8429 57.6939 11.5043 56.9662 11.5043H56.9635ZM37.4246 11.5043L37.4413 42.4174H38.9638C39.6733 42.4174 40.079 42.1509 40.079 41.6641V12.2582C40.079 11.7869 39.7259 11.5043 38.9638 11.5043H37.4246Z" fill="white"/>
<path d="M66.863 50.8281H69.2697C70.0407 50.8281 70.6381 51.0144 71.062 51.3869C71.5059 51.7736 71.7279 52.3224 71.7279 53.0333C71.7279 53.6969 71.5331 54.2287 71.1437 54.6285C70.7478 55.0277 70.1675 55.2275 69.4029 55.2278H68.4399V57.6052H66.863V50.8281ZM68.4399 52.1077V53.9466H69.0031C69.3929 53.9466 69.6763 53.8619 69.8533 53.6923C70.0242 53.5231 70.1097 53.2997 70.1097 53.0221C70.1097 52.7378 70.0242 52.5176 69.8533 52.3615C69.676 52.1927 69.3823 52.1081 68.9725 52.1077H68.4399Z" fill="#FFFBFB"/>
<path d="M72.7517 50.8281H74.3291V57.6052H72.7517V50.8281Z" fill="#FFFBFB"/>
<path d="M81.1911 50.8281L77.924 56.2846H80.8519V57.6052H75.3325L78.6109 52.1493H75.8656V50.8281H81.1911Z" fill="#FFFBFB"/>
<path d="M87.4999 50.8281L84.2328 56.2846H87.1618V57.6052H81.6418L84.9202 52.1493H82.1755V50.8281H87.4999Z" fill="#FFFBFB"/>
<path d="M92.998 57.6052L92.4858 56.3256H89.9061L89.3837 57.6052H87.7451L90.5 50.8281H91.9441L94.6377 57.6052H92.998ZM90.3646 55.1265H92.0548L91.2148 52.8504L90.3646 55.1265Z" fill="#FFFBFB"/>
</svg>
