<svg width="24" height="25" viewBox="0 0 24 25" fill="none" xmlns="http://www.w3.org/2000/svg">
<path d="M11 23.5V16.5H8.5V11.5H11.5V11C11.3333 10 11.4 7.5 13 5.5C14.6 3.5 18.3333 3.66667 20 4V9H17V11.5H21L19 16.5H17V23.5H20.5C22.5 23.5 23.3333 22.1667 23.5 21.5V3.5C23.5 1.5 22.1667 0.666667 21.5 0.5H3.5C1.5 0.5 0.666667 1.83333 0.5 2.5V20C0.5 21.5 1 23.5 3 23.5H11Z" fill="#EF6135"/>
<path d="M20.25 11.4586H17.1V9.05859C17.1 9.00366 17.1048 8.96889 17.109 8.94881C17.1114 8.94801 17.114 8.94717 17.1168 8.94629C17.1742 8.92853 17.2711 8.91419 17.4351 8.90905C17.545 8.9056 17.6553 8.90648 17.7827 8.90749C17.8496 8.90802 17.9212 8.90859 18 8.90859H19.5H20.1V8.30859V4.55859V3.95859H19.5H16.5C13.6831 3.95859 11.4 6.24172 11.4 9.05859V11.4586H9H8.4V12.0586V15.8086V16.4086H9H11.4V23.4586H3C1.67687 23.4586 0.6 22.3817 0.6 21.0586V3.05859C0.6 1.73546 1.67687 0.658594 3 0.658594H21C22.3231 0.658594 23.4 1.73546 23.4 3.05859V21.0586C23.4 22.3817 22.3231 23.4586 21 23.4586H17.1V16.4086H18.75H19.1562L19.3071 16.0314L20.8071 12.2814L21.1362 11.4586H20.25ZM17.1157 8.92602C17.1157 8.92603 17.1155 8.92638 17.1152 8.92706L17.1157 8.92602Z" stroke="#333333" stroke-width="1.2"/>
</svg>
