<svg width="26" height="26" viewBox="0 0 26 26" fill="none" xmlns="http://www.w3.org/2000/svg">
<path fill-rule="evenodd" clip-rule="evenodd" d="M5 1.5C4.5 1.5 2.5 1.5 2 2.5C1.6 3.3 1.5 16.5 1.5 23C1.66667 23.5 2.7 24.5 5.5 24.5H22.5C23.1667 24.5 24.5 24.1 24.5 22.5V3C24.5 2.5 23.7 1.5 20.5 1.5H5ZM13 20C16.866 20 20 16.866 20 13C20 9.13401 16.866 6 13 6C9.13401 6 6 9.13401 6 13C6 16.866 9.13401 20 13 20Z" fill="#EF6135"/>
<path d="M25.1 3.80448C25.1 3.03416 24.794 2.2954 24.2493 1.7507C23.7046 1.20601 22.9658 0.9 22.1955 0.9H3.80448C3.03416 0.9 2.2954 1.20601 1.7507 1.7507C1.20601 2.2954 0.9 3.03416 0.9 3.80448V22.1953C0.89997 22.5767 0.975074 22.9544 1.12102 23.3069C1.26697 23.6593 1.48091 23.9795 1.75062 24.2492C2.02033 24.5189 2.34053 24.7329 2.69293 24.8789C3.04533 25.0249 3.42304 25.1 3.80448 25.1H22.1953C22.5767 25.1 22.9544 25.0249 23.3069 24.879C23.6593 24.733 23.9795 24.5191 24.2492 24.2494C24.5189 23.9797 24.7329 23.6595 24.8789 23.3071C25.0249 22.9547 25.1 22.577 25.1 22.1955V3.80448ZM22.1902 24.0193H3.80978C3.32513 24.0178 2.86073 23.8247 2.51803 23.482C2.17537 23.1393 1.98221 22.675 1.98073 22.1904V8.47615H7.44465C6.5 9.72772 5.9367 11.24 5.9367 12.9059C5.9367 16.9147 9.19792 20.1788 13.2069 20.1788C17.2158 20.1788 20.477 16.9133 20.477 12.9046C20.477 11.2386 19.9135 9.7276 18.9691 8.47615H24.0193V22.1902C24.0178 22.6749 23.8247 23.1393 23.482 23.482C23.1393 23.8247 22.6749 24.0178 22.1902 24.0193ZM13.207 6.72189C14.4312 6.72192 15.6278 7.08495 16.6456 7.76507C17.6635 8.44519 18.4568 9.41186 18.9252 10.5428C19.3936 11.6738 19.5162 12.9183 19.2774 14.1189C19.0385 15.3195 18.449 16.4224 17.5834 17.2879C16.7178 18.1535 15.615 18.743 14.4143 18.9818C13.2137 19.2206 11.9692 19.0981 10.8383 18.6296C9.70731 18.1611 8.74066 17.3678 8.06055 16.35C7.38047 15.3322 7.01746 14.1356 7.01743 12.9115C7.01928 11.2705 7.67198 9.69722 8.83235 8.53684C9.99271 7.37647 11.566 6.72375 13.207 6.72189H13.207ZM3.80962 1.98073H22.1904C22.675 1.98221 23.1393 2.17537 23.482 2.51803C23.8247 2.86073 24.0178 3.32513 24.0193 3.80978V7.39541H17.9504C16.6327 6.25706 14.9491 5.63027 13.2069 5.63027C11.4647 5.63027 9.78111 6.25706 8.46336 7.39541H1.98073V3.80962C1.98221 3.32503 2.17537 2.8607 2.51803 2.51803C2.8607 2.17537 3.32503 1.98221 3.80962 1.98073Z" fill="#333333" stroke="#333333" stroke-width="0.2"/>
</svg>
