<svg width="30" height="30" viewBox="0 0 30 30" fill="none" xmlns="http://www.w3.org/2000/svg">
<mask id="mask0" mask-type="alpha" maskUnits="userSpaceOnUse" x="0" y="0" width="30" height="30">
<rect width="30" height="30" fill="#C4C4C4"/>
</mask>
<g mask="url(#mask0)">
<path d="M10.8084 1.07437L14.6314 2.40635L18.3991 0.925L21.0439 3.99003L25.0475 4.59097L25.8054 8.56777L28.9722 11.09L27.6402 14.913L29.1215 18.6806L26.0565 21.3255L25.4556 25.329L21.4787 26.087L18.9565 29.2537L15.1335 27.9217L11.3659 29.4031L8.72105 26.3381L4.7175 25.7371L3.95952 21.7603L0.792813 19.2381L2.12478 15.4151L0.64344 11.6475L3.70846 9.00261L4.30941 4.99906L8.28621 4.24108L10.8084 1.07437Z" fill="#D6ABFF"/>
<path d="M20.8839 13.3176C20.7834 13.2132 20.6509 13.1453 20.5075 13.1245H20.514L17.1012 12.6287L15.5808 9.53631C15.42 9.21386 15.0282 9.08272 14.7056 9.24346C14.5788 9.30666 14.4759 9.40949 14.4127 9.53631L12.8858 12.6287L9.47297 13.1245C9.11677 13.1794 8.87255 13.5125 8.92736 13.8687C8.94922 14.0103 9.01709 14.1409 9.1206 14.2401L11.5872 16.6475L11.0065 20.0465C10.9474 20.402 11.1877 20.738 11.5433 20.797C11.6832 20.8203 11.8269 20.7973 11.9527 20.7315L14.9936 19.1266L18.0475 20.7315C18.3668 20.8985 18.7611 20.7751 18.9282 20.4559C18.9939 20.3302 19.0169 20.1864 18.9937 20.0465L18.4129 16.6475L20.8665 14.2401C21.126 13.9902 21.1338 13.5772 20.8839 13.3176ZM17.2513 15.9494C17.098 16.0982 17.0273 16.3127 17.0621 16.5235L17.4797 18.957L15.2937 17.8088C15.1037 17.709 14.8768 17.709 14.6868 17.8088L12.5008 18.957L12.9184 16.5235C12.9532 16.3127 12.8824 16.0982 12.7292 15.9494L10.9608 14.2271L13.4013 13.8748C13.6135 13.8429 13.7965 13.7087 13.8907 13.516L14.9935 11.3043L16.0832 13.516C16.1775 13.7087 16.3604 13.8429 16.5727 13.8748L19.0132 14.2271L17.2513 15.9494Z" fill="#333333"/>
<path d="M29.9433 18.5458L28.325 14.9902L29.9237 11.415C30.0514 11.1338 29.9642 10.8015 29.7149 10.6191L26.5435 8.32266L26.1455 4.40825C26.1132 4.10186 25.8712 3.85982 25.5647 3.82761L21.6494 3.42312L19.3655 0.272018C19.1849 0.0204355 18.8523 -0.0695144 18.5694 0.0567254L14.9935 1.66163L11.4175 0.0567254C11.1347 -0.0695144 10.802 0.0204355 10.6214 0.272018L8.32448 3.44269L4.40921 3.84718C4.10276 3.8794 3.86066 4.12144 3.82845 4.42782L3.43039 8.34223L0.272077 10.6191C0.02044 10.7997 -0.0695296 11.1322 0.0567378 11.415L1.662 14.9902L0.0567378 18.5654C-0.0695296 18.8482 0.02044 19.1808 0.272077 19.3613L3.44344 21.6578L3.8415 25.5722C3.87372 25.8786 4.11581 26.1206 4.42226 26.1528L8.33753 26.5573L10.6345 29.728C10.8151 29.9796 11.1477 30.0695 11.4306 29.9433L14.9935 28.3188L18.5694 29.9237C18.8523 30.0499 19.1849 29.96 19.3655 29.7084L21.6625 26.5377L25.5778 26.1332C25.8842 26.101 26.1263 25.859 26.1585 25.5526L26.5566 21.6382L29.7279 19.3417C29.9795 19.1611 30.0695 18.8285 29.9433 18.5458ZM25.5386 20.764C25.3873 20.873 25.2899 21.0417 25.2711 21.2272L24.8926 24.8872L21.2318 25.2655C21.0462 25.2844 20.8776 25.3818 20.7685 25.533L18.6151 28.5145L15.2545 27.0075C15.0843 26.931 14.8896 26.931 14.7194 27.0075L11.3588 28.5145L9.20541 25.533C9.09627 25.3818 8.92767 25.2844 8.74211 25.2655L5.08133 24.8872L4.70286 21.2272C4.68401 21.0417 4.58662 20.873 4.43531 20.764L1.45318 18.611L2.96056 15.2577C3.03707 15.0876 3.03707 14.8928 2.96056 14.7227L1.45318 11.3694L4.43531 9.21645C4.58662 9.10734 4.68401 8.93878 4.70286 8.75325L5.08133 5.09327L8.74211 4.71488C8.92767 4.69604 9.09627 4.59867 9.20541 4.44739L11.3588 1.46591L14.7194 2.97296C14.8896 3.04946 15.0843 3.04946 15.2545 2.97296L18.6151 1.46591L20.7685 4.44739C20.8776 4.59867 21.0462 4.69604 21.2318 4.71488L24.8926 5.09327L25.2711 8.75325C25.2899 8.93878 25.3873 9.10734 25.5386 9.21645L28.5207 11.3694L27.0134 14.7227C26.9368 14.8928 26.9368 15.0876 27.0134 15.2577L28.5207 18.611L25.5386 20.764Z" fill="#333333"/>
<path d="M14.9935 4.84619C9.38945 4.84619 4.84644 9.38822 4.84644 14.991C4.84644 20.5939 9.38945 25.1359 14.9935 25.1359C20.5976 25.1359 25.1406 20.5939 25.1406 14.991C25.1333 9.39115 20.5945 4.85337 14.9935 4.84619ZM14.9935 23.8311C10.1102 23.8311 6.15152 19.8733 6.15152 14.991C6.15152 10.1088 10.1102 6.151 14.9935 6.151C19.8768 6.151 23.8355 10.1088 23.8355 14.991C23.8282 19.8703 19.8738 23.8238 14.9935 23.8311Z" fill="#333333"/>
</g>
</svg>
