<svg width="30" height="18" viewBox="0 0 30 18" fill="none" xmlns="http://www.w3.org/2000/svg">
<path d="M5.5 1.5H0.5C1.33333 3.33333 4.2 8.4 7 12C9.8 15.6 12.1667 16.1667 13 16H16.5L17 13.5C17.1667 13.1667 17.8 12.5 19 12.5C20.2 12.5 22.8333 15.1667 24 16.5L29 16C27.8333 14.6667 25.4 11.9 25 11.5C24.5 11 24.5 10.5 24.5 9.5C24.5 8.7 27.8333 3.83333 29.5 1.5H23.5C23.1 3.9 20.6667 7.16667 19.5 8.5C19.1667 8.83333 18.2 9.3 17 8.5C15.8 7.7 16.5 3 17 1H11.5L12.5 4C12.9 5.2 12.3333 7.16667 12 8C11.8333 8.5 11.2 9.4 10 9C8.8 8.6 6.5 3.66667 5.5 1.5Z" fill="#EF6135"/>
<path d="M5.77429 1.76655L5.78014 1.7812L5.80484 1.8423C5.82637 1.89522 5.85789 1.97193 5.89849 2.06866C5.97965 2.26205 6.09725 2.53588 6.24392 2.85989C6.53642 3.50605 6.94827 4.36012 7.42044 5.17604C8.3176 6.72704 9.00617 7.72919 9.57328 8.30309C9.85682 8.59004 10.1521 8.81407 10.4708 8.92227C10.8208 9.04111 11.1612 9.00676 11.4613 8.84332L11.4617 8.84313C11.7227 8.70076 11.8861 8.46688 11.9906 8.26136C12.0985 8.04906 12.1743 7.80585 12.2302 7.56352C12.3421 7.07796 12.394 6.50385 12.4168 5.97333C12.4397 5.43743 12.4339 4.92046 12.4225 4.53933C12.4168 4.34819 12.4097 4.18991 12.4039 4.07886C12.4011 4.0233 12.3985 3.9795 12.3967 3.94923L12.3951 3.92363C12.3951 3.91105 12.3951 3.89404 12.3948 3.87305C12.3943 3.82811 12.393 3.76468 12.39 3.68715C12.3838 3.53282 12.3704 3.31909 12.341 3.08227C12.2867 2.64525 12.1639 1.99469 11.8322 1.54435C11.6 1.22828 11.2927 1.02604 11.0129 0.89595C11.2948 0.774724 11.7153 0.691174 12.2895 0.645627C12.8979 0.597364 13.6165 0.595433 14.4214 0.603876L14.4214 0.603876C15.6359 0.616584 15.9507 0.690891 16.3929 0.797209C16.6638 0.862537 16.763 0.952023 16.8172 1.0298C16.8864 1.12915 16.9508 1.30926 16.9777 1.67241C17.0045 2.03295 16.9903 2.49023 16.9661 3.09833C16.9641 3.14679 16.9622 3.19604 16.9601 3.2461C16.9374 3.81269 16.9105 4.48191 16.9105 5.25429C16.9105 5.39282 16.9061 5.55584 16.9013 5.73234C16.8903 6.14052 16.8774 6.6208 16.9123 7.0369C16.9613 7.6203 17.1176 8.3867 17.7567 8.79971L17.7569 8.79982C17.9859 8.94766 18.2723 8.99881 18.5823 8.91697C18.8649 8.84237 19.1426 8.66479 19.4246 8.41032C19.9883 7.90186 20.729 6.93872 21.7401 5.2214C22.2333 4.38465 22.6608 3.48139 22.9632 2.79314C23.115 2.44772 23.2366 2.15361 23.3204 1.94527C23.3623 1.84105 23.3948 1.75816 23.417 1.70089L23.4406 1.63966C23.4422 1.63672 23.4439 1.63337 23.4459 1.62967C23.4573 1.60877 23.4744 1.57914 23.4959 1.54714C23.5179 1.51455 23.5408 1.48493 23.5627 1.46136C23.5809 1.44189 23.5927 1.43267 23.5967 1.42974C23.609 1.42366 23.6465 1.41098 23.7108 1.40691C23.7401 1.40505 23.7657 1.40559 23.7824 1.4065C23.7892 1.40687 23.7941 1.40726 23.7965 1.40749L23.8324 1.41233L23.8744 1.41208L28.3822 1.38583L28.4161 1.38563L28.4484 1.38178L28.4488 1.38174L28.4491 1.38171L28.4491 1.3817L28.4494 1.38167L28.4496 1.38164L28.4557 1.381C28.4625 1.3803 28.4736 1.3792 28.4887 1.37791C28.5189 1.37532 28.5641 1.37202 28.6196 1.36965C28.7326 1.36483 28.879 1.36432 29.0252 1.37873C29.1775 1.39373 29.2953 1.42178 29.3697 1.45512C29.3795 1.45952 29.3874 1.46346 29.3936 1.46682C29.3945 1.47714 29.3951 1.49053 29.3948 1.50742C29.394 1.5596 29.3852 1.63497 29.3602 1.73764C29.3097 1.94552 29.203 2.22446 29.0215 2.58316C28.6588 3.2996 28.0378 4.25641 27.1244 5.47359L27.6043 5.83371L27.1244 5.47361C26.7546 5.96646 26.4112 6.41086 26.1091 6.80182C25.815 7.18248 25.56 7.51248 25.3579 7.78724C24.9474 8.34511 24.6194 8.84614 24.5145 9.34073C24.3915 9.92098 24.5855 10.3948 24.9254 10.8352C25.2209 11.2181 25.6819 11.6458 26.2454 12.1685C26.2782 12.1989 26.3113 12.2297 26.3448 12.2607L26.3448 12.2608C27.5249 13.3561 28.2259 14.1593 28.6367 14.6944C28.9772 15.1378 29.1166 15.3923 29.1847 15.5166C29.198 15.541 29.2086 15.5604 29.2175 15.5752L29.2188 15.5773C29.4221 15.9146 29.4036 16.0688 29.3952 16.1046C29.3881 16.1354 29.3631 16.1897 29.2468 16.2591C29.1273 16.3303 28.9688 16.3806 28.8191 16.4119C28.7482 16.4268 28.6873 16.4357 28.6455 16.4408C28.6263 16.4431 28.6115 16.4446 28.602 16.4455L24.6144 16.5015L24.5598 16.5022L24.5148 16.5111C24.5138 16.5113 24.5125 16.5115 24.5109 16.5117C24.5007 16.5129 24.4791 16.5151 24.4473 16.5164C24.3836 16.5189 24.2791 16.5174 24.1417 16.4964C23.8697 16.4547 23.4574 16.3347 22.9694 15.9994C22.651 15.7806 22.318 15.4601 21.9659 15.0791C21.7567 14.8527 21.5653 14.633 21.371 14.4101C21.2252 14.2428 21.0779 14.0736 20.9201 13.8983C20.5793 13.5198 20.2134 13.1405 19.8417 12.8801C19.4803 12.6269 18.9813 12.3943 18.4355 12.5673L18.4354 12.5673C17.9578 12.7188 17.6484 13.0765 17.4524 13.4275C17.2563 13.7786 17.1402 14.1798 17.0687 14.5331C16.996 14.8917 16.963 15.2328 16.9478 15.4814C16.9402 15.6066 16.9369 15.7107 16.9356 15.7845C16.9349 15.8214 16.9347 15.851 16.9347 15.8719L16.9348 15.8969L16.9348 15.9044L16.9349 15.9063L16.9349 15.9068L16.9348 15.9121C16.9347 15.9191 16.9344 15.9317 16.9334 15.9485C16.9313 15.983 16.9268 16.0311 16.9173 16.0834C16.9076 16.1367 16.8944 16.185 16.8788 16.2239C16.8712 16.2426 16.8641 16.2564 16.8585 16.2659C16.8534 16.2744 16.8503 16.2779 16.8501 16.2781L16.8486 16.2797C16.8183 16.3125 16.7354 16.3629 16.6006 16.4044C16.5422 16.4224 16.4887 16.4342 16.4505 16.4413C16.4424 16.4428 16.4351 16.4441 16.4288 16.4452H14.679H14.661L14.6446 16.4461L14.6445 16.4462L14.6439 16.4462L14.6435 16.4462L14.6429 16.4462L14.6407 16.4463L14.6165 16.4472C14.5931 16.4479 14.5557 16.4486 14.5052 16.4483C14.4042 16.4478 14.2511 16.4435 14.0546 16.4276C13.6613 16.3958 13.0958 16.3179 12.4249 16.1324C11.0856 15.762 9.32549 14.9631 7.66947 13.2395C5.82967 11.3225 4.0723 8.43105 2.76329 5.98279C2.11235 4.76532 1.5788 3.66995 1.20813 2.87923C1.02287 2.48402 0.878485 2.16531 0.780661 1.94598C0.731754 1.83633 0.694499 1.75154 0.669606 1.69449L0.641634 1.63008L0.640646 1.62779C0.638289 1.62057 0.634972 1.61 0.631214 1.5968C0.621645 1.56319 0.611229 1.51961 0.605096 1.47518C0.604177 1.46852 0.603408 1.46222 0.602769 1.45629C0.642363 1.44142 0.691911 1.42746 0.748503 1.41568C0.816592 1.40151 0.881699 1.39319 0.930335 1.38853C0.95416 1.38625 0.972809 1.38497 0.984394 1.38429L0.992104 1.38389L5.20501 1.35809C5.23429 1.36487 5.27517 1.37536 5.32191 1.39012C5.42994 1.42422 5.5335 1.47002 5.60278 1.52085L5.60324 1.5212C5.63127 1.54172 5.67539 1.59142 5.72045 1.66528C5.74018 1.69763 5.75527 1.72666 5.76492 1.7465C5.76965 1.75622 5.7728 1.76318 5.77429 1.76655ZM5.77429 1.76655L5.77469 1.76739L5.77522 1.76866L5.77525 1.76873C5.77525 1.76873 5.77493 1.76798 5.77429 1.76655ZM23.4334 1.65397C23.4334 1.65381 23.4339 1.65287 23.4347 1.65123L23.4344 1.65184L23.4338 1.65298L23.4334 1.65397ZM23.7911 1.40675C23.7909 1.40673 23.7907 1.40671 23.8709 0.812093L23.7907 1.40671L23.7911 1.40675ZM10.5175 1.29544C10.5175 1.29544 10.5178 1.29476 10.5186 1.29341C10.5179 1.29476 10.5176 1.29544 10.5175 1.29544ZM29.4144 1.48015C29.4143 1.48017 29.4136 1.47961 29.4124 1.4784C29.4139 1.47953 29.4145 1.48013 29.4144 1.48015ZM17.5341 15.8995L16.9349 15.9083L16.9349 15.908C16.9349 15.9082 16.9349 15.9083 17.5341 15.8995Z" stroke="#333333" stroke-width="1.2"/>
</svg>
