<svg width="65" height="65" viewBox="0 0 65 65" fill="none" xmlns="http://www.w3.org/2000/svg">
<g clip-path="url(#clip0)">
<path d="M10.922 5.93611C10.922 3.18301 8.69012 0.951172 5.93701 0.951172H44.7381C46.9275 0.951172 48.7023 2.72598 48.7023 4.91541V60.2382L10.922 57.4367V13.4601V10.9211V5.93611Z" fill="#F9F6F9"/>
<path d="M44.7381 0.953125H41.769C43.9585 0.953125 45.7333 2.72793 45.7333 4.91736V60.0201L48.7023 60.2402V4.91736C48.7022 2.72806 46.9274 0.953125 44.7381 0.953125Z" fill="#DDDAEC"/>
<path d="M16.1997 64.0477H49.6253C53.5177 64.0477 56.6732 60.8923 56.6732 56.9998V55.1543H20.3984L10.9224 56.9412V58.7704C10.9224 61.6851 13.2851 64.0477 16.1997 64.0477Z" fill="#D3DCFB"/>
<path d="M56.6732 56.9999C56.6732 57.2537 56.6591 57.5042 56.633 57.751H10.9224V56.4526L20.3984 55.1543H56.6732V56.9999Z" fill="#A6B5E8"/>
<path d="M1.83955 13.4601H10.9222V5.93611C10.9222 3.18301 8.69032 0.951172 5.93722 0.951172C3.18411 0.951045 0.952148 3.18301 0.952148 5.93611V12.5728C0.952148 13.0629 1.34951 13.4601 1.83955 13.4601Z" fill="#D3DCFB"/>
<path d="M5.93722 0.953125C3.18411 0.953125 0.952148 3.18509 0.952148 5.93819V7.15847C0.952148 5.14486 2.58451 3.5125 4.59812 3.5125C6.61172 3.5125 8.24408 5.14486 8.24408 7.15847V13.4623H10.9222V5.93819C10.9222 3.18509 8.69032 0.953125 5.93722 0.953125Z" fill="#A6B5E8"/>
<path d="M10.9224 55.1543V59.3097C10.9224 61.9265 13.0436 64.0477 15.6604 64.0477C18.2771 64.0477 20.3984 61.9265 20.3984 59.3097V55.1543H10.9224Z" fill="#F9F6F9"/>
<path d="M40.1431 22.5888H19.8283C19.1994 22.5888 18.6895 22.0789 18.6895 21.4499V18.9475C18.6895 18.3186 19.1993 17.8086 19.8283 17.8086H40.1431C40.7721 17.8086 41.282 18.3184 41.282 18.9475V21.4499C41.282 22.0788 40.7722 22.5888 40.1431 22.5888Z" fill="#8EBAFF"/>
<path d="M40.1431 17.8086H37.4771C38.106 17.8086 38.6159 18.3184 38.6159 18.9475V21.4499C38.6159 22.0788 38.1061 22.5888 37.4771 22.5888H40.1431C40.772 22.5888 41.282 22.0789 41.282 21.4499V18.9475C41.282 18.3184 40.7721 17.8086 40.1431 17.8086Z" fill="#7AA3FF"/>
<path d="M35.9831 50.7708C39.9573 50.7708 43.179 47.5491 43.179 43.5749C43.179 39.6006 39.9573 36.3789 35.9831 36.3789C32.0088 36.3789 28.7871 39.6006 28.7871 43.5749C28.7871 47.5491 32.0088 50.7708 35.9831 50.7708Z" fill="#FFC200"/>
<path d="M35.9829 36.3789C35.487 36.3789 35.0029 36.4292 34.5352 36.5246C37.8155 37.1947 40.2833 40.0965 40.2833 43.5749C40.2833 47.0531 37.8154 49.955 34.5352 50.6251C35.0029 50.7205 35.4869 50.7708 35.9829 50.7708C39.9572 50.7708 43.1789 47.5491 43.1789 43.5749C43.1789 39.6006 39.9571 36.3789 35.9829 36.3789Z" fill="#FE9900"/>
<path d="M43.3652 26.5034L40.5685 27.19C40.3554 27.2423 40.1605 27.3521 40.0052 27.5073L38.7382 28.7743C38.2689 29.2437 38.2689 30.0045 38.7382 30.4739L51.9139 43.6496C52.3833 44.1189 53.1441 44.1189 53.6135 43.6496L54.8805 42.3826C55.0357 42.2273 55.1454 42.0326 55.1978 41.8193L55.8844 39.0226C55.9846 38.6145 55.8642 38.1836 55.567 37.8864L44.5014 26.8208C44.2042 26.5236 43.7735 26.4032 43.3652 26.5034Z" fill="#667EC9"/>
<path d="M55.1982 41.8208L55.8848 39.0242C55.9849 38.616 55.8647 38.1851 55.5675 37.8879L53.2792 35.5996C53.5764 35.8968 53.6967 36.3277 53.5964 36.7358L52.9099 39.5325C52.8576 39.7456 52.7478 39.9405 52.5925 40.0958L51.3255 41.3628C50.8562 41.8321 50.0953 41.8321 49.626 41.3628L51.9143 43.6511C52.3837 44.1204 53.1445 44.1204 53.6138 43.6511L54.8808 42.3841C55.0361 42.2288 55.1458 42.034 55.1982 41.8208Z" fill="#2A428C"/>
<path d="M62.525 27.2167C64.6483 25.0934 64.5509 21.5902 62.2326 19.5934C60.2872 17.9178 57.3613 17.9317 55.4302 19.624C54.193 20.7082 53.6015 22.2256 53.6543 23.7246C53.6686 24.1324 53.5318 24.5309 53.2684 24.8424L48.3442 30.6662L51.7235 34.0454L57.5472 29.1213C57.8586 28.858 58.2569 28.721 58.6644 28.7353C60.0558 28.7846 61.4629 28.2787 62.525 27.2167Z" fill="#EAAE8E"/>
<path d="M49.8442 28.8926L48.3447 30.666L51.724 34.0454L53.4974 32.5459L49.8442 28.8926Z" fill="#E29375"/>
<path d="M42.2342 21.4508V18.9485C42.2342 17.7955 41.2961 16.8574 40.1431 16.8574H19.8283C18.6754 16.8574 17.7373 17.7955 17.7373 18.9485V21.4508C17.7373 22.6038 18.6754 23.5419 19.8283 23.5419H40.1431C41.2961 23.5419 42.2342 22.6038 42.2342 21.4508ZM19.6416 21.4508V18.9485C19.6416 18.8455 19.7254 18.7617 19.8283 18.7617H40.1431C40.2461 18.7617 40.3299 18.8455 40.3299 18.9485V21.4508C40.3299 21.5538 40.2461 21.6376 40.1431 21.6376H19.8283C19.7254 21.6376 19.6416 21.5538 19.6416 21.4508Z" fill="black"/>
<path d="M23.7924 4.26562H15.231C14.7051 4.26562 14.2788 4.69181 14.2788 5.21777C14.2788 5.74374 14.7051 6.16992 15.231 6.16992H23.7924C24.3183 6.16992 24.7446 5.74374 24.7446 5.21777C24.7446 4.69181 24.3183 4.26562 23.7924 4.26562Z" fill="black"/>
<path d="M28.7866 8.40234H15.231C14.7051 8.40234 14.2788 8.82853 14.2788 9.35449C14.2788 9.88046 14.7051 10.3066 15.231 10.3066H28.7866C29.3125 10.3066 29.7388 9.88046 29.7388 9.35449C29.7388 8.82853 29.3125 8.40234 28.7866 8.40234Z" fill="black"/>
<path d="M29.7388 13.4932C29.7388 12.9672 29.3125 12.541 28.7866 12.541H15.231C14.7051 12.541 14.2788 12.9672 14.2788 13.4932C14.2788 14.0191 14.7051 14.4453 15.231 14.4453H28.7866C29.3125 14.4453 29.7388 14.0191 29.7388 13.4932Z" fill="black"/>
<path d="M33.0396 27.6748C33.0396 27.1488 32.6133 26.7227 32.0875 26.7227H18.6895C18.1636 26.7227 17.7373 27.1488 17.7373 27.6748C17.7373 28.2008 18.1636 28.627 18.6895 28.627H32.0875C32.6133 28.627 33.0396 28.2008 33.0396 27.6748Z" fill="black"/>
<path d="M35.9831 51.722C40.4759 51.722 44.1312 48.0668 44.1312 43.5739C44.1312 39.081 40.4759 35.4258 35.9831 35.4258C31.4902 35.4258 27.835 39.081 27.835 43.5739C27.835 48.0668 31.4902 51.722 35.9831 51.722ZM35.9831 37.3302C39.4259 37.3302 42.2269 40.131 42.2269 43.574C42.2269 47.017 39.426 49.8178 35.9831 49.8178C32.5402 49.8178 29.7393 47.017 29.7393 43.574C29.7393 40.131 32.5402 37.3302 35.9831 37.3302Z" fill="black"/>
<path d="M35.9828 47.9343C36.5088 47.9343 36.935 47.5081 36.935 46.9821C36.935 46.4562 36.5088 46.03 35.9828 46.03C34.6295 46.03 33.5283 44.9289 33.5283 43.5756C33.5283 42.2222 34.6295 41.1211 35.9828 41.1211C37.3363 41.1211 38.4373 42.2222 38.4373 43.5756C38.4373 44.1016 38.8635 44.5278 39.3895 44.5278C39.9155 44.5278 40.3416 44.1016 40.3416 43.5756C40.3416 41.1721 38.3863 39.2168 35.9828 39.2168C33.5794 39.2168 31.624 41.1723 31.624 43.5756C31.624 45.979 33.5794 47.9343 35.9828 47.9343Z" fill="black"/>
<path d="M47.1802 32.8628C46.8082 32.4911 46.2054 32.4911 45.8336 32.8628C45.4617 33.2347 45.4617 33.8375 45.8336 34.2094L48.1806 36.5563C48.3665 36.7422 48.6103 36.8351 48.8539 36.8351C49.0975 36.8351 49.3413 36.7422 49.5273 36.5563C49.8991 36.1844 49.8991 35.5816 49.5273 35.2097L47.1802 32.8628Z" fill="black"/>
<path d="M62.8552 18.8715C61.7336 17.9055 60.2919 17.3842 58.7972 17.3936C58.2713 17.3982 57.8487 17.8283 57.8533 18.354C57.8578 18.877 58.2832 19.2979 58.8053 19.2979H58.8137C59.8483 19.2856 60.8408 19.6497 61.6123 20.3143C63.5018 21.9414 63.5971 24.7985 61.8529 26.5429C61.0106 27.3851 59.8895 27.826 58.6995 27.7833C58.0532 27.7594 57.4262 27.977 56.9337 28.3937L51.7788 32.7524L49.638 30.6116L53.9968 25.4566C54.413 24.9641 54.6297 24.3369 54.6069 23.6906C54.5643 22.4804 55.0435 21.3055 55.9218 20.4673C56.3021 20.1042 56.3161 19.5015 55.9532 19.121C55.5899 18.7404 54.9873 18.7269 54.6069 19.0897C53.3358 20.3031 52.6421 22.0045 52.7039 23.7578C52.71 23.9302 52.6526 24.0971 52.5426 24.2272L49.6555 27.6418V4.91651C49.6555 2.20556 47.4501 0.000126953 44.7391 0.000126953H18.6904C18.1645 0.000126953 17.7382 0.426309 17.7382 0.952275C17.7382 1.47824 18.1645 1.90442 18.6904 1.90442H44.7391C46.3999 1.90442 47.7512 3.25571 47.7512 4.91651V28.7247L45.1757 26.1492C44.6465 25.62 43.8662 25.4019 43.1393 25.5804C43.1393 25.5804 43.1391 25.5804 43.1391 25.5805L40.3427 26.267C39.9605 26.3608 39.6114 26.5575 39.3331 26.8356L38.0662 28.1025C37.6595 28.5094 37.4353 29.0503 37.4353 29.6255C37.4353 30.2009 37.6595 30.7418 38.0662 31.1486L47.7514 40.8336V54.2021H20.5262C20.5048 54.2021 20.4838 54.2039 20.4628 54.2053C20.4417 54.2039 20.4208 54.2021 20.3993 54.2021C19.8735 54.2021 19.4471 54.6283 19.4471 55.1543V59.3097C19.4471 61.3096 17.8882 62.9512 15.9217 63.0855C13.6663 62.9412 11.8754 61.0615 11.8754 58.7704V5.93722C11.8754 4.43244 11.2956 2.98568 10.2918 1.90442H14.8836C15.4094 1.90442 15.8357 1.47824 15.8357 0.952275C15.8357 0.426309 15.4094 0.000126953 14.8836 0.000126953H5.94289C5.94124 0.000126953 5.93972 0 5.93807 0C2.66433 0 0.000976562 2.66335 0.000976562 5.93722V12.5738C0.000976562 13.5882 0.826172 14.4134 1.84053 14.4134H9.97099V59.31C9.97099 62.4475 12.5235 65 15.6612 65C21.9599 65 22.533 64.9989 26.5187 65C27.0445 65 27.4708 64.5738 27.4708 64.0479C27.4708 63.5219 27.0445 63.0957 26.5187 63.0957H19.9043C20.8034 62.0891 21.3512 60.7626 21.3512 59.31V56.1067H55.7216V57C55.7216 60.3613 52.987 63.0958 49.6258 63.0958H30.545C30.0192 63.0958 29.5929 63.522 29.5929 64.048C29.5929 64.5739 30.0192 65.0001 30.545 65.0001H49.6258C54.037 65.0001 57.6259 61.4113 57.6259 57V55.1545C57.6259 54.6286 57.1997 54.2024 56.6737 54.2024H49.6554V42.738L51.2417 44.3243C51.6484 44.7312 52.1894 44.9552 52.7647 44.9552C53.34 44.9552 53.8809 44.7312 54.2878 44.3244L55.5546 43.0575C55.8328 42.7793 56.0294 42.4301 56.1233 42.048L56.8098 39.2514C56.9882 38.5243 56.7702 37.7439 56.2411 37.2149L53.13 34.1038L58.1634 29.8481C58.2937 29.7379 58.4607 29.6816 58.6319 29.6867C60.3351 29.7499 61.997 29.0919 63.1994 27.8898C65.675 25.4139 65.6352 21.2659 62.8552 18.8715ZM1.90527 12.5091V5.93722C1.90527 3.71401 3.71347 1.90531 5.93642 1.90442C5.93692 1.90442 5.93756 1.90455 5.93807 1.90455C8.16178 1.90455 9.97099 3.71363 9.97099 5.93734V12.5093H1.90527V12.5091ZM54.9606 38.7974L54.2739 41.594C54.2632 41.6383 54.2403 41.6787 54.2081 41.7108L52.9412 42.9777C52.8808 43.0383 52.8118 43.0508 52.7647 43.0508C52.7176 43.0508 52.6487 43.0381 52.5883 42.9777L39.4124 29.802C39.352 29.7416 39.3393 29.6726 39.3393 29.6255C39.3393 29.5784 39.3521 29.5095 39.4126 29.4491L40.6794 28.1822C40.7115 28.15 40.7519 28.1271 40.7963 28.1162L43.5929 27.4297V27.4296C43.6774 27.4093 43.7676 27.4344 43.8288 27.4958C45.5763 29.2433 53.4795 37.1465 54.8946 38.5615C54.9561 38.6228 54.9812 38.7131 54.9606 38.7974Z" fill="black"/>
</g>
<defs>
<clipPath id="clip0">
<rect width="65" height="65" fill="white"/>
</clipPath>
</defs>
</svg>
