<svg width="65" height="70" viewBox="0 0 65 70" fill="none" xmlns="http://www.w3.org/2000/svg">
<path d="M31.2128 57.2347H5.51516C3.03139 57.2347 1.01807 55.2212 1.01807 52.7376V48.2402H35.5325L31.2128 57.2347Z" fill="#D3DCFB"/>
<path d="M59.4869 21.255V40.1486V52.7358H5.51516C3.03139 52.7358 1.01807 50.7224 1.01807 48.2386V21.255L32.5011 10.0117L59.4869 21.255Z" fill="#EBF5FC"/>
<path d="M8.92797 30.2492H6.60246C6.0028 30.2492 5.5166 29.763 5.5166 29.1633V26.8378C5.5166 26.2381 6.0028 25.752 6.60246 25.752H8.92797C9.52763 25.752 10.0138 26.2381 10.0138 26.8378V29.1633C10.0138 29.763 9.52763 30.2492 8.92797 30.2492Z" fill="#3C58A0"/>
<path d="M17.9226 30.2492H15.5971C14.9974 30.2492 14.5112 29.763 14.5112 29.1633V26.8378C14.5112 26.2381 14.9974 25.752 15.5971 25.752H17.9226C18.5223 25.752 19.0085 26.2381 19.0085 26.8378V29.1633C19.0085 29.763 18.5223 30.2492 17.9226 30.2492Z" fill="#3C58A0"/>
<path d="M26.9172 30.2492H24.5917C23.9921 30.2492 23.5059 29.763 23.5059 29.1633V26.8378C23.5059 26.2381 23.9921 25.752 24.5917 25.752H26.9172C27.5169 25.752 28.0031 26.2381 28.0031 26.8378V29.1633C28.0031 29.763 27.517 30.2492 26.9172 30.2492Z" fill="#3C58A0"/>
<path d="M35.9114 30.2492H33.5859C32.9862 30.2492 32.5 29.763 32.5 29.1633V26.8378C32.5 26.2381 32.9862 25.752 33.5859 25.752H35.9114C36.511 25.752 36.9972 26.2381 36.9972 26.8378V29.1633C36.9972 29.763 36.511 30.2492 35.9114 30.2492Z" fill="#3C58A0"/>
<path d="M44.9045 30.2492H42.579C41.9794 30.2492 41.4932 29.763 41.4932 29.1633V26.8378C41.4932 26.2381 41.9794 25.752 42.579 25.752H44.9045C45.5042 25.752 45.9904 26.2381 45.9904 26.8378V29.1633C45.9904 29.763 45.5042 30.2492 44.9045 30.2492Z" fill="#3C58A0"/>
<path d="M53.8992 30.2492H51.5737C50.974 30.2492 50.4878 29.763 50.4878 29.1633V26.8378C50.4878 26.2381 50.974 25.752 51.5737 25.752H53.8992C54.4988 25.752 54.985 26.2381 54.985 26.8378V29.1633C54.985 29.763 54.499 30.2492 53.8992 30.2492Z" fill="#3C58A0"/>
<path d="M8.92797 39.2433H6.60246C6.0028 39.2433 5.5166 38.7571 5.5166 38.1575V35.832C5.5166 35.2323 6.0028 34.7461 6.60246 34.7461H8.92797C9.52763 34.7461 10.0138 35.2323 10.0138 35.832V38.1575C10.0138 38.7573 9.52763 39.2433 8.92797 39.2433Z" fill="#3C58A0"/>
<path d="M17.9226 39.2433H15.5971C14.9974 39.2433 14.5112 38.7571 14.5112 38.1575V35.832C14.5112 35.2323 14.9974 34.7461 15.5971 34.7461H17.9226C18.5223 34.7461 19.0085 35.2323 19.0085 35.832V38.1575C19.0085 38.7573 18.5223 39.2433 17.9226 39.2433Z" fill="#3C58A0"/>
<path d="M26.9172 39.2433H24.5917C23.9921 39.2433 23.5059 38.7571 23.5059 38.1575V35.832C23.5059 35.2323 23.9921 34.7461 24.5917 34.7461H26.9172C27.5169 34.7461 28.0031 35.2323 28.0031 35.832V38.1575C28.0031 38.7573 27.517 39.2433 26.9172 39.2433Z" fill="#3C58A0"/>
<path d="M36.9972 39.2433V35.8704C36.9972 35.2494 36.4938 34.7461 35.873 34.7461H33.6243C33.0033 34.7461 32.5 35.2495 32.5 35.8704V38.119C32.5 38.74 33.0034 39.2433 33.6243 39.2433H36.9972Z" fill="#3C58A0"/>
<path d="M8.92797 48.2394H6.60246C6.0028 48.2394 5.5166 47.7532 5.5166 47.1536V44.828C5.5166 44.2284 6.0028 43.7422 6.60246 43.7422H8.92797C9.52763 43.7422 10.0138 44.2284 10.0138 44.828V47.1536C10.0138 47.7532 9.52763 48.2394 8.92797 48.2394Z" fill="#3C58A0"/>
<path d="M17.9226 48.2394H15.5971C14.9974 48.2394 14.5112 47.7532 14.5112 47.1536V44.828C14.5112 44.2284 14.9974 43.7422 15.5971 43.7422H17.9226C18.5223 43.7422 19.0085 44.2284 19.0085 44.828V47.1536C19.0085 47.7532 18.5223 48.2394 17.9226 48.2394Z" fill="#3C58A0"/>
<path d="M26.9172 48.2394H24.5917C23.9921 48.2394 23.5059 47.7532 23.5059 47.1536V44.828C23.5059 44.2284 23.9921 43.7422 24.5917 43.7422H26.9172C27.5169 43.7422 28.0031 44.2284 28.0031 44.828V47.1536C28.0031 47.7532 27.517 48.2394 26.9172 48.2394Z" fill="#3C58A0"/>
<path d="M53.8994 25.752H51.5739C51.4331 25.752 51.2992 25.7796 51.1758 25.8284C51.5782 25.9873 51.8635 26.3789 51.8635 26.8379V29.1635C51.8635 29.6225 51.5784 30.0141 51.1758 30.1729C51.2992 30.2216 51.4333 30.2493 51.5739 30.2493H53.8994C54.4991 30.2493 54.9852 29.7631 54.9852 29.1635V26.8379C54.9852 26.2381 54.4992 25.752 53.8994 25.752Z" fill="#2A428C"/>
<path d="M44.9048 25.752H42.5793C42.4385 25.752 42.3045 25.7796 42.1812 25.8284C42.5836 25.9873 42.8689 26.3789 42.8689 26.8379V29.1635C42.8689 29.6225 42.5837 30.0141 42.1812 30.1729C42.3045 30.2216 42.4385 30.2493 42.5793 30.2493H44.9048C45.5044 30.2493 45.9906 29.7631 45.9906 29.1635V26.8379C45.9906 26.2381 45.5044 25.752 44.9048 25.752Z" fill="#2A428C"/>
<path d="M35.9121 25.752H33.5866C33.4458 25.752 33.3119 25.7796 33.1885 25.8284C33.5909 25.9873 33.8762 26.3789 33.8762 26.8379V29.1635C33.8762 29.6225 33.5911 30.0141 33.1885 30.1729C33.3119 30.2216 33.4458 30.2493 33.5866 30.2493H35.9121C36.5117 30.2493 36.9979 29.7631 36.9979 29.1635V26.8379C36.9979 26.2381 36.5117 25.752 35.9121 25.752Z" fill="#2A428C"/>
<path d="M26.9175 25.752H24.592C24.4512 25.752 24.3172 25.7796 24.1938 25.8284C24.5963 25.9873 24.8816 26.3789 24.8816 26.8379V29.1635C24.8816 29.6225 24.5964 30.0141 24.1938 30.1729C24.3172 30.2216 24.4512 30.2493 24.592 30.2493H26.9175C27.5171 30.2493 28.0033 29.7631 28.0033 29.1635V26.8379C28.0033 26.2381 27.5173 25.752 26.9175 25.752Z" fill="#2A428C"/>
<path d="M17.9228 25.752H15.5973C15.4566 25.752 15.3226 25.7796 15.1992 25.8284C15.6017 25.9873 15.887 26.3789 15.887 26.8379V29.1635C15.887 29.6225 15.6018 30.0141 15.1992 30.1729C15.3226 30.2216 15.4566 30.2493 15.5973 30.2493H17.9228C18.5225 30.2493 19.0087 29.7631 19.0087 29.1635V26.8379C19.0087 26.2381 18.5225 25.752 17.9228 25.752Z" fill="#2A428C"/>
<path d="M8.9282 25.752H6.60269C6.46194 25.752 6.32797 25.7796 6.20459 25.8284C6.60704 25.9873 6.89235 26.3789 6.89235 26.8379V29.1635C6.89235 29.6225 6.60717 30.0141 6.20459 30.1729C6.32797 30.2216 6.46207 30.2493 6.60269 30.2493H8.9282C9.52786 30.2493 10.0141 29.7631 10.0141 29.1635V26.8379C10.0141 26.2381 9.52786 25.752 8.9282 25.752Z" fill="#2A428C"/>
<path d="M8.9282 34.748H6.60269C6.46194 34.748 6.32797 34.7757 6.20459 34.8245C6.60704 34.9834 6.89235 35.375 6.89235 35.834V38.1595C6.89235 38.6186 6.60717 39.0102 6.20459 39.169C6.32797 39.2177 6.46207 39.2454 6.60269 39.2454H8.9282C9.52786 39.2454 10.0141 38.7592 10.0141 38.1595V35.8339C10.0141 35.2342 9.52786 34.748 8.9282 34.748Z" fill="#2A428C"/>
<path d="M8.9282 43.7422H6.60269C6.46194 43.7422 6.32797 43.7699 6.20459 43.8186C6.60704 43.9775 6.89235 44.3691 6.89235 44.8282V47.1536C6.89235 47.6126 6.60717 48.0042 6.20459 48.163C6.32797 48.2117 6.46207 48.2394 6.60269 48.2394H8.9282C9.52786 48.2394 10.0141 47.7532 10.0141 47.1536V44.828C10.0141 44.2282 9.52786 43.7422 8.9282 43.7422Z" fill="#2A428C"/>
<path d="M17.9228 34.748H15.5973C15.4566 34.748 15.3226 34.7757 15.1992 34.8245C15.6017 34.9834 15.887 35.375 15.887 35.834V38.1595C15.887 38.6186 15.6018 39.0102 15.1992 39.169C15.3226 39.2177 15.4566 39.2454 15.5973 39.2454H17.9228C18.5225 39.2454 19.0087 38.7592 19.0087 38.1595V35.8339C19.0087 35.2342 18.5225 34.748 17.9228 34.748Z" fill="#2A428C"/>
<path d="M17.9228 43.7422H15.5973C15.4566 43.7422 15.3226 43.7699 15.1992 43.8186C15.6017 43.9775 15.887 44.3691 15.887 44.8282V47.1536C15.887 47.6126 15.6018 48.0042 15.1992 48.163C15.3226 48.2117 15.4566 48.2394 15.5973 48.2394H17.9228C18.5225 48.2394 19.0087 47.7532 19.0087 47.1536V44.828C19.0087 44.2282 18.5225 43.7422 17.9228 43.7422Z" fill="#2A428C"/>
<path d="M26.9175 34.748H24.592C24.4512 34.748 24.3172 34.7757 24.1938 34.8245C24.5963 34.9834 24.8816 35.375 24.8816 35.834V38.1595C24.8816 38.6186 24.5964 39.0102 24.1938 39.169C24.3172 39.2177 24.4512 39.2454 24.592 39.2454H26.9175C27.5171 39.2454 28.0033 38.7592 28.0033 38.1595V35.8339C28.0033 35.2342 27.5173 34.748 26.9175 34.748Z" fill="#2A428C"/>
<path d="M36.9979 39.2453V35.8339C36.9979 35.2342 36.5117 34.748 35.9121 34.748H33.5866C33.4458 34.748 33.3119 34.7757 33.1885 34.8245C33.5909 34.9834 33.8762 35.375 33.8762 35.834V38.1595C33.8762 38.6186 33.5911 39.0102 33.1885 39.169C33.3119 39.2177 33.4458 39.2454 33.5866 39.2454H36.9979V39.2453Z" fill="#2A428C"/>
<path d="M26.9175 43.7422H24.592C24.4512 43.7422 24.3172 43.7699 24.1938 43.8186C24.5963 43.9775 24.8816 44.3691 24.8816 44.8282V47.1536C24.8816 47.6126 24.5964 48.0042 24.1938 48.163C24.3172 48.2117 24.4512 48.2394 24.592 48.2394H26.9175C27.5171 48.2394 28.0033 47.7532 28.0033 47.1536V44.828C28.0033 44.2282 27.5173 43.7422 26.9175 43.7422Z" fill="#2A428C"/>
<path d="M56.3628 19.9531V40.1484V52.7357H59.4868V40.1484V21.2548L56.3628 19.9531Z" fill="#D3DCFB"/>
<path d="M59.4869 21.256V10.0127C59.4869 7.52895 57.4734 5.51562 54.9898 5.51562H5.51516C3.03139 5.51562 1.01807 7.52908 1.01807 10.0127V21.256H59.4869Z" fill="#FFC200"/>
<path d="M20.1313 9.44996C20.1313 11.0023 18.8729 12.2607 17.3205 12.2607C15.7681 12.2607 14.5098 11.0022 14.5098 9.44996V3.82833C14.5098 2.27595 15.7681 1.01758 17.3205 1.01758C18.8729 1.01758 20.1313 2.27595 20.1313 3.82833V9.44996Z" fill="#EBF5FC"/>
<path d="M45.9921 9.44996C45.9921 11.0023 44.7337 12.2607 43.1814 12.2607C41.629 12.2607 40.3706 11.0022 40.3706 9.44996V3.82833C40.3706 2.27595 41.629 1.01758 43.1814 1.01758C44.7337 1.01758 45.9921 2.27595 45.9921 3.82833V9.44996Z" fill="#EBF5FC"/>
<path d="M43.1815 1.01758C42.6045 1.01758 42.0684 1.19199 41.6221 1.4902C42.3763 1.99431 42.8734 2.85295 42.8734 3.82833V9.44996C42.8734 10.4252 42.3763 11.284 41.6221 11.7881C42.0684 12.0863 42.6044 12.2607 43.1815 12.2607C44.7339 12.2607 45.9923 11.0022 45.9923 9.44996V3.82833C45.9924 2.27595 44.7339 1.01758 43.1815 1.01758Z" fill="#D3DCFB"/>
<path d="M17.3207 1.01758C16.7437 1.01758 16.2075 1.19199 15.7612 1.4902C16.5155 1.99431 17.0125 2.85295 17.0125 3.82833V9.44996C17.0125 10.4252 16.5155 11.284 15.7612 11.7881C16.2075 12.0863 16.7435 12.2607 17.3207 12.2607C18.873 12.2607 20.1314 11.0022 20.1314 9.44996V3.82833C20.1314 2.27595 18.873 1.01758 17.3207 1.01758Z" fill="#D3DCFB"/>
<path d="M54.9896 5.51562H51.8667C54.3503 5.51562 56.3638 7.52908 56.3638 10.0127V21.2561H59.4867V10.0129C59.4867 7.52908 57.4733 5.51562 54.9896 5.51562Z" fill="#FE9900"/>
<path d="M47.1172 68.4776C56.4314 68.4776 63.982 60.927 63.982 51.6128C63.982 42.2987 56.4314 34.748 47.1172 34.748C37.8031 34.748 30.2524 42.2987 30.2524 51.6128C30.2524 60.927 37.8031 68.4776 47.1172 68.4776Z" fill="#8EBAFF"/>
<path d="M47.1171 63.9792C53.9475 63.9792 59.4846 58.4421 59.4846 51.6117C59.4846 44.7813 53.9475 39.2441 47.1171 39.2441C40.2866 39.2441 34.7495 44.7813 34.7495 51.6117C34.7495 58.4421 40.2866 63.9792 47.1171 63.9792Z" fill="#EBF5FC"/>
<path d="M47.1171 34.748C46.5907 34.748 46.0703 34.7734 45.5562 34.8207C54.1384 35.6085 60.86 42.8251 60.86 51.6128C60.86 60.4005 54.1384 67.6172 45.5562 68.405C46.0703 68.4522 46.5907 68.4776 47.1171 68.4776C56.4312 68.4776 63.9818 60.9269 63.9818 51.6128C63.9818 42.2987 56.4313 34.748 47.1171 34.748Z" fill="#7AA3FF"/>
<path d="M47.1175 39.2441C46.589 39.2441 46.0685 39.2775 45.5576 39.3417C51.6516 40.1086 56.3653 45.3096 56.3653 51.6115C56.3653 57.9135 51.6517 63.1145 45.5576 63.8814C46.0685 63.9457 46.589 63.979 47.1175 63.979C53.9478 63.979 59.485 58.4419 59.485 51.6114C59.485 44.7809 53.9479 39.2441 47.1175 39.2441Z" fill="#D3DCFB"/>
<path d="M47.1173 53.8606C48.3592 53.8606 49.366 52.8539 49.366 51.612C49.366 50.37 48.3592 49.3633 47.1173 49.3633C45.8754 49.3633 44.8687 50.37 44.8687 51.612C44.8687 52.8539 45.8754 53.8606 47.1173 53.8606Z" fill="#FFDD40"/>
<path d="M6.60239 31.2676H8.92803C10.0881 31.2676 11.0319 30.3238 11.0319 29.1637V26.8382C11.0319 25.6781 10.0881 24.7344 8.92803 24.7344H6.60239C5.44228 24.7344 4.49854 25.6781 4.49854 26.8382V29.1637C4.49854 30.3238 5.44228 31.2676 6.60239 31.2676ZM6.53452 26.8381C6.53452 26.8006 6.56506 26.7702 6.60239 26.7702H8.92803C8.96536 26.7702 8.9959 26.8006 8.9959 26.8381V29.1636C8.9959 29.2011 8.96536 29.2315 8.92803 29.2315H6.60239C6.56506 29.2315 6.53452 29.2011 6.53452 29.1636V26.8381Z" fill="black"/>
<path d="M15.597 31.2676H17.9225C19.0826 31.2676 20.0264 30.3238 20.0264 29.1637V26.8382C20.0264 25.6781 19.0826 24.7344 17.9225 24.7344H15.597C14.4369 24.7344 13.4932 25.6781 13.4932 26.8382V29.1637C13.4932 30.3238 14.4369 31.2676 15.597 31.2676ZM15.5292 26.8381C15.5292 26.8006 15.5597 26.7702 15.597 26.7702H17.9225C17.9598 26.7702 17.9904 26.8006 17.9904 26.8381V29.1636C17.9904 29.2011 17.9598 29.2315 17.9225 29.2315H15.597C15.5597 29.2315 15.5292 29.2011 15.5292 29.1636V26.8381Z" fill="black"/>
<path d="M24.5916 31.2676H26.9172C28.0773 31.2676 29.021 30.3238 29.021 29.1637V26.8382C29.021 25.6781 28.0773 24.7344 26.9172 24.7344H24.5916C23.4315 24.7344 22.4878 25.6781 22.4878 26.8382V29.1637C22.4878 30.3238 23.4315 31.2676 24.5916 31.2676ZM24.5238 26.8381C24.5238 26.8006 24.5543 26.7702 24.5916 26.7702H26.9172C26.9545 26.7702 26.985 26.8006 26.985 26.8381V29.1636C26.985 29.2011 26.9545 29.2315 26.9172 29.2315H24.5916C24.5543 29.2315 24.5238 29.2011 24.5238 29.1636V26.8381Z" fill="black"/>
<path d="M35.9118 31.2676C37.0719 31.2676 38.0156 30.3238 38.0156 29.1637V26.8382C38.0156 25.6781 37.0719 24.7344 35.9118 24.7344H33.5863C32.4262 24.7344 31.4824 25.6781 31.4824 26.8382V29.1637C31.4824 30.3238 32.4262 31.2676 33.5863 31.2676H35.9118ZM33.5184 29.1637V26.8382C33.5184 26.8008 33.5489 26.7704 33.5863 26.7704H35.9118C35.9491 26.7704 35.9796 26.8008 35.9796 26.8382V29.1637C35.9796 29.2012 35.9491 29.2316 35.9118 29.2316H33.5863C33.5489 29.2316 33.5184 29.2012 33.5184 29.1637Z" fill="black"/>
<path d="M44.9049 31.2676C46.0651 31.2676 47.0088 30.3238 47.0088 29.1637V26.8382C47.0088 25.6781 46.0651 24.7344 44.9049 24.7344H42.5794C41.4193 24.7344 40.4756 25.6781 40.4756 26.8382V29.1637C40.4756 30.3238 41.4193 31.2676 42.5794 31.2676H44.9049ZM42.5116 29.1637V26.8382C42.5116 26.8008 42.5421 26.7704 42.5794 26.7704H44.9049C44.9423 26.7704 44.9728 26.8008 44.9728 26.8382V29.1637C44.9728 29.2012 44.9423 29.2316 44.9049 29.2316H42.5794C42.542 29.2316 42.5116 29.2012 42.5116 29.1637Z" fill="black"/>
<path d="M53.8996 31.2676C55.0597 31.2676 56.0034 30.3238 56.0034 29.1637V26.8382C56.0034 25.6781 55.0597 24.7344 53.8996 24.7344H51.5741C50.414 24.7344 49.4702 25.6781 49.4702 26.8382V29.1637C49.4702 30.3238 50.414 31.2676 51.5741 31.2676H53.8996ZM51.5062 29.1637V26.8382C51.5062 26.8008 51.5367 26.7704 51.5741 26.7704H53.8996C53.9369 26.7704 53.9674 26.8008 53.9674 26.8382V29.1637C53.9674 29.2012 53.9369 29.2316 53.8996 29.2316H51.5741C51.5367 29.2316 51.5062 29.2012 51.5062 29.1637Z" fill="black"/>
<path d="M4.49854 38.1579C4.49854 39.318 5.44228 40.2617 6.60239 40.2617H8.92803C10.0881 40.2617 11.0319 39.318 11.0319 38.1579V35.8324C11.0319 34.6723 10.0881 33.7285 8.92803 33.7285H6.60239C5.44228 33.7285 4.49854 34.6723 4.49854 35.8324V38.1579ZM6.53452 35.8324C6.53452 35.7949 6.56506 35.7645 6.60239 35.7645H8.92803C8.96536 35.7645 8.9959 35.7949 8.9959 35.8324V38.1579C8.9959 38.1953 8.96536 38.2257 8.92803 38.2257H6.60239C6.56506 38.2257 6.53452 38.1953 6.53452 38.1579V35.8324Z" fill="black"/>
<path d="M13.4932 38.1579C13.4932 39.318 14.4369 40.2617 15.597 40.2617H17.9225C19.0826 40.2617 20.0264 39.318 20.0264 38.1579V35.8324C20.0264 34.6723 19.0826 33.7285 17.9225 33.7285H15.597C14.4369 33.7285 13.4932 34.6723 13.4932 35.8324V38.1579ZM15.5292 35.8324C15.5292 35.7949 15.5597 35.7645 15.597 35.7645H17.9225C17.9598 35.7645 17.9904 35.7949 17.9904 35.8324V38.1579C17.9904 38.1953 17.9598 38.2257 17.9225 38.2257H15.597C15.5597 38.2257 15.5292 38.1953 15.5292 38.1579V35.8324Z" fill="black"/>
<path d="M22.4878 38.1579C22.4878 39.318 23.4315 40.2617 24.5916 40.2617H26.9172C28.0773 40.2617 29.021 39.318 29.021 38.1579V35.8324C29.021 34.6723 28.0773 33.7285 26.9172 33.7285H24.5916C23.4315 33.7285 22.4878 34.6723 22.4878 35.8324V38.1579ZM24.5238 35.8324C24.5238 35.7949 24.5543 35.7645 24.5916 35.7645H26.9172C26.9545 35.7645 26.985 35.7949 26.985 35.8324V38.1579C26.985 38.1953 26.9545 38.2257 26.9172 38.2257H24.5916C24.5543 38.2257 24.5238 38.1953 24.5238 38.1579V35.8324Z" fill="black"/>
<path d="M4.49854 47.152C4.49854 48.3121 5.44228 49.2559 6.60239 49.2559H8.92803C10.0881 49.2559 11.0319 48.3121 11.0319 47.152V44.8265C11.0319 43.6664 10.0881 42.7227 8.92803 42.7227H6.60239C5.44228 42.7227 4.49854 43.6664 4.49854 44.8265V47.152ZM6.53452 44.8265C6.53452 44.789 6.56506 44.7586 6.60239 44.7586H8.92803C8.96536 44.7586 8.9959 44.789 8.9959 44.8265V47.152C8.9959 47.1895 8.96536 47.2199 8.92803 47.2199H6.60239C6.56506 47.2199 6.53452 47.1895 6.53452 47.152V44.8265Z" fill="black"/>
<path d="M13.4932 47.152C13.4932 48.3121 14.4369 49.2559 15.597 49.2559H17.9225C19.0826 49.2559 20.0264 48.3121 20.0264 47.152V44.8265C20.0264 43.6664 19.0826 42.7227 17.9225 42.7227H15.597C14.4369 42.7227 13.4932 43.6664 13.4932 44.8265V47.152ZM15.5292 44.8265C15.5292 44.789 15.5597 44.7586 15.597 44.7586H17.9225C17.9598 44.7586 17.9904 44.789 17.9904 44.8265V47.152C17.9904 47.1895 17.9598 47.2199 17.9225 47.2199H15.597C15.5597 47.2199 15.5292 47.1895 15.5292 47.152V44.8265Z" fill="black"/>
<path d="M22.4878 47.152C22.4878 48.3121 23.4315 49.2559 24.5916 49.2559H26.9172C28.0773 49.2559 29.021 48.3121 29.021 47.152V44.8265C29.021 43.6664 28.0773 42.7227 26.9172 42.7227H24.5916C23.4315 42.7227 22.4878 43.6664 22.4878 44.8265V47.152ZM24.5238 44.8265C24.5238 44.789 24.5543 44.7586 24.5916 44.7586H26.9172C26.9545 44.7586 26.985 44.789 26.985 44.8265V47.152C26.985 47.1895 26.9545 47.2199 26.9172 47.2199H24.5916C24.5543 47.2199 24.5238 47.1895 24.5238 47.152V44.8265Z" fill="black"/>
<path d="M60.5049 39.7704V10.0124C60.5049 6.97136 58.0309 4.49736 54.9897 4.49736H47.0101V3.82888C47.0101 1.71756 45.2926 0 43.1814 0C41.0702 0 39.3527 1.71756 39.3527 3.82874V4.49723H21.1494V3.82874C21.1494 1.71756 19.4319 0 17.3207 0C15.2094 0 13.4918 1.71756 13.4918 3.82874V4.49723H5.51522C2.47413 4.49723 0 6.97136 0 10.0123V25.9656C0 26.5278 0.455654 26.9836 1.01799 26.9836C1.58033 26.9836 2.03599 26.5278 2.03599 25.9656V22.2737H58.469V37.8046C55.379 35.2598 51.4235 33.7295 47.1172 33.7295C43.7957 33.7295 40.6835 34.6408 38.0156 36.225V35.8718C38.0156 34.6905 37.0546 33.7295 35.8733 33.7295H33.6248C32.4435 33.7295 31.4825 34.6905 31.4825 35.8718V38.1205C31.4825 39.2004 32.2864 40.0938 33.3267 40.2395C30.7714 43.3326 29.2345 47.2963 29.2345 51.6123C29.2345 51.6479 29.2356 51.683 29.2358 51.7186H5.51522C3.59678 51.7186 2.03599 50.1578 2.03599 48.2395V30.0376C2.03599 29.4754 1.58033 29.0196 1.01799 29.0196C0.455654 29.0196 0 29.4754 0 30.0376V52.7367C0 55.7778 2.474 58.2518 5.51522 58.2518H7.97809C8.54043 58.2518 8.99608 57.796 8.99608 57.2338C8.99608 56.6716 8.54043 56.2158 7.97809 56.2158H5.51522C3.59678 56.2158 2.03599 54.655 2.03599 52.7367V52.5148C2.98571 53.2891 4.19699 53.7546 5.51522 53.7546H29.3633C29.464 54.5942 29.6231 55.4159 29.8363 56.2159H12.0499C11.4876 56.2159 11.0319 56.6717 11.0319 57.2339C11.0319 57.7961 11.4876 58.2519 12.0499 58.2519H30.5132C33.155 64.8344 39.6017 69.4951 47.1172 69.4951C56.9778 69.4951 65 61.4729 65 51.6123C65 47.0745 63.3002 42.9269 60.5049 39.7704ZM41.3886 3.82874C41.3886 2.8402 42.1929 2.03599 43.1814 2.03599C44.1699 2.03599 44.9742 2.8402 44.9742 3.82874V9.45038C44.9742 10.4389 44.1699 11.2433 43.1814 11.2433C42.1929 11.2433 41.3886 10.4391 41.3886 9.45038V3.82874ZM15.5278 3.82874C15.5278 2.8402 16.3322 2.03599 17.3207 2.03599C18.3092 2.03599 19.1134 2.8402 19.1134 3.82874V9.45038C19.1134 10.4389 18.3092 11.2433 17.3207 11.2433C16.3322 11.2433 15.5278 10.4391 15.5278 9.45038V3.82874ZM5.51522 6.53321H13.4918V8.99445H12.2613C11.6989 8.99445 11.2433 9.45024 11.2433 10.0124C11.2433 10.5746 11.6989 11.0304 12.2613 11.0304H13.8345C14.4375 12.3552 15.7728 13.2791 17.3207 13.2791C18.8686 13.2791 20.2039 12.3553 20.8067 11.0304H22.38C22.9423 11.0304 23.398 10.5746 23.398 10.0124C23.398 9.45024 22.9423 8.99445 22.38 8.99445H21.1494V6.53321H39.3527V8.99445H38.122C37.5596 8.99445 37.104 9.45024 37.104 10.0124C37.104 10.5746 37.5596 11.0304 38.122 11.0304H39.6954C40.2983 12.3552 41.6336 13.2791 43.1814 13.2791C44.7292 13.2791 46.0646 12.3553 46.6674 11.0304H48.2408C48.8032 11.0304 49.2588 10.5746 49.2588 10.0124C49.2588 9.45024 48.8032 8.99445 48.2408 8.99445H47.0101V6.53321H54.9897C56.9082 6.53321 58.469 8.094 58.469 10.0123V15.7404H2.03612V10.0124C2.03612 8.094 3.59691 6.53321 5.51522 6.53321ZM2.03612 20.2377V17.7765H58.4691V20.2377H2.03612ZM33.5185 35.8718C33.5185 35.8132 33.5662 35.7655 33.6248 35.7655H35.8733C35.9319 35.7655 35.9796 35.8133 35.9796 35.8718V37.6321C35.7388 37.8243 35.5033 38.0226 35.2728 38.2268H33.6246C33.566 38.2268 33.5183 38.179 33.5183 38.1205V35.8718H33.5185ZM47.1172 67.4591C38.3793 67.4591 31.2705 60.3502 31.2705 51.6123C31.2705 42.8744 38.3793 35.7655 47.1172 35.7655C55.8552 35.7655 62.964 42.8744 62.964 51.6123C62.964 60.3502 55.8552 67.4591 47.1172 67.4591Z" fill="black"/>
<path d="M47.1173 38.2246C39.7366 38.2246 33.7319 44.2293 33.7319 51.6101C33.7319 58.991 39.7366 64.9957 47.1173 64.9957C54.4982 64.9957 60.5029 58.991 60.5029 51.6101C60.5029 44.2293 54.4982 38.2246 47.1173 38.2246ZM47.1173 62.9597C40.8591 62.9597 35.7679 57.8684 35.7679 51.6101C35.7679 45.3519 40.8592 40.2606 47.1173 40.2606C53.3754 40.2606 58.4669 45.3519 58.4669 51.6101C58.4669 57.8684 53.3756 62.9597 47.1173 62.9597Z" fill="black"/>
<path d="M52.7386 50.5928H50.2204C49.8969 49.6093 49.1186 48.8309 48.1351 48.5074V43.7407C48.1351 43.1784 47.6795 42.7227 47.1171 42.7227C46.5548 42.7227 46.0991 43.1784 46.0991 43.7407V48.5074C44.795 48.9364 43.8506 50.165 43.8506 51.6108C43.8506 53.4121 45.316 54.8775 47.1171 54.8775C48.5629 54.8775 49.7916 53.9329 50.2204 52.6288H52.7386C53.301 52.6288 53.7566 52.173 53.7566 51.6108C53.7566 51.0486 53.301 50.5928 52.7386 50.5928ZM47.117 52.8415C46.4385 52.8415 45.8864 52.2895 45.8864 51.6108C45.8864 50.9322 46.4385 50.3801 47.117 50.3801C47.7955 50.3801 48.3475 50.9322 48.3475 51.6108C48.3475 52.2895 47.7955 52.8415 47.117 52.8415Z" fill="black"/>
</svg>
