<svg width="65" height="65" viewBox="0 0 65 65" fill="none" xmlns="http://www.w3.org/2000/svg">
<g clip-path="url(#clip0)">
<path d="M45.8647 35.6445L46.9543 56.1703C46.9897 56.838 47.5414 57.3613 48.2101 57.3613H60.3436C61.0123 57.3613 61.564 56.8381 61.5994 56.1703L62.689 35.6445H45.8647Z" fill="#8EBAFF"/>
<path d="M45.8647 35.6469L46.0997 40.073H57.0526C58.059 40.073 58.8594 40.9171 58.8061 41.922L58.05 56.1728C58.0148 56.8405 57.4627 57.3637 56.7936 57.3637H60.3437C61.0128 57.3637 61.5636 56.8405 61.5988 56.1728L62.6891 35.6465L45.8647 35.6469Z" fill="#7AA3FF"/>
<path d="M62.7903 37.3444H45.7635C45.0689 37.3444 44.5059 36.7814 44.5059 36.0868V33.4177C44.5059 32.7232 45.0689 32.1602 45.7635 32.1602H62.7903C63.4848 32.1602 64.0479 32.7232 64.0479 33.4177V36.0868C64.0479 36.7814 63.4848 37.3444 62.7903 37.3444Z" fill="#D9ECFD"/>
<path d="M64.0475 33.4178V36.0876C64.0475 36.7818 63.4853 37.3452 62.7899 37.3452H59.2549C59.9491 37.3452 60.5125 36.7818 60.5125 36.0876V33.4178C60.5125 32.7236 59.9491 32.1602 59.2549 32.1602H62.7899C63.4853 32.1602 64.0475 32.7236 64.0475 33.4178Z" fill="#A9D8FC"/>
<path d="M53.4614 57.3615H16.7376C16.0146 57.3615 15.4405 56.7532 15.4821 56.0315L18.2051 8.82183C18.2435 8.15647 18.7942 7.63672 19.4606 7.63672H50.7381C51.4045 7.63672 51.9552 8.15659 51.9936 8.82183L54.7169 56.0315C54.7585 56.7532 54.1844 57.3615 53.4614 57.3615Z" fill="#EAAE8E"/>
<path d="M33.4242 32.033V37.3777C33.4242 38.0723 32.8612 38.6353 32.1666 38.6353H16.4858L16.9386 30.7754H32.1666C32.8612 30.7754 33.4242 31.3384 33.4242 32.033Z" fill="#FFC200"/>
<path d="M33.4243 32.033V37.3777C33.4243 38.0719 32.8609 38.6353 32.1667 38.6353H28.5562C29.2516 38.6353 29.8138 38.0719 29.8138 37.3777V32.033C29.8138 31.3388 29.2516 30.7754 28.5562 30.7754H32.1667C32.8609 30.7754 33.4243 31.3388 33.4243 32.033Z" fill="#FE9900"/>
<path d="M40.7688 43.8865V50.4435C40.7688 51.1381 40.2058 51.7011 39.5112 51.7011H15.7329L16.2561 42.6289H39.5112C40.2058 42.6289 40.7688 43.1919 40.7688 43.8865Z" fill="#FFC200"/>
<path d="M40.7687 43.8865V50.4435C40.7687 51.1377 40.2053 51.7011 39.5111 51.7011H35.9019C36.596 51.7011 37.1595 51.1377 37.1595 50.4435V43.8865C37.1595 43.1923 36.596 42.6289 35.9019 42.6289H39.5111C40.2053 42.6289 40.7687 43.1923 40.7687 43.8865Z" fill="#FE9900"/>
<path d="M54.7163 56.031L51.9936 8.82132C51.9547 8.15608 51.4051 7.63672 50.7386 7.63672H19.46C18.7935 7.63672 18.2439 8.15608 18.2049 8.82132L18.0942 10.7454L19.7303 15.5657C20.2496 17.0974 21.6859 18.1261 23.3019 18.1261H46.8966H46.9125C47.7526 18.1225 48.457 18.7555 48.5053 19.5944L50.6077 56.031C50.6492 56.7528 50.0745 57.3615 49.3514 57.3615H53.4611C54.1843 57.3615 54.7578 56.7527 54.7163 56.031Z" fill="#E39B74"/>
<path d="M19.6948 7.63672L22.1119 14.7574C22.285 15.2676 22.7639 15.6108 23.3027 15.6108H46.8963C47.4351 15.6108 47.914 15.2676 48.0871 14.7574L50.5042 7.63672H19.6948Z" fill="#EAAE8E"/>
<path d="M50.5036 7.63672L48.0865 14.7571C47.9142 15.2677 47.4351 15.611 46.8968 15.611H42.7871C43.3254 15.611 43.8045 15.2677 43.9781 14.7571L46.3951 7.63672H50.5036Z" fill="#E39B74"/>
<path d="M4.41064 22.4161H20.3323V19.8123C20.3323 19.1177 19.7693 18.5547 19.0747 18.5547H5.66824C4.97368 18.5547 4.41064 19.1177 4.41064 19.8123V22.4161Z" fill="#A9D8FC"/>
<path d="M20.3321 19.8123V22.4167H16.8738V19.8123C16.8738 19.1181 16.3117 18.5547 15.6162 18.5547H19.0745C19.7701 18.5547 20.3321 19.1181 20.3321 19.8123Z" fill="#8DCAFC"/>
<path d="M5.67586 57.3627H19.067C19.7357 57.3627 20.2874 56.8395 20.3228 56.1717L21.9071 26.3262C21.9453 25.6065 21.372 25.002 20.6512 25.002H4.09161C3.3709 25.002 2.79758 25.6065 2.83579 26.3262L4.42004 56.1717C4.45546 56.8395 5.0072 57.3627 5.67586 57.3627Z" fill="#8EBAFF"/>
<path d="M20.6522 25.0026L4.09259 25.002C3.37187 25.002 2.79855 25.6065 2.83677 26.3262L2.98746 29.1663H15.5016C17.0216 29.1663 18.2306 30.4411 18.1501 31.959L16.8656 56.1717C16.8304 56.8395 16.2783 57.3627 15.6093 57.3627H19.0676C19.7366 57.3627 20.2888 56.8395 20.3239 56.1717L21.9073 26.3268C21.9463 25.6062 21.3728 25.0026 20.6522 25.0026Z" fill="#7AA3FF"/>
<path d="M3.15723 32.3652L4.32558 54.3955C8.6755 52.7242 11.7629 48.5076 11.7629 43.5691C11.7629 38.2004 8.11208 33.6831 3.15723 32.3652Z" fill="#FFC200"/>
<path d="M11.7629 43.5691C11.7629 48.5076 8.6755 52.7243 4.32558 54.3955L4.22249 52.4501C6.75406 50.3235 8.3637 47.1343 8.3637 43.5691C8.3637 39.5637 6.33144 36.0324 3.24152 33.9499L3.15723 32.3652C8.11208 33.6833 11.7629 38.2005 11.7629 43.5691Z" fill="#FE9900"/>
<path d="M2.20975 26.5508H22.533C23.2276 26.5508 23.7906 25.9877 23.7906 25.2932V23.3181C23.7906 22.6236 23.2276 22.0605 22.533 22.0605H2.20975C1.51519 22.0605 0.952148 22.6236 0.952148 23.3181V25.2932C0.952148 25.9877 1.51519 26.5508 2.20975 26.5508Z" fill="#D9ECFD"/>
<path d="M23.7901 23.3181V25.2925C23.7901 25.988 23.228 26.5501 22.5326 26.5501H19.0742C19.7697 26.5501 20.3318 25.988 20.3318 25.2925V23.3181C20.3318 22.624 19.7697 22.0605 19.0742 22.0605H22.5326C23.228 22.0605 23.7901 22.624 23.7901 23.3181Z" fill="#A9D8FC"/>
<path d="M62.7903 31.209H54.2388L52.9443 8.76783C52.8769 7.60024 51.9078 6.68555 50.7382 6.68555H19.4606C18.2909 6.68555 17.3219 7.60024 17.2546 8.76796L16.7449 17.6043H5.66808C4.44958 17.6043 3.45833 18.5957 3.45833 19.814V21.1073H2.20975C0.99125 21.1073 0 22.0984 0 23.3169V25.2921C0 26.4203 0.850459 27.3522 1.94378 27.4843L2.56699 39.2253C2.59391 39.7332 3.01425 40.127 3.51698 40.127C3.53399 40.127 3.55113 40.1267 3.56827 40.1256C4.09335 40.0977 4.49655 39.6494 4.46862 39.1244L4.1812 33.7103C8.18099 35.3287 10.8106 39.1855 10.8106 43.5694C10.8106 47.5144 8.63611 51.1033 5.20229 52.9469L4.7092 43.6577C4.68127 43.1326 4.23389 42.7279 3.70792 42.7574C3.18284 42.7853 2.77964 43.2336 2.80757 43.7587L3.46912 56.222C3.53146 57.3954 4.50062 58.3146 5.67569 58.3146H60.3435C61.5186 58.3146 62.4879 57.3954 62.5501 56.222L63.5079 38.1755C64.3748 37.8765 65 37.0546 65 36.0878V33.4187C65 32.2002 64.0086 31.209 62.7903 31.209ZM62.7903 33.1133C62.9587 33.1133 63.0957 33.2502 63.0957 33.4186V36.0876C63.0957 36.2561 62.9587 36.3931 62.7903 36.3931H54.5378L54.3486 33.1131H62.7903V33.1133ZM5.36263 19.814C5.36263 19.6456 5.49961 19.5086 5.66808 19.5086H19.0747C19.2432 19.5086 19.3802 19.6456 19.3802 19.814V21.1073H5.36263V19.814ZM1.9043 23.3169C1.9043 23.1486 2.04128 23.0116 2.20975 23.0116H22.533C22.7015 23.0116 22.8385 23.1486 22.8385 23.3169V25.2921C22.8385 25.4605 22.7015 25.5975 22.533 25.5975H2.20975C2.04128 25.5975 1.9043 25.4605 1.9043 25.2921V23.3169ZM21.9445 43.5821H39.5111C39.6795 43.5821 39.8164 43.719 39.8164 43.8874V50.4444C39.8164 50.6129 39.6795 50.7498 39.5111 50.7498H21.564L21.9445 43.5821ZM22.5737 31.7281H32.1667C32.3352 31.7281 32.4722 31.865 32.4722 32.0335V37.3782C32.4722 37.5467 32.3351 37.6837 32.1667 37.6837H22.2575L22.5737 31.7281ZM5.37075 56.1211L5.31197 55.0137C9.81437 52.9881 12.7149 48.5165 12.7149 43.5694C12.7149 40.8409 11.8536 38.2463 10.224 36.0663C8.6841 34.006 6.50394 32.4429 4.07164 31.6462L3.85163 27.5018H20.891L19.3719 56.1211C19.3633 56.2832 19.2292 56.4103 19.0668 56.4103H5.67582C5.51345 56.4103 5.37938 56.2832 5.37075 56.1211ZM60.3436 56.4103H55.6486C55.6687 56.2677 55.6758 56.123 55.6673 55.9778L55.0348 45.0116C55.0046 44.4865 54.5524 44.0844 54.0295 44.1158C53.5044 44.146 53.1035 44.5962 53.1337 45.1211L53.7662 56.0873C53.7728 56.2017 53.717 56.2788 53.6834 56.3146C53.6496 56.3502 53.5759 56.4103 53.4614 56.4103H21.2542C21.2629 56.3482 21.2701 56.2856 21.2734 56.222L21.4628 52.6543H39.511C40.7295 52.6543 41.7206 51.6629 41.7206 50.4445V43.8875C41.7206 42.669 40.7294 41.6779 39.511 41.6779H22.0455L22.1565 39.5881H32.1669C33.3854 39.5881 34.3766 38.5967 34.3766 37.3784V32.0336C34.3766 30.8151 33.3852 29.8239 32.1669 29.8239H22.6748L22.799 27.4843C23.8923 27.3524 24.7428 26.4204 24.7428 25.2921V23.3169C24.7428 22.0984 23.7515 21.1073 22.533 21.1073H21.2845V19.814C21.2845 18.5955 20.2932 17.6043 19.0747 17.6043H18.6523L19.1491 8.99267L21.2102 15.0645C21.5145 15.9613 22.3554 16.564 23.3026 16.564H28.3064C28.8322 16.564 29.2585 16.1378 29.2585 15.6119C29.2585 15.0859 28.8322 14.6597 28.3064 14.6597H23.3026C23.1717 14.6597 23.0556 14.5764 23.0134 14.4524L21.0234 8.58984H49.1754L47.1854 14.4523C47.1433 14.5763 47.0271 14.6596 46.8962 14.6596H32.8674C32.3416 14.6596 31.9153 15.0858 31.9153 15.6117C31.9153 16.1377 32.3416 16.5639 32.8674 16.5639H46.8964C47.8434 16.5639 48.6844 15.9614 48.9887 15.0645L51.0499 8.99216L52.8724 40.5889C52.9015 41.0952 53.3213 41.4862 53.822 41.4862C53.8406 41.4862 53.8591 41.4857 53.8776 41.4845C54.4027 41.4543 54.8036 41.0042 54.7734 40.4792L54.6476 38.2974H61.5947L60.6487 56.121C60.6399 56.2832 60.5061 56.4103 60.3436 56.4103Z" fill="black"/>
<path d="M49.6339 50.75H47.8281C47.3022 50.75 46.876 51.1762 46.876 51.7021C46.876 52.2281 47.3022 52.6543 47.8281 52.6543H49.6339C50.1599 52.6543 50.5861 52.2281 50.5861 51.7021C50.5861 51.1762 50.1599 50.75 49.6339 50.75Z" fill="black"/>
<path d="M16.3203 31.7109H18.1261C18.6519 31.7109 19.0782 31.2848 19.0782 30.7588C19.0782 30.2328 18.6519 29.8066 18.1261 29.8066H16.3203C15.7945 29.8066 15.3682 30.2328 15.3682 30.7588C15.3682 31.2848 15.7945 31.7109 16.3203 31.7109Z" fill="black"/>
<path d="M18.1258 33.1758H12.3711C11.8453 33.1758 11.4189 33.602 11.4189 34.1279C11.4189 34.6539 11.8453 35.0801 12.3711 35.0801H18.1258C18.6516 35.0801 19.0779 34.6539 19.0779 34.1279C19.0779 33.602 18.6516 33.1758 18.1258 33.1758Z" fill="black"/>
</g>
<defs>
<clipPath id="clip0">
<rect width="65" height="65" fill="white"/>
</clipPath>
</defs>
</svg>
