<svg width="12" height="13" viewBox="0 0 12 13" fill="none" xmlns="http://www.w3.org/2000/svg">
<circle cx="6" cy="3" r="2.25" stroke="#333333" stroke-width="1.5"/>
<path d="M11.1819 12.1192C11.1847 12.1372 11.1826 12.1475 11.1803 12.1544C11.1776 12.1626 11.1714 12.175 11.1577 12.1895C11.1285 12.2202 11.0737 12.25 11.0009 12.25H10.9951H10.9893H10.9835H10.9777H10.9718H10.966H10.9601H10.9542H10.9483H10.9423H10.9364H10.9304H10.9245H10.9185H10.9124H10.9064H10.9004H10.8943H10.8882H10.8821H10.876H10.8699H10.8638H10.8576H10.8514H10.8453H10.839H10.8328H10.8266H10.8203H10.8141H10.8078H10.8015H10.7952H10.7888H10.7825H10.7761H10.7697H10.7633H10.7569H10.7505H10.744H10.7376H10.7311H10.7246H10.7181H10.7116H10.705H10.6984H10.6919H10.6853H10.6787H10.672H10.6654H10.6588H10.6521H10.6454H10.6387H10.632H10.6252H10.6185H10.6117H10.6049H10.5981H10.5913H10.5845H10.5776H10.5708H10.5639H10.557H10.5501H10.5431H10.5362H10.5292H10.5223H10.5153H10.5083H10.5012H10.4942H10.4871H10.4801H10.473H10.4659H10.4588H10.4516H10.4445H10.4373H10.4301H10.4229H10.4157H10.4085H10.4012H10.394H10.3867H10.3794H10.3721H10.3648H10.3574H10.3501H10.3427H10.3353H10.3279H10.3205H10.313H10.3056H10.2981H10.2906H10.2831H10.2756H10.2681H10.2605H10.253H10.2454H10.2378H10.2302H10.2225H10.2149H10.2072H10.1996H10.1919H10.1842H10.1764H10.1687H10.1609H10.1532H10.1454H10.1376H10.1298H10.1219H10.1141H10.1062H10.0984H10.0905H10.0825H10.0746H10.0667H10.0587H10.0507H10.0428H10.0347H10.0267H10.0187H10.0106H10.0026H9.99448H9.98638H9.97827H9.97013H9.96199H9.95382H9.94565H9.93745H9.92924H9.92102H9.91278H9.90452H9.89625H9.88796H9.87966H9.87134H9.863H9.85465H9.84629H9.8379H9.82951H9.82109H9.81267H9.80422H9.79576H9.78729H9.7788H9.77029H9.76177H9.75323H9.74468H9.73611H9.72752H9.71892H9.71031H9.70168H9.69303H9.68437H9.67569H9.667H9.65829H9.64956H9.64082H9.63207H9.6233H9.61451H9.60571H9.59689H9.58806H9.57921H9.57035H9.56147H9.55257H9.54366H9.53474H9.52579H9.51684H9.50786H9.49888H9.48987H9.48085H9.47182H9.46277H9.45371H9.44462H9.43553H9.42642H9.41729H9.40815H9.39899H9.38982H9.38063H9.37142H9.36221H9.35297H9.34372H9.33445H9.32517H9.31588H9.30657H9.29724H9.2879H9.27854H9.26916H9.25978H9.25037H9.24095H9.23152H9.22207H9.2126H9.20312H9.19363H9.18411H9.17459H9.16504H9.15549H9.14591H9.13633H9.12672H9.1171H9.10747H9.09782H9.08816H9.07848H9.06878H9.05907H9.04934H9.0396H9.02985H9.02007H9.01029H9.00049H8.99067H8.98084H8.97099H8.96113H8.95125H8.94135H8.93144H8.92152H8.91158H8.90163H8.89166H8.88167H8.87167H8.86166H8.85162H8.84158H8.83152H8.82144H8.81135H8.80124H8.79112H8.78098H8.77083H8.76066H8.75048H8.74028H8.73007H8.71984H8.7096H8.69934H8.68907H8.67878H8.66848H8.65816H8.64782H8.63748H8.62711H8.61673H8.60634H8.59593H8.5855H8.57506H8.56461H8.55414H8.54365H8.53315H8.52264H8.51211H8.50156H8.491H8.48043H8.46984H8.45923H8.44861H8.43797H8.42732H8.41666H8.40598H8.39528H8.38457H8.37385H8.3631H8.35235H8.34158H8.33079H8.31999H8.30917H8.29834H8.2875H8.27664H8.26576H8.25487H8.24396H8.23304H8.22211H8.21116H8.20019H8.18921H8.17821H8.1672H8.15618H8.14514H8.13408H8.12301H8.11193H8.10083H8.08971H8.07858H8.06743H8.05627H8.0451H8.03391H8.02271H8.01149H8.00025H7.989H7.97774H7.96646H7.95516H7.94386H7.93253H7.92119H7.90984H7.89847H7.88709H7.87569H7.86428H7.85285H7.84141H7.82995H7.81848H7.80699H7.79549H7.78397H7.77244H7.76089H7.74933H7.73776H7.72616H7.71456H7.70294H7.6913H7.67965H7.66799H7.65631H7.64461H7.63291H7.62118H7.60944H7.59769H7.58592H7.57414H7.56234H7.55053H7.5387H7.52686H7.515H7.50313H7.49125H7.47934H7.46743H7.4555H7.44355H7.43159H7.41962H7.40763H7.39563H7.38361H7.37158H7.35953H7.34747H7.33539H7.3233H7.31119H7.29907H7.28693H7.27478H7.26262H7.25044H7.23824H7.22604H7.21381H7.20157H7.18932H7.17705H7.16477H7.15247H7.14016H7.12784H7.1155H7.10314H7.09077H7.07839H7.06599H7.05357H7.04115H7.0287H7.01625H7.00377H6.99129H6.97879H6.96627H6.95374H6.9412H6.92864H6.91606H6.90348H6.89087H6.87826H6.86562H6.85298H6.84032H6.82764H6.81495H6.80225H6.78953H6.77679H6.76405H6.75128H6.73851H6.72572H6.71291H6.70009H6.68726H6.67441H6.66154H6.64866H6.63577H6.62286H6.60994H6.59701H6.58406H6.57109H6.55811H6.54512H6.53211H6.51909H6.50605H6.493H6.47993H6.46685H6.45376H6.44065H6.42753H6.41439H6.40124H6.38807H6.37489H6.36169H6.34848H6.33526H6.32202H6.30877H6.2955H6.28222H6.26892H6.25561H6.24229H6.22895H6.2156H6.20223H6.18885H6.17545H6.16204H6.14862H6.13518H6.12172H6.10826H6.09477H6.08128H6.06777H6.05424H6.0407H6.02715H6.01358H6H5.98412H5.96827H5.95245H5.93666H5.9209H5.90517H5.88947H5.87381H5.85817H5.84257H5.82699H5.81144H5.79593H5.78044H5.76499H5.74957H5.73417H5.71881H5.70347H5.68817H5.6729H5.65765H5.64244H5.62725H5.6121H5.59697H5.58188H5.56681H5.55178H5.53677H5.5218H5.50685H5.49193H5.47705H5.46219H5.44736H5.43256H5.41779H5.40305H5.38834H5.37365H5.359H5.34438H5.32978H5.31521H5.30068H5.28617H5.27169H5.25724H5.24282H5.22843H5.21406H5.19973H5.18542H5.17114H5.15689H5.14267H5.12848H5.11431H5.10018H5.08607H5.07199H5.05794H5.04392H5.02993H5.01596H5.00202H4.98811H4.97423H4.96038H4.94655H4.93275H4.91898H4.90524H4.89153H4.87784H4.86418H4.85055H4.83695H4.82338H4.80983H4.79631H4.78281H4.76935H4.75591H4.7425H4.72912H4.71576H4.70243H4.68913H4.67586H4.66261H4.64939H4.6362H4.62303H4.60989H4.59678H4.5837H4.57064H4.55761H4.5446H4.53162H4.51867H4.50575H4.49285H4.47998H4.46713H4.45432H4.44152H4.42876H4.41602H4.40331H4.39062H4.37796H4.36533H4.35272H4.34014H4.32758H4.31505H4.30255H4.29007H4.27762H4.2652H4.2528H4.24042H4.22807H4.21575H4.20345H4.19118H4.17894H4.16672H4.15452H4.14236H4.13021H4.11809H4.106H4.09393H4.08189H4.06988H4.05788H4.04592H4.03398H4.02206H4.01017H3.9983H3.98646H3.97465H3.96286H3.95109H3.93935H3.92763H3.91594H3.90427H3.89263H3.88101H3.86942H3.85785H3.84631H3.83479H3.82329H3.81182H3.80037H3.78895H3.77755H3.76618H3.75483H3.7435H3.7322H3.72092H3.70967H3.69844H3.68723H3.67605H3.66489H3.65376H3.64265H3.63156H3.6205H3.60946H3.59844H3.58745H3.57648H3.56554H3.55462H3.54372H3.53284H3.52199H3.51116H3.50036H3.48958H3.47882H3.46808H3.45737H3.44668H3.43601H3.42537H3.41475H3.40415H3.39358H3.38303H3.3725H3.36199H3.35151H3.34105H3.33061H3.32019H3.3098H3.29943H3.28908H3.27875H3.26845H3.25817H3.24791H3.23767H3.22746H3.21727H3.20709H3.19695H3.18682H3.17672H3.16663H3.15657H3.14654H3.13652H3.12652H3.11655H3.1066H3.09667H3.08676H3.07688H3.06701H3.05717H3.04735H3.03755H3.02777H3.01801H3.00827H2.99856H2.98886H2.97919H2.96954H2.95991H2.9503H2.94071H2.93115H2.9216H2.91207H2.90257H2.89309H2.88362H2.87418H2.86476H2.85536H2.84598H2.83662H2.82728H2.81796H2.80867H2.79939H2.79013H2.7809H2.77168H2.76248H2.75331H2.74415H2.73502H2.7259H2.71681H2.70773H2.69868H2.68964H2.68063H2.67163H2.66265H2.6537H2.64476H2.63585H2.62695H2.61807H2.60922H2.60038H2.59156H2.58276H2.57398H2.56522H2.55648H2.54776H2.53906H2.53037H2.52171H2.51307H2.50444H2.49584H2.48725H2.47868H2.47013H2.4616H2.45309H2.4446H2.43612H2.42767H2.41923H2.41081H2.40241H2.39403H2.38567H2.37733H2.369H2.3607H2.35241H2.34414H2.33589H2.32765H2.31944H2.31124H2.30306H2.2949H2.28676H2.27864H2.27053H2.26244H2.25437H2.24632H2.23828H2.23027H2.22227H2.21429H2.20632H2.19837H2.19045H2.18253H2.17464H2.16677H2.15891H2.15107H2.14324H2.13543H2.12764H2.11987H2.11212H2.10438H2.09666H2.08896H2.08127H2.0736H2.06595H2.05831H2.05069H2.04309H2.0355H2.02794H2.02038H2.01285H2.00533H1.99783H1.99034H1.98287H1.97542H1.96798H1.96056H1.95316H1.94577H1.9384H1.93105H1.92371H1.91639H1.90908H1.90179H1.89452H1.88726H1.88002H1.87279H1.86558H1.85839H1.85121H1.84405H1.8369H1.82977H1.82265H1.81555H1.80847H1.8014H1.79434H1.7873H1.78028H1.77327H1.76628H1.7593H1.75234H1.74539H1.73846H1.73155H1.72464H1.71776H1.71089H1.70403H1.69719H1.69036H1.68355H1.67675H1.66997H1.6632H1.65645H1.64971H1.64299H1.63628H1.62958H1.6229H1.61624H1.60958H1.60295H1.59632H1.58972H1.58312H1.57654H1.56997H1.56342H1.55688H1.55036H1.54385H1.53735H1.53087H1.5244H1.51795H1.51151H1.50508H1.49867H1.49227H1.48588H1.47951H1.47315H1.46681H1.46047H1.45416H1.44785H1.44156H1.43528H1.42901H1.42276H1.41652H1.4103H1.40408H1.39789H1.3917H1.38552H1.37936H1.37322H1.36708H1.36096H1.35485H1.34875H1.34267H1.3366H1.33054H1.32449H1.31846H1.31244H1.30643H1.30043H1.29445H1.28848H1.28252H1.27657H1.27064H1.26471H1.2588H1.25291H1.24702H1.24114H1.23528H1.22943H1.22359H1.21777H1.21195H1.20615H1.20036H1.19458H1.18881H1.18305H1.17731H1.17158H1.16585H1.16014H1.15444H1.14876H1.14308H1.13742H1.13176H1.12612H1.12049H1.11487H1.10926H1.10366H1.09807H1.0925H1.08693H1.08138H1.07583H1.0703H1.06478H1.05927H1.05377H1.04828H1.0428H1.03733H1.03187H1.02642H1.02099H1.01556H1.01014H1.00474H0.999341C0.92655 12.25 0.871651 12.2201 0.842374 12.1894C0.828567 12.1749 0.822384 12.1624 0.819677 12.1542C0.817419 12.1474 0.815262 12.1372 0.818059 12.1192C1.18215 9.77997 2.97473 7.75 6 7.75C9.02527 7.75 10.8178 9.77997 11.1819 12.1192L11.923 12.0038L11.1819 12.1192Z" stroke="#333333" stroke-width="1.5" stroke-linecap="round" stroke-linejoin="round"/>
</svg>
