<svg width="16" height="16" viewBox="0 0 16 16" fill="none" xmlns="http://www.w3.org/2000/svg">
<path d="M13.6568 2.34313C12.1458 0.832156 10.1369 0 8 0C5.86309 0 3.85409 0.832156 2.34313 2.34313C0.832125 3.85413 0 5.86312 0 8C0 10.1369 0.832125 12.1458 2.34313 13.6568C3.85413 15.1678 5.86309 16 8 16C10.1369 16 12.1458 15.1678 13.6568 13.6568C15.1678 12.1458 16 10.1369 16 8C16 5.86312 15.1678 3.85416 13.6568 2.34313ZM8 15.0625C4.10572 15.0625 0.9375 11.8943 0.9375 8C0.9375 4.10572 4.10572 0.9375 8 0.9375C11.8943 0.9375 15.0625 4.10572 15.0625 8C15.0625 11.8943 11.8943 15.0625 8 15.0625Z" fill="#219653"/>
<path d="M11.822 5.43314C11.639 5.25014 11.3422 5.25014 11.1592 5.43318L7.01982 9.57252L4.84085 7.39355C4.65782 7.21052 4.36101 7.21052 4.17795 7.39355C3.99488 7.57658 3.99488 7.87339 4.17795 8.05646L6.68835 10.5669C6.77988 10.6584 6.89985 10.7041 7.01979 10.7041C7.13973 10.7041 7.25973 10.6584 7.35123 10.5669L11.822 6.09605C12.0051 5.91302 12.0051 5.61621 11.822 5.43314Z" fill="#219653"/>
</svg>
