<svg width="20" height="20" viewBox="0 0 20 20" fill="none" xmlns="http://www.w3.org/2000/svg">
<g clip-path="url(#clip0)">
<path d="M14.8729 8.23311C14.8729 8.23311 15.6817 7.61808 15.066 7.00305C14.4503 6.38802 13.8518 7.18169 13.8518 7.18169L7.66261 13.3722C7.66261 13.3722 6.21303 15.243 5.11086 14.1118C4.01 12.9793 5.84982 11.5594 5.84982 11.5594L13.9652 3.44471C13.9652 3.44471 15.859 1.35836 17.6395 3.13753C19.4174 4.91736 17.3251 6.81518 17.3251 6.81518L8.20644 15.9338C8.20644 15.9338 5.28884 19.3043 2.58812 16.6029C-0.112609 13.9015 3.29082 11.0169 3.29082 11.0169L10.2137 4.09204C10.2137 4.09204 10.9889 3.44471 10.4082 2.86198C9.82477 2.27991 9.17876 3.05645 9.17876 3.05645L1.23479 11.0004C1.23479 11.0004 -1.76389 14.2891 1.58482 17.6372C4.93354 20.9872 8.22424 17.9886 8.22424 17.9886L19.1425 7.06897C19.1425 7.06897 21.3271 4.65961 18.7226 2.05381C16.1181 -0.551991 13.7081 1.63258 13.7081 1.63258L4.31323 11.0261C4.31323 11.0261 1.90717 12.9833 4.09042 15.1652C6.27368 17.3498 8.19524 14.9081 8.19524 14.9081L14.8729 8.23311Z" fill="#757C80"/>
</g>
<defs>
<clipPath id="clip0">
<rect width="20" height="20" fill="white"/>
</clipPath>
</defs>
</svg>
