<svg width="24" height="24" viewBox="0 0 24 24" fill="none" xmlns="http://www.w3.org/2000/svg">
<path d="M12.0001 4.35516e-05C7.14672 4.35516e-05 2.77109 2.92387 0.913759 7.40787C-0.943573 11.8919 0.0831415 17.0532 3.51506 20.4851C8.20117 25.1712 15.7991 25.1712 20.4854 20.4851C25.1715 15.7988 25.1715 8.20086 20.4854 3.51474C18.2398 1.25704 15.1843 -0.0085572 12.0001 4.35516e-05ZM12.0001 22.8987C5.99035 22.8987 1.10126 18.0096 1.10126 11.9998C1.10126 5.99025 5.99035 1.10094 12.0001 1.10094C18.0097 1.10094 22.899 5.99025 22.899 11.9998C22.899 18.0096 18.0097 22.8987 12.0001 22.8987Z" fill="#757C80"/>
<path d="M12.4564 11.7723V6.96256C12.4564 6.65852 12.21 6.41211 11.9059 6.41211C11.6019 6.41211 11.3555 6.65852 11.3555 6.96256V12.0003C11.3555 12.1462 11.4135 12.2862 11.5167 12.3897L13.9766 14.8497C14.1916 15.0647 14.5401 15.0647 14.7551 14.8497C14.9699 14.6347 14.9699 14.2861 14.7551 14.0713L12.4564 11.7723Z" fill="#757C80"/>
</svg>
