<svg width="14" height="14" viewBox="0 0 14 14" fill="none" xmlns="http://www.w3.org/2000/svg">
<path fill-rule="evenodd" clip-rule="evenodd" d="M0.278534 0.278414C-0.0926878 0.649634 -0.0926869 1.2515 0.278535 1.62272L5.65579 6.99994L0.278416 12.3773C-0.0928053 12.7485 -0.0928054 13.3504 0.278416 13.7216C0.649637 14.0928 1.25151 14.0928 1.62273 13.7216L7.0001 8.34425L12.3773 13.7214C12.7486 14.0927 13.3504 14.0927 13.7216 13.7214C14.0929 13.3502 14.0929 12.7484 13.7216 12.3771L8.34441 6.99994L13.7215 1.62286C14.0927 1.25164 14.0927 0.649777 13.7215 0.278558C13.3503 -0.0926613 12.7484 -0.0926604 12.3772 0.278559L7.0001 5.65564L1.62284 0.278414C1.25162 -0.0928048 0.649755 -0.0928049 0.278534 0.278414Z" fill="#757C80"/>
</svg>
