<svg width="16" height="13" viewBox="0 0 16 13" fill="none" xmlns="http://www.w3.org/2000/svg">
<path fill-rule="evenodd" clip-rule="evenodd" d="M7.99998 1.57051C8.85973 0.568572 10.1286 -0.00669625 11.4633 0.000303904C13.9688 0.000303904 16 1.99364 16 4.45255C16 8.72596 8.50634 12.7807 8.20253 12.9397C8.07992 13.0201 7.92005 13.0201 7.79747 12.9397C7.49366 12.7807 0 8.66634 0 4.45255C0 1.99364 2.03113 0.000303904 4.53668 0.000303904C5.87325 -0.0151801 7.14562 0.561724 7.99998 1.57051ZM8.2548 11.9995L7.45765 9.60804L9.78284 7.28284C9.86758 7.1981 9.90986 7.07984 9.89805 6.96059C9.88624 6.84133 9.82159 6.73365 9.72188 6.66718L7.01569 4.86305L8.15231 2.58981C8.18619 2.57704 8.21894 2.55976 8.24971 2.53786C8.28603 2.51199 8.31798 2.48068 8.3443 2.44503C9.47064 0.754533 11.7802 0.280196 13.5027 1.38557C14.5572 2.06227 15.1919 3.21604 15.1898 4.45252C15.1899 7.70792 9.86038 11.069 8.2548 11.9995ZM7.32616 11.7434L6.62053 9.62649C6.57262 9.48276 6.61002 9.32429 6.71716 9.21716L8.87214 7.06217L6.27812 5.33282C6.11027 5.22092 6.05201 5.00155 6.14223 4.82111L7.46374 2.1781C6.76696 1.29745 5.68543 0.78051 4.53672 0.795316C2.47857 0.795316 0.810128 2.43274 0.810128 4.45255C0.810128 7.42983 5.37213 10.5428 7.32616 11.7434Z" fill="#333333"/>
</svg>
