<svg width="16" height="21" viewBox="0 0 16 21" fill="none" xmlns="http://www.w3.org/2000/svg">
<path d="M7.57305 20.4413C7.65886 20.5415 7.78581 20.5995 7.91969 20.5996H7.91998C8.05372 20.5995 8.18053 20.5417 8.26648 20.4418L13.6331 14.2165C16.7609 11.0887 16.7934 6.0217 13.7028 2.91433C12.242 1.43167 10.2222 0.595358 8.11224 0.599626H8.11055C5.94853 0.599626 3.91234 1.44943 2.37915 2.9899C-0.756781 6.11311 -0.797496 11.1799 2.28585 14.2923L7.57305 20.4413ZM3.02749 3.6043C4.39032 2.23509 6.19537 1.48068 8.11055 1.48068H8.11196C9.97695 1.4771 11.7619 2.2165 13.0528 3.52707C14.3811 4.86284 15.1057 6.64946 15.0925 8.55791C15.0792 10.4699 14.327 12.2648 12.9741 13.6123C12.966 13.6201 12.9582 13.6287 12.951 13.6371L7.9204 19.4723L2.96938 13.7147C2.96246 13.7064 2.9551 13.6986 2.94747 13.6909C1.61913 12.3553 0.894595 10.5685 0.907884 8.66005C0.91156 6.77046 1.672 4.95659 3.02749 3.6043Z" fill="#F2F2F2"/>
<path d="M8.00005 12.0456C10.2195 12.0456 12.0186 10.2938 12.0186 8.13272C12.0186 5.97165 10.2195 4.21973 8.00019 4.21973C5.78078 4.21973 3.98181 5.97165 3.98181 8.13272C3.98436 10.2928 5.78191 12.0432 8.00005 12.0456ZM8.00005 5.10078C9.71971 5.10078 11.1138 6.45816 11.1138 8.13272C11.1138 9.80714 9.71985 11.1645 8.00019 11.1645C6.28053 11.1645 4.8866 9.80714 4.8866 8.13272C4.88858 6.45899 6.28124 5.10271 8.00005 5.10078Z" fill="#F2F2F2"/>
</svg>
