<svg width="16" height="16" viewBox="0 0 16 16" fill="none" xmlns="http://www.w3.org/2000/svg">
<path d="M15.612 6.13087C15.512 5.80731 15.2373 5.57853 14.912 5.54719L10.4945 5.12836L8.74776 0.861776C8.6191 0.549432 8.32575 0.347656 7.99982 0.347656C7.67376 0.347656 7.38042 0.550069 7.25175 0.863177L5.50513 5.12912L1.08692 5.54783C0.762329 5.57853 0.487664 5.80731 0.387564 6.13087C0.286975 6.45442 0.380239 6.80842 0.625607 7.03249L3.96505 10.0879L2.98028 14.6133C2.90838 14.9459 3.03228 15.2895 3.29706 15.4899C3.4383 15.5984 3.60566 15.6527 3.77303 15.6527C3.91768 15.6527 4.06173 15.6124 4.19039 15.5316L7.99982 13.1545L11.8085 15.531C12.0872 15.7055 12.4385 15.6902 12.7026 15.4906C12.9672 15.2902 13.0913 14.9466 13.0192 14.614L12.0346 10.0887L15.374 7.03312C15.6193 6.80918 15.7127 6.45506 15.612 6.13087Z" fill="white"/>
</svg>
