<svg width="20" height="20" viewBox="0 0 20 20" fill="none" xmlns="http://www.w3.org/2000/svg">
<g clip-path="url(#clip0)">
<path fill-rule="evenodd" clip-rule="evenodd" d="M15.8322 9.2514C15.8496 9.22724 15.8717 9.19632 15.8982 9.15922C15.9703 9.05807 16.0739 8.91163 16.1993 8.73181C16.4504 8.37165 16.7867 7.88033 17.1303 7.35237C17.4753 6.82228 17.8206 6.26602 18.0933 5.77366C18.2258 5.53438 18.3289 5.33153 18.4051 5.16699H16.6983C16.6865 5.16699 16.6763 5.16733 16.6676 5.16785C16.6674 5.1683 16.6672 5.16876 16.667 5.16922L16.6653 5.17334L16.6539 5.20015C16.6441 5.22291 16.6301 5.25532 16.612 5.29649C16.5758 5.37881 16.5232 5.49632 16.4554 5.64189C16.3199 5.93264 16.1229 6.33749 15.8744 6.79884C15.3837 7.70968 14.6662 8.89024 13.7981 9.8424L13.7795 9.86281L13.7598 9.88217C13.3036 10.3302 12.7864 10.8278 12.0383 10.8278C11.075 10.8278 10.6892 9.89825 10.6892 9.21199V5.16699H8.54559C8.74722 5.54252 8.90757 6.02921 8.9451 6.69941L8.94667 6.72735V9.91949C8.94667 10.2568 8.92908 10.7074 8.72145 11.0783C8.59156 11.3104 8.39338 11.5053 8.13029 11.6227C7.89536 11.7276 7.67452 11.7403 7.54167 11.7403C7.16877 11.7403 6.86452 11.5823 6.6742 11.4594C6.46623 11.3251 6.27196 11.1521 6.09628 10.9714C5.74305 10.608 5.3739 10.1185 5.01488 9.56118C4.29415 8.44248 3.54263 6.93894 2.98309 5.33793C2.95599 5.26366 2.93339 5.20861 2.91479 5.16783H1.07715C1.08993 5.21906 1.10477 5.27559 1.122 5.33759C1.2214 5.69513 1.38437 6.17786 1.63217 6.76509C2.12726 7.9384 2.95363 9.51142 4.26559 11.3166L4.27225 11.3257C5.93456 13.6683 8.20135 14.8337 10.1283 14.8337C10.3773 14.8337 10.5593 14.8226 10.6906 14.8066C10.6899 14.5222 10.6877 14.284 10.6857 14.0679C10.684 13.8874 10.6825 13.7223 10.6821 13.5583C10.6812 13.2063 10.6851 12.8719 10.7268 12.6017C10.7672 12.3388 10.8777 11.8847 11.3105 11.5857C11.6747 11.3342 12.0876 11.3344 12.2535 11.3345L12.2625 11.3345C13.003 11.3345 13.81 11.7494 15.1295 12.997L15.1362 13.0033L15.1428 13.0098C15.5316 13.3912 15.8384 13.7193 16.0886 13.9912C16.1412 14.0484 16.1901 14.1017 16.2359 14.1517C16.4165 14.3487 16.5488 14.4931 16.6702 14.6126C16.8182 14.7583 16.8888 14.8039 16.9197 14.8198C16.9203 14.8202 16.921 14.8205 16.9216 14.8208C16.9313 14.826 16.9458 14.8337 17.0042 14.8337H18.7892C18.7076 14.7049 18.6021 14.5529 18.4701 14.3789C18.1736 13.9879 17.8033 13.5623 17.4285 13.1559C17.0557 12.7515 16.6895 12.3783 16.4049 12.0915C16.3411 12.0273 16.2789 11.9648 16.2216 11.9073C16.1554 11.8409 16.0958 11.781 16.048 11.7328C16.0023 11.6864 15.9596 11.6429 15.9248 11.6063C15.9239 11.6053 15.9228 11.6042 15.9216 11.6029C15.9039 11.5844 15.8547 11.5328 15.8086 11.4737C15.5888 11.1951 15.3494 10.7968 15.3913 10.2821C15.4243 9.87723 15.6368 9.54534 15.733 9.39512C15.7395 9.38509 15.7454 9.37587 15.7507 9.36749L15.8101 9.27351L15.8322 9.2514ZM16.5958 10.857C16.6201 10.8905 16.7426 11.0134 16.9277 11.1992C17.7102 11.9845 19.6121 13.893 19.9483 14.922C20.13 15.527 19.8142 15.8337 19.1908 15.8337H17.0042C16.4207 15.8337 16.1263 15.5125 15.4895 14.8174C15.2186 14.5218 14.8858 14.1585 14.4425 13.7237C13.1425 12.4945 12.5858 12.3345 12.2625 12.3345C11.6701 12.3345 11.6716 12.5004 11.6855 14.0421C11.688 14.3157 11.6908 14.6326 11.6908 14.9995C11.6908 15.527 11.5208 15.8337 10.1283 15.8337C7.81167 15.8337 5.265 14.4528 3.45667 11.9045C0.743333 8.17116 0 5.34533 0 4.77699C0 4.45533 0.125833 4.16783 0.75 4.16783H2.9375C3.49833 4.16783 3.70917 4.40783 3.925 5.00199C4.99417 8.06449 6.79833 10.7403 7.54167 10.7403C7.82083 10.7403 7.94667 10.6128 7.94667 9.91949V6.75533C7.89618 5.85378 7.57594 5.46403 7.33877 5.17538C7.19229 4.9971 7.0775 4.85739 7.0775 4.65949C7.0775 4.42199 7.285 4.16699 7.63417 4.16699H11.0725C11.5333 4.16699 11.6892 4.41116 11.6892 4.95783V9.21199C11.6892 9.66783 11.9017 9.82783 12.0383 9.82783C12.3158 9.82783 12.5508 9.66783 13.0592 9.16866C14.6342 7.44116 15.7475 4.77616 15.7475 4.77616C15.885 4.45449 16.1417 4.16699 16.6983 4.16699H18.885C18.8871 4.16699 18.8892 4.167 18.8913 4.167C18.9934 4.16733 19.0829 4.17573 19.1607 4.19139C19.1615 4.19154 19.1623 4.1917 19.163 4.19185C19.5826 4.27731 19.6606 4.57494 19.5458 4.95783L19.5442 4.95866C19.2692 6.20949 16.6 9.89783 16.5958 9.90199C16.365 10.267 16.2725 10.4487 16.5958 10.857ZM11.0843 5.16734C11.0843 5.16736 11.0837 5.16732 11.0823 5.1672L11.0843 5.16734Z" fill="white"/>
</g>
<defs>
<clipPath id="clip0">
<rect width="20" height="20" fill="white"/>
</clipPath>
</defs>
</svg>
